<svg width="320" height="325" xmlns="http://www.w3.org/2000/svg" xmlns:xlink="http://www.w3.org/1999/xlink" xml:space="preserve" overflow="hidden"><defs><clipPath id="clip0"><rect x="479" y="154" width="320" height="325"/></clipPath></defs><g clip-path="url(#clip0)" transform="translate(-479 -154)"><path d="M378.061 444.336C380.517 449.758 382.701 455.319 385.476 460.572 393.292 475.366 390.374 483.422 374.45 488.984 353.156 496.417 331.477 495.413 310.238 489.547 294.214 485.118 278.78 478.571 263.03 473.125 253.512 469.837 244.082 465.868 234.272 463.931 215.258 460.181 203.309 469.873 202.397 489.303 202.038 496.94 203.409 504.656 204.027 512.802 205.493 512.096 206.426 511.895 206.456 511.598 208.561 490.992 221.485 491.009 234.875 501.791 242.613 508.019 248.192 516.858 255.482 523.738 266.087 533.749 276.068 545.449 288.593 552.204 323.919 571.261 361.277 560.236 382.475 526.08 388.079 517.048 391.926 506.922 395.695 496.277 357.024 524.287 317.21 530.759 274.923 507.46 295.756 517.41 317.746 521.067 340.953 517.188 357.829 514.366 373.02 508.012 385.58 496.209 403.21 479.636 401.138 457.381 378.061 444.336" fill="#237D26" transform="matrix(1 0 0 -1.00048 280.157 717.341)"/><path d="M506.66 370.969C496.384 343.016 479.858 321.868 459.051 305.496 460.159 310.846 460.74 316.389 460.74 322.069 460.74 322.865 460.729 323.661 460.704 324.45 469.787 337.386 477.23 351.578 482.228 367.555 487.055 382.991 489.78 400.55 488.388 416.627 485.853 445.853 466.176 456.491 441.486 444.641 431.21 439.711 421.604 433.071 411.195 428.556 398.649 423.117 385.831 417.538 372.643 415.017 363.098 413.196 352.759 416.261 342.73 419.471 374.902 415.785 398.144 431.866 418.32 456.118 423.486 462.325 429.438 467.947 435.666 472.902 463.899 495.359 493.734 486.097 507.625 450.858 518.181 424.078 516.352 397.33 506.66 370.969" fill="#C2000B" transform="matrix(1 0 0 -1.00048 280.284 717.411)"/><path d="M377.932 426.885C363.493 429.797 349.744 434.39 335.839 434.928 310.923 435.892 292.984 421.012 286.95 396.821 279.302 366.153 284.824 338.939 298.212 313.915 299.288 303.108 302.472 292.926 307.352 283.779 288.796 298.576 273.443 316.336 265.673 341.642 258.201 365.97 256.093 389.685 265.422 413.371 274.322 435.978 289.772 452.257 315.172 455.717 340.536 459.173 360.592 449.259 376.315 429.657 376.978 428.832 377.462 427.85 377.932 426.885" fill="#C2000B" transform="matrix(1 0 0 -1.00048 280.208 717.437)"/><path d="M378.061 426.609C378.14 426.358 378.014 426.064 378.061 426.609L378.061 426.609" fill="#C2000B" transform="matrix(1 0 0 -1.00048 280.316 717.464)"/><path d="M378.061 426.613C378.054 426.631 378.047 426.652 378.036 426.67 378 426.742 377.968 426.814 377.932 426.885 377.982 426.875 378.036 426.864 378.086 426.853 378.075 426.76 378.064 426.681 378.061 426.613" fill="#C2000B" transform="matrix(1 0 0 -1.00048 280.316 717.463)"/><path d="M397.95 450.102C403.805 452.465 410.306 453.089 411.381 455.839 420.087 478.019 437.893 490.031 459.553 499.647 436.018 503.333 403.63 478.184 397.95 450.102" fill="#018837" transform="matrix(1 0 0 -1.00048 280.334 717.397)"/><path d="M460.629 322.09C460.629 277.099 424.157 240.627 379.165 240.627 334.173 240.627 297.7 277.099 297.7 322.09 297.7 367.082 334.173 403.554 379.165 403.554 424.157 403.554 460.629 367.082 460.629 322.09" fill="#FE330A" transform="matrix(1 0 0 -1.00048 280.243 717.485)"/><path d="M348.608 352.776 350.839 351.513C351.485 351.126 352.229 350.689 353.07 350.205 353.91 349.721 354.686 349.233 355.398 348.749 356.109 348.265 356.74 347.86 357.29 347.537 357.839 347.214 358.146 347.053 358.211 347.053 359.893 349.961 361.331 352.435 362.528 354.472 363.722 356.508 364.759 358.287 365.633 359.807 366.505 361.327 367.279 362.7 367.96 363.93 368.638 365.156 369.366 366.419 370.14 367.713 370.918 369.007 371.79 370.46 372.761 372.08 373.733 373.694 374.927 375.666 376.351 377.996L378.387 381.292 377.419 381.195C376.447 381.001 375.637 380.84 374.992 380.711 374.346 380.582 373.762 380.42 373.246 380.227 372.729 380.033 372.227 379.803 371.743 379.545 371.259 379.287 370.725 378.964 370.14 378.577 368.785 377.67 367.279 376.408 365.633 374.794 363.984 373.177 362.27 371.316 360.492 369.215 358.713 367.114 356.917 364.834 355.107 362.378 353.296 359.922 351.616 357.433 350.063 354.909ZM345.213 346.569C345.083 346.569 344.938 346.501 344.777 346.372 344.615 346.243 344.372 345.952 344.049 345.501 343.725 345.049 343.305 344.432 342.788 343.658 342.27 342.883 341.591 341.879 340.751 340.649 335.06 332.116 329.968 325.762 325.474 321.588 320.979 317.418 316.792 315.332 312.912 315.332 310.842 315.332 308.999 315.902 307.384 317.031 305.766 318.164 304.408 319.616 303.309 321.395 302.209 323.173 301.353 325.131 300.739 327.264 300.124 329.398 299.817 331.467 299.817 333.471 299.817 334.83 300.012 335.995 300.4 336.963 300.788 337.935 301.336 338.419 302.048 338.419 302.436 338.419 302.824 338.337 303.212 338.179 303.6 338.014 304.086 337.838 304.667 337.645 305.249 337.447 305.977 337.272 306.85 337.11 307.723 336.949 308.838 336.866 310.197 336.866 311.489 336.866 312.604 337.013 313.543 337.304 314.479 337.594 315.692 338.096 317.18 338.806 317.826 339.129 318.844 339.746 320.236 340.649 321.625 341.556 323.032 342.542 324.455 343.607 325.877 344.676 327.138 345.676 328.238 346.616 329.338 347.551 329.887 348.218 329.887 348.606 329.887 348.735 329.628 348.799 329.111 348.799 328.787 348.799 328.319 348.767 327.705 348.702 327.089 348.634 326.427 348.588 325.716 348.555 325.004 348.523 324.31 348.473 323.631 348.412 322.952 348.344 322.45 348.312 322.127 348.312 321.092 348.312 320.348 348.426 319.896 348.652 319.443 348.878 319.218 349.348 319.218 350.058 319.218 352.969 320.123 355.167 321.933 356.655 323.743 358.143 326.104 358.885 329.014 358.885 331.537 358.885 334.059 358.498 336.58 357.724L338.521 357.139 340.945 359.663C342.82 361.732 344.68 363.751 346.522 365.723 348.366 367.695 350.095 369.506 351.712 371.155 353.328 372.805 354.816 374.293 356.174 375.619 357.532 376.942 358.695 378.029 359.667 378.868 363.027 381.779 366.472 384.056 369.997 385.705 373.522 387.355 376.77 388.244 379.746 388.373 383.755 388.373 387.082 388.276 389.735 388.083 392.389 387.889 394.504 387.581 396.089 387.161 397.674 386.742 398.789 386.222 399.434 385.609 400.083 384.995 400.406 384.268 400.406 383.428 400.406 383.167 400.342 382.894 400.212 382.604 400.083 382.31 399.807 381.811 399.388 381.098 398.965 380.388 398.319 379.384 397.448 378.093 396.573 376.799 395.394 374.988 393.906 372.661 390.675 367.681 387.846 363.106 385.418 358.936 382.995 354.766 380.99 350.836 379.406 347.15 377.821 343.464 376.641 340.004 375.867 336.77 375.088 333.535 374.701 330.402 374.701 327.361 374.701 325.873 374.78 324.726 374.945 323.919 375.103 323.109 375.268 322.478 375.429 322.026 375.59 321.574 375.752 321.219 375.913 320.961 376.075 320.703 376.157 320.441 376.157 320.183 376.157 319.537 375.54 318.906 374.314 318.293 373.084 317.677 371.582 317.146 369.803 316.691 368.025 316.239 366.15 315.866 364.178 315.575 362.202 315.285 360.474 315.138 358.986 315.138 356.529 315.138 354.477 315.93 352.828 317.515 351.179 319.1 350.354 321.703 350.354 325.325 350.354 327.264 350.677 329.38 351.324 331.678 351.97 333.973 352.94 336.479 354.235 339.194L355.689 342.299 353.458 343.367C352.94 343.625 352.309 343.916 351.567 344.238 350.823 344.561 350.03 344.869 349.19 345.16 348.35 345.45 347.573 345.726 346.862 345.985 346.15 346.243 345.601 346.436 345.213 346.569" fill="#FFFFFF" transform="matrix(1 0 0 -1.00048 280.245 717.498)"/><path d="M380.61 317.501C379.015 316.916 377.76 316.626 376.845 316.626 375.734 316.626 374.952 317.063 374.493 317.935 374.034 318.81 373.805 320.19 373.805 322.083 373.805 322.517 373.841 322.929 373.916 323.317 373.988 323.704 374.12 324.238 374.314 324.916 375.042 327.634 376.361 330.179 378.28 332.553 380.194 334.927 382.425 336.999 384.97 338.77 387.512 340.542 390.23 341.936 393.113 342.955 395.996 343.969 398.75 344.479 401.367 344.479 403.063 344.479 404.676 344.224 406.204 343.715 407.731 343.206 409.101 342.528 410.313 341.682 411.525 340.832 412.507 339.864 413.257 338.77 414.01 337.68 414.458 336.529 414.605 335.318L414.748 334.081 417.294 336.555C418.649 337.863 419.865 338.964 420.93 339.864 421.995 340.76 422.977 341.474 423.877 342.008 424.774 342.539 425.656 342.915 426.53 343.134 427.402 343.353 428.348 343.46 429.367 343.46 430.625 343.46 431.79 343.256 432.855 342.844 433.924 342.431 434.856 341.886 435.656 341.209 436.455 340.527 437.111 339.753 437.621 338.882 438.13 338.007 438.431 337.085 438.528 336.117L438.675 335.171 440.711 336.988C442.748 338.781 444.77 340.262 446.782 341.424 448.793 342.589 450.747 343.17 452.637 343.17 454.236 343.17 455.559 342.89 456.599 342.334 457.642 341.775 458.467 341.097 459.073 340.298 459.679 339.498 460.091 338.638 460.31 337.716 460.529 336.795 460.636 335.97 460.636 335.246 460.636 333.062 459.959 330.588 458.6 327.827 458.65 327.971 458.431 327.644 457.947 326.845 457.459 326.045 456.828 324.991 456.054 323.682 455.279 322.374 454.419 320.918 453.472 319.319 452.529 317.72 451.629 316.192 450.783 314.736 449.933 313.281 449.184 311.983 448.528 310.846 447.875 309.706 447.474 308.967 447.33 308.627 446.746 307.415 446.273 306.3 445.91 305.281 445.548 304.263 445.243 303.27 445.003 302.302 444.759 301.33 444.591 300.348 444.494 299.354 444.394 298.361 444.347 297.282 444.347 296.12 444.347 295.439 444.408 294.883 444.53 294.446 444.648 294.012 444.785 293.671 444.928 293.427 445.075 293.187 445.208 292.979 445.329 292.811 445.448 292.642 445.512 292.484 445.512 292.337 445.512 291.66 444.978 290.907 443.91 290.082 442.845 289.261 441.572 288.483 440.095 287.755 438.614 287.027 437.111 286.425 435.584 285.937 434.057 285.453 432.83 285.209 431.912 285.209 430.41 285.209 429.209 285.708 428.312 286.701 427.413 287.694 426.968 289.042 426.968 290.738 426.968 291.757 427.061 292.775 427.258 293.793 427.452 294.812 427.864 296.07 428.492 297.572 429.123 299.075 429.994 300.918 431.113 303.101 432.228 305.281 433.73 308.071 435.62 311.463 437.219 314.374 438.675 317.089 439.983 319.609 441.292 322.13 442.422 324.371 443.365 326.336 444.311 328.301 445.05 329.936 445.584 331.244 446.115 332.553 446.384 333.428 446.384 333.862 446.384 334.346 446.115 334.59 445.581 334.59 445 334.59 444.272 334.299 443.397 333.718 442.522 333.134 441.611 332.395 440.668 331.499 439.722 330.603 438.772 329.584 437.829 328.444 436.882 327.304 436.068 326.203 435.39 325.135 433.253 321.743 431.249 318.336 429.381 314.919 427.513 311.499 425.838 308.325 424.358 305.392 422.877 302.456 421.625 299.889 420.607 297.684 419.589 295.475 418.857 293.89 418.424 292.918 417.986 292 417.631 291.283 417.366 290.774 417.097 290.265 416.796 289.878 416.455 289.609 416.114 289.344 415.666 289.186 415.11 289.139 414.551 289.089 413.762 289.064 412.744 289.064 410.754 289.064 409.126 289.089 407.864 289.139 406.602 289.186 405.594 289.283 404.841 289.43 404.092 289.573 403.569 289.781 403.278 290.046 402.988 290.315 402.841 290.642 402.841 291.029 402.841 291.176 402.877 291.38 402.948 291.645 403.024 291.914 403.167 292.312 403.386 292.847 403.604 293.381 403.92 294.059 404.332 294.883 404.745 295.708 405.29 296.773 405.971 298.082 408.205 302.302 410.388 306.447 412.525 310.52 414.659 314.589 416.552 318.3 418.205 321.646 419.854 324.991 421.177 327.838 422.17 330.19 423.167 332.542 423.666 334.127 423.666 334.952 423.666 335.339 423.472 335.536 423.081 335.536 422.063 335.583 420.704 334.773 419.004 333.098 417.305 331.427 415.075 328.648 412.307 324.772 410.754 322.592 409.273 320.276 407.864 317.827 406.455 315.378 405.135 312.929 403.895 310.48 402.658 308.035 401.507 305.669 400.438 303.392 399.37 301.111 398.423 299.053 397.599 297.21 396.774 295.367 396.057 293.829 395.451 292.592 394.845 291.355 394.368 290.57 394.031 290.229 393.741 289.939 393.461 289.709 393.192 289.537 392.927 289.369 392.514 289.247 391.955 289.175 391.396 289.103 390.621 289.053 389.624 289.028 388.628 289.007 387.283 288.992 385.587 288.992L379.259 288.992 378.753 289.501C378.315 289.842 378.097 290.254 378.097 290.738 378.097 291.176 378.29 291.767 378.678 292.52 379.065 293.273 379.671 294.374 380.496 295.83 381.998 298.544 383.21 300.688 384.131 302.266 385.053 303.84 385.781 305.077 386.315 305.973 386.846 306.87 387.258 307.562 387.552 308.046 387.842 308.53 388.133 309.003 388.423 309.466 388.714 309.925 389.065 310.48 389.477 311.137 389.89 311.793 390.485 312.797 391.263 314.156 391.457 314.493 391.797 315.109 392.281 316.009 392.769 316.906 393.339 317.96 393.992 319.172 394.648 320.384 395.354 321.692 396.103 323.098 396.856 324.503 397.584 325.909 398.291 327.318 398.993 328.724 399.65 330.054 400.255 331.316 400.861 332.578 401.36 333.668 401.747 334.59 402.332 336.045 402.622 337.254 402.622 338.225 402.622 339.921 401.797 340.771 400.148 340.771 398.689 340.771 397.269 340.309 395.885 339.391 394.501 338.469 393.264 337.318 392.174 335.934 391.08 334.554 390.194 333.012 389.517 331.316 388.836 329.62 388.495 328.021 388.495 326.519 388.495 325.837 388.556 325.099 388.678 324.299 388.8 323.5 388.861 322.929 388.861 322.592 388.861 321.814 388.1 320.979 386.58 320.082 385.06 319.183 383.07 318.322 380.61 317.501" fill="#FFFFFF" transform="matrix(1 0 0 -1.00048 280.312 717.538)"/></g></svg>