<svg width="234" height="66" xmlns="http://www.w3.org/2000/svg" xmlns:xlink="http://www.w3.org/1999/xlink" xml:space="preserve" overflow="hidden"><defs><clipPath id="clip0"><rect x="501" y="-58" width="234" height="66"/></clipPath></defs><g clip-path="url(#clip0)" transform="translate(-501 58)"><path d="M3.45592 28.735C3.80853 29.2132 4.20175 29.636 4.62389 29.9943 4.85598 30.1906 5.09702 30.3683 5.34635 30.5249 5.47995 30.6086 5.64247 30.604 5.77401 30.5137 5.99025 30.3638 6.19682 30.1906 6.39793 30.0072 6.18374 29.6729 6.10594 29.2059 6.15896 28.774 6.28568 27.6386 7.10039 26.7075 7.95778 26.794 7.49361 26.66 7.0267 26.9234 6.6438 27.2623 6.44615 27.2466 6.25124 27.3025 6.0653 27.3862 5.39797 27.6636 4.6907 27.7324 3.99722 27.6543 3.53444 27.5918 3.07646 27.4327 2.65639 27.1637 2.63985 27.1526 2.62263 27.1424 2.60611 27.13 2.56477 27.1032 2.52347 27.0752 2.48352 27.0453 2.75349 27.6618 3.08197 28.2293 3.45592 28.735ZM8.53142 28.9528C8.20777 29.6805 7.61756 30.1347 7.00257 30.2419 7.65337 30.361 8.29729 29.7617 8.53142 28.9528ZM4.87596 24.8524C4.85598 24.0892 4.93657 23.272 5.28572 22.6455 4.81261 23.1585 4.6549 24.0996 4.87596 24.8524ZM19.4234 32.5547C19.4325 32.2758 19.396 31.962 19.2354 31.7655 19.0915 31.5991 18.8388 31.7422 18.8057 31.989 18.6659 32.4442 18.7431 32.9535 18.9262 33.3667 18.9593 33.4418 18.9958 33.5146 19.0357 33.5826 19.119 33.4392 19.2023 33.2885 19.2712 33.1272 19.347 32.9497 19.4042 32.7595 19.4234 32.5547ZM16.969 31.7897C16.7322 31.881 16.675 32.2189 16.6942 32.5046 16.6984 32.8098 16.812 33.0733 16.9112 33.3368 17.0132 33.134 17.1405 32.9264 17.1577 32.673 17.1577 32.3623 17.0799 32.0598 16.969 31.7897ZM-0.0735207 16.8512C-0.0714535 16.802-0.0693865 16.7516-0.0659411 16.7023 0.431974 7.30577 6.24709-0.133202 13.3239-0.133202 20.1108-0.133202 25.7372 6.70823 26.6263 15.5575 26.6911 16.1987 26.7303 16.8512 26.7439 17.513 26.7439 17.5139 26.7439 17.5139 26.7439 17.5149 26.7439 20.4674 26.1709 23.4023 25.2944 26.095 25.1752 26.4703 25.0375 26.8332 24.8991 27.1963 24.7703 27.5334 24.6408 27.8702 24.5251 28.2156 24.731 28.0348 24.9039 27.7938 25.0155 27.4977 25.2179 26.9384 25.762 26.794 26.1704 26.9803 26.8494 27.3071 27.3392 28.072 27.7149 28.8718 27.386 28.949 27.0663 29.0875 26.7639 29.2785 26.9045 29.5996 27.0395 29.9273 27.1318 30.2801 27.3943 31.4362 27.2669 32.6703 27.0491 33.8191 26.4802 33.7212 25.8927 33.5154 25.4396 33.0185 25.136 32.6563 24.9259 32.1779 24.6925 31.7366 24.6396 31.7543 24.5863 31.7723 24.5341 31.7908 24.4955 32.1688 24.5175 32.5615 24.4095 32.9208 24.2938 33.4392 23.9315 33.7733 23.5645 33.926 22.9378 34.1726 22.2788 34.3412 21.7119 34.801 21.6279 34.4426 21.5376 34.0871 21.4448 33.7333 21.1114 34.1875 20.7182 34.6121 20.2341 34.7069 19.8257 34.8753 19.42 34.6763 19.0625 34.4148 19.0384 34.3971 19.0151 34.3792 18.9917 34.3617 18.6632 34.5739 18.3072 34.7451 17.9373 34.7044 17.6337 34.7163 17.3424 34.5812 17.0888 34.3627 16.9848 34.274 16.8878 34.1698 16.7982 34.0573 16.3947 34.1336 15.9705 34.1642 15.6014 33.8858 15.0745 33.5146 14.7019 32.7906 14.1062 32.5866 13.7178 32.3969 13.2619 32.449 12.9183 32.7653 12.5298 33.1628 12.5801 34.0527 12.9506 34.4399 13.16 34.6399 13.4258 34.6381 13.671 34.6725 13.3804 34.8513 13.0264 34.9165 12.7398 34.6846 12.18 34.1875 12.1194 32.9226 12.6607 32.3686 13.1434 31.7897 13.8749 31.83 14.4416 32.1418 15.0091 32.4275 15.3699 33.1515 15.927 33.4597 16.1165 33.5462 16.3168 33.5667 16.5152 33.59 16.3589 33.0566 16.1992 32.4609 16.3286 31.8866 16.4373 31.4259 16.8561 31.1381 17.1854 31.3831 17.5214 31.6752 17.5903 32.2616 17.5745 32.7605 17.5482 33.1591 17.3692 33.5073 17.1811 33.8014 17.3408 33.9063 17.5006 34.0267 17.6714 34.0954 17.7478 34.1263 17.8265 34.1465 17.9084 34.1513 18.1825 34.2173 18.4373 34.0322 18.6948 33.9371 18.6439 33.8309 18.5956 33.7202 18.5523 33.6069 18.3615 33.1171 18.25 32.5615 18.3629 32.0151 18.4296 31.5467 18.7224 31.0686 19.1067 31.1214 19.5474 31.1457 19.8071 31.7852 19.8229 32.3195 19.8393 32.4497 19.84 32.5772 19.8277 32.7001 19.7837 33.1843 19.5514 33.6125 19.3409 34.0014 19.4042 34.0322 19.4682 34.0666 19.533 34.098 19.7059 34.1829 19.8849 34.2527 20.07 34.2118 20.5383 34.0962 21.0204 33.7844 21.3144 33.2736 21.2987 33.0716 21.267 32.8695 21.2312 32.6685 21.1658 32.299 21.0859 31.9296 21.0646 31.5571 21.0508 31.3318 21.059 31.1065 21.1037 30.8784 21.2126 30.3863 21.5721 30.1395 21.8723 29.8929 21.867 29.8454 21.8552 29.7486 21.8489 29.7013 21.4818 29.7402 21.1086 29.9094 20.7416 29.7905 20.1535 29.5865 19.6453 29.0858 19.2375 28.491 19.639 27.8181 20.09 27.1917 20.6218 26.7057 21.0714 26.2561 21.6231 26.0037 22.1856 26.0766 22.0293 25.6791 21.9419 25.2424 21.8882 24.7994 22.4324 24.6543 23.0266 24.6859 23.5107 25.086 23.8254 25.3159 24.096 25.695 24.1768 26.179 24.2036 26.3891 24.2015 26.5988 24.1884 26.8081 24.1629 27.2102 24.0995 27.6115 24.1319 28.0154 24.8164 26.2533 25.2881 24.3443 25.5911 22.3999 25.5814 22.4127 25.5721 22.4249 25.5622 22.4379 25.1015 23.0448 24.6421 23.6574 24.125 24.1757 24.0135 24.3005 23.866 24.321 23.7332 24.3777 23.692 24.1413 23.7524 23.93 23.8957 23.8025 24.5327 23.0988 25.2489 22.0666 25.7757 21.1693 25.7999 20.9915 25.8224 20.8127 25.8424 20.6331 25.9405 19.7787 25.9914 18.9027 25.9914 18.012 25.9914 17.2748 25.9567 16.5487 25.8894 15.8357 25.0961 7.41845 19.7637 0.890656 13.3239 0.890656 6.68924 0.890656 1.23014 7.81872 0.699185 16.6046 0.683335 16.8633 0.671637 17.1249 0.665437 17.3874 0.659924 17.5727 0.657168 17.7578 0.657168 17.944 0.656478 17.9664 0.656478 17.9897 0.656478 18.012 0.656478 18.1907 0.658546 18.3684 0.66268 18.5453 0.671637 18.9557 0.691604 19.3635 0.722596 19.7666 0.739807 19.9965 0.760462 20.2254 0.784578 20.4526 0.784578 20.4516 0.785269 20.4497 0.785269 20.4488 0.785956 20.4591 0.786629 20.4693 0.788025 20.4795 0.955354 22.0405 1.27903 23.5336 1.73633 24.9287 1.83478 25.2286 1.93949 25.5235 2.05036 25.8141 2.26246 26.0857 2.51589 26.3193 2.73627 26.5186 2.96145 26.7141 3.20803 26.9022 3.4828 26.9088 4.06815 26.8762 4.60602 26.4099 4.93725 25.7693 4.98892 25.6586 5.07156 25.5544 5.06946 25.4138 5.16934 25.3374 5.28091 25.3792 5.38492 25.4156 5.27813 25.2498 5.08807 25.1958 4.94896 25.3187 4.66936 24.9055 4.5957 24.3032 4.65768 23.7635 4.7341 23.0969 4.99923 22.4594 5.40831 22.0638 5.66586 21.8189 5.99988 21.6737 6.31185 21.7929 6.58455 21.8842 6.80217 22.1727 6.91445 22.5134 7.08041 23.0086 7.06663 23.5838 6.94611 24.0947 6.79461 24.7278 6.46815 25.3169 6.00469 25.5794 5.78226 25.7162 5.5309 25.722 5.29674 25.6416 5.05502 26.2255 4.68934 26.7252 4.23687 27.0034 4.16597 27.0491 4.08674 27.0724 4.02203 27.1338 4.60187 27.2557 5.19759 27.2363 5.77262 27.0769 6.07564 26.996 6.36832 26.8585 6.66514 26.7449 7.47709 26.4235 8.30073 26.1117 9.14919 26.0356 9.66981 25.9676 10.1898 26.0728 10.709 26.1026 9.55344 25.7145 8.32622 25.7655 7.18232 26.2023 7.8104 25.5488 8.53764 24.9986 9.34133 24.9027 10.0321 24.8143 10.7325 25.0088 11.3646 25.386 11.8157 25.6492 12.2241 26.0242 12.6056 26.4415 11.9555 26.5037 11.3509 26.8602 10.762 27.2102 10.185 27.5539 9.58166 27.8775 8.94189 27.8904 8.86269 27.4942 8.6547 27.1505 8.37373 26.9887 8.47703 27.0967 8.58377 27.2046 8.65885 27.3526 8.87508 27.7584 8.8971 28.3029 8.79244 28.7702 8.61889 29.5409 8.14164 30.1777 7.56524 30.3926 7.27118 30.5034 6.94955 30.4783 6.67202 30.3013 6.71058 30.2381 6.76637 30.1719 6.75258 30.0798 6.734 29.8937 6.59694 29.7877 6.47576 29.7382 6.55909 29.8183 6.67065 29.9197 6.65275 30.0798 6.64448 30.2131 6.53564 30.2149 6.47301 30.2819 6.26846 30.4735 6.05154 30.6392 5.83185 30.7965 6.64036 31.2145 7.50943 31.4109 8.37441 31.395 8.57689 31.396 8.76627 31.2807 8.93567 31.1391 9.67325 30.5572 10.2462 29.6815 10.9349 29.0086 11.5554 28.4205 12.2502 27.98 12.9733 27.6737 13.5759 27.4085 14.2074 27.2613 14.7873 26.906 14.4575 28.5014 13.8135 30.0315 12.8184 31.0339 12.2482 31.615 11.565 31.9908 10.8571 32.1137 10.311 32.2189 9.75725 32.1584 9.21598 32.03 9.98658 31.6651 10.7517 31.2491 11.4363 30.6412 11.5926 30.4988 11.7523 30.3582 11.8839 30.1731 10.333 31.6196 8.34409 32.1286 6.50191 31.6325 6.27465 31.571 6.05015 31.4957 5.82838 31.4036 5.94063 31.6529 6.07357 31.8838 6.1934 32.1268 6.2058 32.1536 6.22094 32.1779 6.23748 32.1984 6.26087 32.2199 6.28497 32.2414 6.30909 32.2626 6.35934 32.298 6.41517 32.3223 6.46679 32.3501 6.94338 32.5914 7.44606 32.7952 7.84692 33.2364 7.86963 33.2594 7.89165 33.2845 7.9137 33.3098 8.01493 33.4233 8.10996 33.5442 8.20018 33.6701 8.54316 34.1493 8.82069 34.7079 9.1168 35.245 9.37506 35.7141 9.64708 36.1665 9.98871 36.5331 9.17534 36.5407 8.33792 36.4366 7.59278 35.9644 7.04526 35.6256 6.5756 35.045 6.30702 34.3114 6.17204 33.9475 6.07013 33.5639 5.96612 33.1821 5.8766 32.8528 5.78501 32.5231 5.66862 32.2085 6.10457 32.8715 6.56116 33.525 7.0797 34.0722 7.27669 34.2806 7.4819 34.4732 7.69884 34.6455 7.55629 34.5041 7.41372 34.3617 7.27669 34.21 7.15961 34.0815 7.04665 33.9465 6.9392 33.8021 6.53013 33.2809 6.18238 32.6854 5.82358 32.1026 5.65279 31.8234 5.47856 31.5488 5.29467 31.2853 5.10324 31.0218 4.84015 30.9034 4.60326 30.737 4.23758 30.4819 3.88702 30.186 3.55786 29.8527 2.91533 29.2021 2.34992 28.4136 1.89402 27.521 1.83342 27.4011 1.77419 27.28 1.71702 27.1571 1.51387 26.7131 1.33414 26.2478 1.18676 25.7638 1.06624 25.368 0.966377 24.9622 0.892697 24.5454 0.862395 24.3796 0.836915 24.2121 0.816261 24.0444 0.812126 24.0444 0.803857 24.0453 0.799723 24.0453 0.800411 24.1069 0.801101 24.1683 0.802479 24.229 0.803857 24.3489 0.807301 24.4681 0.810748 24.5872 0.822446 24.9112 0.842428 25.2332 0.872042 25.5551 0.898882 25.8363 0.97878 26.1072 1.09997 26.338 1.53315 27.1369 1.99389 27.914 2.35475 28.7785 2.59855 29.3642 2.77895 29.9954 2.91396 30.6402 3.19905 31.9862 3.32165 33.3841 3.60813 34.7294 2.80652 34.2044 2.09167 33.4354 1.52834 32.5021 0.816261 31.3235 0.334865 29.8659 0.248782 28.3403 0.215723 27.6366 0.245352 26.9161 0.397537 26.2394 0.693673 27.8945 1.16885 29.5101 1.89954 30.9044 1.23359 29.1055 0.700546 27.189 0.513235 25.1829 0.458832 24.5369 0.442984 23.8853 0.46641 23.2367 0.427152 23.0635 0.390647 22.8894 0.355538 22.7135 0.0924617 21.3862-0.0624959 19.9992-0.0948655 18.5705-0.0989998 18.3852-0.101051 18.199-0.101051 18.012-0.101051 17.7765-0.0976216 17.5419-0.0914201 17.3092-0.0865968 17.1556-0.0810844 17.0029-0.0735207 16.8512" fill="#1F6632" fill-rule="evenodd" transform="matrix(6.24032e-17 1 1.01912 -6.12323e-17 540.43 -38.2759)"/><path d="M0.97962 0.493763C0.829011 0.538833 0.656708 0.549919 0.489902 0.552301 0.214316 0.545274-0.0510309 0.46752-0.230306 0.346012-0.216985 0.326222-0.203687 0.306538-0.191378 0.286508-0.15491 0.227608-0.140968 0.164998-0.135446 0.102764 0.122332 0.0488582 0.345046-0.0610829 0.462453-0.206318 0.636415-0.0894684 0.88722-0.0125459 1.15277-2.67791e-05 1.28309 0.00403022 1.41216-0.0112338 1.53983-0.0250651 1.53307 0.0516029 1.51135 0.128392 1.4599 0.199463 1.36483 0.326341 1.1923 0.431984 0.97962 0.493763" fill="#5E2791" fill-rule="evenodd" transform="matrix(1.01912 0 0 -1 563.366 -33.2184)"/><path d="M1.12809 0.69524C0.999726 0.723373 0.865247 0.735518 0.731619 0.736638 0.396354 0.728483 0.0779963 0.576294-0.0930218 0.359826-0.14875 0.287889-0.184633 0.208438-0.214613 0.128489 0.159073 0.134418 0.525987-0.0261039 0.703542-0.274856 0.855537-0.149678 1.04913-0.0505515 1.2704-0.0128204 1.4471 0.0154735 1.63562 0.0148325 1.80685-0.0326563 1.81232 0.0327454 1.80304 0.09845 1.78129 0.161751 1.6941 0.404752 1.44605 0.615949 1.12809 0.69524" fill="#5E2791" fill-rule="evenodd" transform="matrix(1.01912 0 0 -1 561.304 -33.2184)"/><path d="M0.528432 1.0432C0.280384 1.0353 0.0530751 0.946192-0.114459 0.82591-0.0726131 0.74843-0.0281909 0.669569-0.0241114 0.585959-0.0120879 0.487947-0.0428123 0.389574-0.0985281 0.299069-0.134255 0.248126-0.181447 0.20132-0.230336 0.155632-0.152956 0.141114-0.0737298 0.130981 0.00253351 0.113196 0.228554 0.05225 0.419962-0.0669131 0.520487-0.217493 0.720766-0.225377 0.928084-0.199839 1.09727-0.124245 1.29628-0.0423778 1.44492 0.0927988 1.50674 0.24425 1.58152 0.425869 1.52655 0.623763 1.37051 0.778959 1.18169 0.957706 0.85313 1.06273 0.528432 1.0432" fill="#5E2791" fill-rule="evenodd" transform="matrix(1.01912 0 0 -1 564.139 -31.954)"/><path d="M0.62878 1.24221C0.308278 1.2053 0.0226862 1.04315-0.123293 0.823131-0.260268 0.620264-0.259249 0.37421-0.140979 0.166278 0.205241 0.13765 0.530974-0.0249567 0.682207-0.266582L0.699663-0.263052C0.818162-0.18098 0.941064-0.0967734 1.09489-0.0560378 1.24309-0.0110311 1.40335 0.000458892 1.56139-0.00229447 1.68411 0.0932436 1.75319 0.226446 1.7817 0.357353 1.84256 0.628684 1.69175 0.92052 1.40456 1.08756 1.19008 1.22016 0.900296 1.27283 0.62878 1.24221" fill="#5E2791" fill-rule="evenodd" transform="matrix(1.01912 0 0 -1 562.077 -31.954)"/><path d="M0.133928 0.887495C-0.0427928 0.78432-0.16586 0.63645-0.186259 0.478265-0.2581 0.153729 0.116933-0.180607 0.600812-0.220851 0.672634-0.15259 0.765633-0.0952701 0.870532-0.0503082 1.04142 0.024453 1.24934 0.0500599 1.45045 0.0459846 1.33005 0.216775 1.33761 0.42261 1.46254 0.591239 1.49506 0.633016 1.541 0.669184 1.57501 0.710319 1.57143 0.737197 1.53968 0.757574 1.5185 0.778975 1.36993 0.91985 1.13178 1.01499 0.878293 1.03919 0.613863 1.05982 0.335232 1.00621 0.133928 0.887495" fill="#5E2791" fill-rule="evenodd" transform="matrix(1.01912 0 0 -1 560.273 -32.2069)"/><path d="M-0.2362 0.193503C0.0672664 0.149248 0.328526-0.0258955 0.452659-0.251595 0.695301-0.279562 0.955134-0.231894 1.15021-0.110265 1.33681-0.00306293 1.46557 0.164667 1.51469 0.344247 1.5867 0.618048 1.45262 0.919259 1.17843 1.09212 1.03122 1.19263 0.841447 1.24544 0.650242 1.25472 0.356354 1.27826 0.0614068 1.16906-0.131203 0.992473-0.0808235 0.886838-0.0405629 0.776066-0.0407362 0.66173-0.035244 0.503137-0.111505 0.350096-0.221302 0.220774-0.225194 0.213917-0.232459 0.20036-0.2362 0.193503" fill="#5E2791" fill-rule="evenodd" transform="matrix(1.01912 0 0 -1 563.108 -30.6897)"/><path d="M0.775186 1.04171C0.571262 1.0603 0.361809 1.01795 0.191467 0.93721-0.0236777 0.832594-0.172448 0.658832-0.198192 0.472026-0.227946 0.269417-0.111259 0.0602992 0.101537-0.0729176 0.220391-0.144475 0.362477-0.202157 0.516939-0.218329 0.577783-0.186585 0.619409-0.137837 0.682582-0.107191 0.863963-0.00510291 1.10165 0.0376213 1.32933 0.0200022 1.40956 0.00443032 1.4298 0.0785177 1.4679 0.113873 1.62353 0.320957 1.59244 0.587509 1.40322 0.77769 1.25662 0.922852 1.02509 1.02627 0.775186 1.04171" fill="#5E2791" fill-rule="evenodd" transform="matrix(1.01912 0 0 -1 561.304 -30.9425)"/><path d="M1.37885 1.09867C1.1881 1.21615 0.936654 1.26847 0.691887 1.2605 0.405748 1.24805 0.1346 1.13597-0.0429718 0.968994-0.170332 0.842984-0.248178 0.687783-0.256507 0.529457-0.259919 0.356544-0.194533 0.179687-0.0489348 0.0429984 0.14706-0.152353 0.47763-0.268774 0.804049-0.254849 1.06652-0.243889 1.32449-0.157094 1.50116-0.0099855 1.75298 0.188214 1.83047 0.49634 1.71214 0.75308 1.64476 0.887877 1.53403 1.01199 1.37885 1.09867" fill="#5E2791" fill-rule="evenodd" transform="matrix(1.01912 0 0 -1 561.819 -29.6782)"/><path d="M2.27569 0.818595C2.21016 0.838488 2.13704 0.823756 2.07169 0.810971 1.93398 0.781377 1.80384 0.737564 1.67502 0.693111 1.32387 0.568409 0.986789 0.425622 0.652856 0.280106 0.336701 0.140419 0.0216636-0.000966683-0.285982-0.149446-0.229344-0.157835-0.1738-0.169466-0.119396-0.183171 0.390012 0.0561612 0.903864 0.291222 1.43567 0.505997 1.61097 0.575254 1.78738 0.644013 1.9734 0.698538 2.0391 0.716249 2.10613 0.73524 2.17719 0.738343 2.22644 0.736659 2.27254 0.718308 2.30789 0.695046 2.35546 0.663644 2.36768 0.614422 2.35823 0.570733 2.33824 0.472396 2.25514 0.383617 2.14075 0.325461 2.19276 0.319786 2.24236 0.306983 2.28808 0.288759 2.37139 0.341877 2.43227 0.410748 2.46762 0.485181 2.49891 0.551866 2.50965 0.627207 2.47003 0.693377 2.43562 0.752564 2.3597 0.79597 2.27569 0.818595" fill="#F68714" fill-rule="evenodd" transform="matrix(1.01912 0 0 -1 566.974 -27.6552)"/><path d="M1.04925 0.105956C1.13843 0.106915 1.24199 0.104599 1.30725 0.0340239 1.36028 0.0384464 1.41348 0.0424946 1.46671 0.0453964 1.45062 0.11211 1.40507 0.170751 1.34153 0.196982 1.21998 0.248463 1.08351 0.235733 0.956216 0.217808 0.686537 0.173255 0.427374 0.0800987 0.17625-0.0259742 0.012007-0.0984677-0.15356-0.171944-0.303426-0.272236-0.0779409-0.178707 0.152514-0.0973212 0.386221-0.0271207 0.602881 0.0355449 0.823002 0.0955427 1.04925 0.105956" fill="#F68714" fill-rule="evenodd" transform="matrix(1.01912 0 0 -1 568.004 -27.6552)"/><path d="M2.39247 1.50263C2.4357 1.45513 2.4425 1.39604 2.43188 1.34067 2.16591 1.37404 1.89462 1.38516 1.62466 1.39495 1.51843 1.3999 1.41088 1.40183 1.30631 1.41706 1.24515 1.42516 1.19993 1.45888 1.16387 1.49284 1.23817 1.60113 1.39126 1.67207 1.54986 1.69986 1.70312 1.72911 1.86454 1.71257 2.01531 1.68464 2.16175 1.65479 2.31052 1.59992 2.39247 1.50263ZM0.848191 1.63376C0.840041 1.5679 0.789168 1.50928 0.721195 1.46686 0.685108 1.44607 0.643882 1.42613 0.597019 1.42286 0.539819 1.42565 0.473991 1.44534 0.452057 1.48681 0.435929 1.52463 0.45405 1.56415 0.478652 1.59666 0.532339 1.66337 0.613795 1.72114 0.712547 1.7499 0.749287 1.75994 0.797318 1.76187 0.825235 1.73842 0.856493 1.70894 0.853501 1.66893 0.848191 1.63376ZM1.56713 1.7516C1.41055 1.72851 1.26077 1.67002 1.16003 1.57829 1.15322 1.63158 1.13161 1.68451 1.09006 1.72948 1.0204 1.80792 0.899712 1.86037 0.77172 1.86992 0.66833 1.87959 0.560929 1.85843 0.476158 1.81553 0.398691 1.89735 0.324887 1.98038 0.243108 2.05967 0.217336 2.08625 0.171125 2.09374 0.1294 2.09399 0.053104 2.09386-0.0218702 2.07864-0.0946769 2.06159-0.157513 2.04564-0.222343 2.02944-0.28052 2.00539-0.163669 2.024-0.0476419 2.05108 0.0730451 2.05724 0.115268 2.05845 0.166313 2.05652 0.19241 2.02776 0.273366 1.94847 0.347995 1.86629 0.424289 1.78496 0.383736 1.75716 0.351332 1.72465 0.32207 1.6902 0.24792 1.72996 0.172295 1.77226 0.0841862 1.7939 0.0477719 1.80549 0.0181854 1.78253-0.00457345 1.76477-0.0682549 1.71449-0.122117 1.65854-0.176132 1.60282L-0.179123 1.59291C-0.0955005 1.63049-0.0358289 1.69008 0.0383 1.73589 0.0537758 1.74277 0.0715496 1.75644 0.0901684 1.74834 0.164146 1.72308 0.22631 1.68343 0.292635 1.64851 0.247096 1.57055 0.22282 1.48764 0.214345 1.40377 0.206867 1.34298 0.214844 1.27964 0.245254 1.222 0.280497 1.15178 0.357965 1.09304 0.453552 1.06379 0.527029 1.04555 0.60699 1.06126 0.678126 1.07963 0.832389 1.12278 0.975682 1.19782 1.05764 1.30322 1.07027 1.24979 1.08989 1.19663 1.12795 1.14985 1.16087 1.10899 1.20342 1.07275 1.24781 1.03817 1.113 0.987302 0.980669 0.926503 0.82658 0.914416 0.765911 0.905955 0.707389 0.924329 0.648216 0.931215 0.709556 0.833087 0.770898 0.729866 0.769054 0.620122 0.770898 0.571302 0.736651 0.528281 0.722192 0.481871 0.695425 0.413226 0.693083 0.338656 0.646719 0.273508 0.625609 0.243662 0.584881 0.225886 0.545302 0.211987 0.460033 0.180453 0.391886 0.129332 0.33553 0.074334 0.417636 0.0925826 0.497941 0.115669 0.578226 0.138519 0.650209 0.158454 0.714694 0.194825 0.752602 0.243173 0.819255 0.323794 0.826904 0.41975 0.870472 0.506407 0.92466 0.607799 0.894077 0.720315 0.852004 0.821472 0.905196 0.826924 0.958386 0.83381 1.00861 0.84831 1.1293 0.88178 1.24216 0.928079 1.35519 0.972787 1.36235 0.967965 1.36933 0.963001 1.3763 0.958052 1.31446 0.91913 1.25081 0.879244 1.17765 0.851334 1.112 0.834283 1.044 0.82281 0.982662 0.799126 1.01808 0.755617 1.05215 0.71283 1.08024 0.66702 1.13029 0.583263 1.17683 0.492871 1.15539 0.400886 1.13677 0.29127 1.10086 0.179728 1.01275 0.0879967 0.922665-0.00313599 0.811277-0.0831431 0.736803-0.181887 0.815439-0.142475 0.895397-0.104417 0.980343-0.0714186 1.04335-0.0467561 1.0874-0.00349843 1.12429 0.0405 1.18662 0.118332 1.22735 0.204501 1.25878 0.291758 1.27541 0.347117 1.29467 0.40344 1.29103 0.460597 1.28455 0.562366 1.23084 0.658447 1.17134 0.74884 1.29916 0.776638 1.39759 0.847223 1.49731 0.907892 1.5771 0.87888 1.66571 0.86897 1.75382 0.864744 1.83311 0.765165 1.91389 0.659772 2.04754 0.593064 2.01047 0.495046 1.98139 0.392912 1.9937 0.291159 2.0015 0.224326 2.03924 0.160865 2.08545 0.103582 2.14497 0.0318011 2.21279-0.0381834 2.30372-0.0911172 2.35025-0.118064 2.39863-0.144177 2.45-0.165687 2.35706-0.0546199 2.26331 0.0563218 2.18418 0.173441 2.15394 0.220339 2.12034 0.269884 2.12169 0.323306 2.11885 0.426148 2.15509 0.527666 2.20015 0.625212 2.15095 0.655547 2.09808 0.68333 2.04953 0.715116 1.98986 0.760927 1.94497 0.816286 1.90043 0.870181 2.00133 0.880458 2.09774 0.906805 2.18585 0.943666 2.25367 0.968926 2.30835 1.00905 2.35092 1.0545 2.4415 1.15286 2.49721 1.26889 2.50085 1.38757 2.50501 1.46456 2.45431 1.53731 2.38101 1.59073 2.26863 1.67364 2.11386 1.7192 1.95895 1.74301 1.83079 1.76199 1.69679 1.77106 1.56713 1.7516" fill="#F68714" fill-rule="evenodd" transform="matrix(1.01912 0 0 -1 564.912 -25.6322)"/><path d="M2.69159-0.0728066C2.76011-0.00491831 2.77766 0.0938158 2.77612 0.184282 2.77559 0.269654 2.73437 0.353537 2.6641 0.407116 2.56409 0.4849 2.43381 0.514565 2.30821 0.531545 2.07948 0.559546 1.84779 0.543726 1.61923 0.521805 1.3526 0.495936 1.08751 0.457868 0.823288 0.415016 0.451751 0.359637 0.0950097 0.242469-0.258278 0.12381-0.236349 0.111437-0.214604 0.0989277-0.193044 0.0857413-0.0674611 0.138139 0.0711601 0.149021 0.206491 0.150512 0.406709 0.209009 0.608641 0.264544 0.815808 0.29504 1.07202 0.337389 1.32946 0.37447 1.5881 0.401017 1.82119 0.426557 2.05774 0.45078 2.29204 0.422607 2.38458 0.409574 2.48024 0.389147 2.55696 0.335589 2.61175 0.297675 2.64898 0.236524 2.65054 0.171599 2.65297 0.106344 2.63939 0.0328404 2.58356-0.0115019 2.50391-0.0756143 2.39676-0.0949002 2.29586-0.107099 2.32544-0.139552 2.35292-0.173845 2.37414-0.212068 2.48911-0.191137 2.6088-0.155217 2.69159-0.0728066" fill="#F68714" fill-rule="evenodd" transform="matrix(1.01912 0 0 -1 567.489 -27.1494)"/><path d="M2.27955-0.208935C2.36428-0.186828 2.45341-0.139935 2.48159-0.057224 2.50632 0.0174945 2.46722 0.093786 2.42025 0.152966 2.33226 0.260293 2.20557 0.333566 2.0758 0.389896 1.88297 0.471543 1.67214 0.511849 1.46128 0.523964 1.21479 0.536803 0.963678 0.514866 0.728114 0.444102 1.02331 0.437512 1.32001 0.430902 1.61233 0.386687 1.81034 0.35461 2.00719 0.295961 2.17529 0.190952 2.24582 0.144782 2.31656 0.0889819 2.34759 0.0117764 2.36236-0.0204918 2.33169-0.0490188 2.30332-0.0625594 2.22475-0.101417 2.13273-0.103925 2.0457-0.10214 1.84081-0.0923406 1.64165-0.0377737 1.45035 0.028357 1.28436 0.0859421 1.1243 0.15726 0.965805 0.230702 0.749391 0.32519 0.522442 0.403629 0.285732 0.439828 0.0940482 0.469419-0.107601 0.469781-0.292383 0.408262-0.255954 0.377077-0.22183 0.343557-0.191547 0.307016-0.0926541 0.333396 0.0114275 0.338921 0.113589 0.333034 0.337088 0.318939 0.553295 0.255488 0.759175 0.176157 0.905811 0.119996 1.04438 0.0477858 1.18967-0.0108623 1.39612-0.0951889 1.60984-0.1681 1.83199-0.20749 1.97919-0.231914 2.13312-0.244945 2.27955-0.208935" fill="#F68714" fill-rule="evenodd" transform="matrix(1.01912 0 0 -1 567.489 -26.8966)"/><path d="M0.520265 0.788265C0.577576 0.788265 0.637097 0.778588 0.684407 0.752319 0.680023 0.68461 0.664658 0.617012 0.64525 0.551004 0.513829 0.591008 0.37882 0.623394 0.240842 0.646947 0.242078 0.685717 0.239746 0.724599 0.229245 0.762636 0.325415 0.77748 0.422521 0.78889 0.520265 0.788265ZM-0.0164999 0.267745C-0.0819814 0.208854-0.174544 0.174391-0.265234 0.145188-0.222928 0.0633539-0.177055-0.0194479-0.107967-0.0893731-0.0551988-0.142862 0.0296919-0.178683 0.115838-0.176358 0.217348-0.0745294 0.317743 0.0274082 0.415009 0.131578 0.495513 0.220139 0.579768 0.307858 0.642898 0.40502 0.710552 0.520707 0.737334 0.648914 0.74626 0.775763 0.683927 0.817219 0.598102 0.835871 0.517116 0.835011 0.394005 0.835262 0.270754 0.817717 0.15093 0.797098 0.19479 0.721165 0.186182 0.633696 0.163923 0.554453 0.133235 0.449925 0.0744885 0.348346-0.0164999 0.267745" fill="#F68714" fill-rule="evenodd" transform="matrix(1.01912 0 0 -1 567.231 -26.3908)"/><path d="M0.517741 0.774521C0.570956 0.745808 0.637732 0.708587 0.62852 0.658541 0.621551 0.598873 0.613648 0.53922 0.598054 0.480058 0.544816 0.518641 0.491601 0.557209 0.431981 0.590981 0.463194 0.651754 0.49104 0.712894 0.517741 0.774521ZM0.0441661-0.158318C0.07407-0.153139 0.106803-0.151775 0.128804-0.136866 0.225086-0.0756041 0.316691-0.011998 0.403012 0.0550559 0.463006 0.103492 0.523936 0.151929 0.560246 0.209007 0.599925 0.270638 0.624754 0.334979 0.645447 0.399566 0.669341 0.473516 0.687391 0.548951 0.694522 0.62477 0.695294 0.647938 0.704506 0.671475 0.699036 0.693908 0.662749 0.764424 0.570581 0.812983 0.473738 0.846388 0.426535 0.723618 0.368222 0.602583 0.295999 0.485727 0.226792 0.370483 0.115454 0.269778 0.00334344 0.17191-0.0963284 0.0849974-0.204838 0.00352432-0.310729-0.0798029-0.263337-0.107767-0.211057-0.133786-0.15312-0.151653-0.0918159-0.171129-0.0203412-0.165827 0.0441661-0.158318" fill="#F68714" fill-rule="evenodd" transform="matrix(1.01912 0 0 -1 568.004 -26.1379)"/><path d="M-0.0059748 0.230562C-0.000492969 0.203234 0.00532408 0.175645 0.00548182 0.147548-0.0042001 0.168967-0.013251 0.191017-0.021316 0.212544-0.0161497 0.218729-0.0111411 0.224392-0.0059748 0.230562ZM0.00112397 0.00118482C0.0813595-0.0513472 0.161102-0.105633 0.242778-0.156534 0.186599-0.0805675 0.128645-0.00461616 0.071658 0.071212 0.057776 0.0857067 0.0642438 0.103464 0.0645594 0.119589 0.0674775 0.197556 0.0455109 0.274401 0.0193638 0.349229-0.0720131 0.235732-0.162562 0.122482-0.262971 0.0135254-0.176601 0.000923234-0.086526-0.0153257 0.00112397 0.00118482" fill="#F68714" fill-rule="evenodd" transform="matrix(1.01912 0 0 -1 569.035 -25.8851)"/><path d="M0.483659 0.801045C0.542148 0.789567 0.604906 0.776524 0.64771 0.745727 0.621098 0.678915 0.596433 0.612338 0.563119 0.547535 0.517483 0.565066 0.472201 0.581422 0.425857 0.597409 0.451584 0.664104 0.472909 0.73175 0.483659 0.801045ZM-0.209798-0.136125C-0.157459-0.156379-0.096139-0.163368-0.0372743-0.163844-0.00856093-0.148557 0.0138258-0.127827 0.0378051-0.109581 0.130847-0.0370872 0.221611 0.0373102 0.306533 0.114429 0.395527 0.196172 0.484875 0.280637 0.540047 0.375644 0.613001 0.495056 0.669566 0.619566 0.714871 0.744776 0.724382 0.759468 0.703765 0.769416 0.691422 0.779007 0.666226 0.796079 0.636273 0.810533 0.602782 0.819887 0.546217 0.83623 0.48576 0.852945 0.422494 0.846059 0.412452 0.755915 0.388141 0.666231 0.346905 0.580115 0.295275 0.473255 0.192344 0.382514 0.0987714 0.290822-0.0231831 0.177093-0.148478 0.0657426-0.277468-0.0433625-0.283107-0.0493999-0.292797-0.0552144-0.294213-0.0629172-0.280829-0.0934762-0.250147-0.120124-0.209798-0.136125" fill="#F68714" fill-rule="evenodd" transform="matrix(1.01912 0 0 -1 567.747 -26.1379)"/><path d="M0.311042 0.500353C0.3623 0.456222 0.375305 0.399047 0.380206 0.345284 0.383409 0.318823 0.359093 0.296388 0.341397 0.273956 0.318034 0.303828 0.290883 0.331866 0.265454 0.361617 0.285241 0.406965 0.295784 0.454148 0.311042 0.500353ZM0.00824461-0.133837C0.127896-0.0327719 0.233241 0.074995 0.338191 0.182777 0.379462 0.226909 0.426188 0.270183 0.448972 0.320039 0.450666 0.369054 0.442562 0.419768 0.417317 0.465973 0.387938 0.519976 0.325372 0.562396 0.260925 0.600441 0.241718 0.501451 0.21515 0.402458 0.172742 0.306756 0.143921 0.246653 0.110942 0.186789 0.0532764 0.136196-0.0524172 0.0392781-0.180174-0.0460549-0.309441-0.12945-0.215034-0.171988-0.0919914-0.161996 0.00824461-0.133837" fill="#F68714" fill-rule="evenodd" transform="matrix(1.01912 0 0 -1 568.52 -26.1379)"/><path d="M-0.00638367 0.553146-0.033114 0.552698C-0.0314274 0.526483-0.0312137 0.500093-0.0318542 0.473688-0.0265808 0.469773-0.0211152 0.46596-0.0156496 0.462046L0.0769456 0.399798 0.0832652 0.396334 0.0880903 0.393231C0.102416 0.384052 0.113988 0.376134 0.123873 0.367944 0.214355 0.305507 0.282526 0.233328 0.326508 0.152971 0.367542 0.0986121 0.397859 0.042919 0.420362-0.0119622 0.963059 0.413168 1.32751 0.806904 1.55689 1.21273L1.59959 1.28847 1.7187 1.29264C1.73531 1.29319 1.75173 1.29347 1.76815 1.29347 2.05095 1.29347 2.20309 1.20109 2.28074 1.12363L2.33503 1.06956 2.30032 1.00842C2.07937 0.621323 1.75974 0.255802 1.3454-0.0845908 3.45997 0.367028 5.62527 0.708524 7.81814 0.932051 7.83369 1.08842 7.84464 1.2455 7.84927 1.40251 7.34469 1.41306 6.84008 1.42862 6.33524 1.43117 4.13608 1.44611 1.93523 1.34844-0.242686 1.13948-0.136 0.963168-0.0509839 0.768958-0.0343736 0.567979L-0.00638367 0.553146" fill="#80CC2A" fill-rule="evenodd" transform="matrix(1.01912 0 0 -1 567.231 -22.3448)"/><path d="M4.76072 5.26751C3.05145 4.5324 1.41129 3.71669-0.14341 2.82601 1.12106 1.68577 2.6708 0.711093 4.42392-0.0428527 5.79007 0.95571 7.2381 1.89785 8.77565 2.76416 9.3322 3.07995 9.89972 3.38595 10.4773 3.68202 8.64117 3.74708 6.98657 4.10834 5.66229 4.7366 5.31305 4.91316 5.01367 5.08931 4.76072 5.26751" fill="#80CC2A" fill-rule="evenodd" transform="matrix(1.01912 0 0 -1 545.068 -13.7471)"/><path d="M7.43888 6.19801C7.43868 6.19801 7.43888 6.19801 7.43868 6.19801 7.3922 6.19801 7.34595 6.1998 7.29993 6.20291 4.45632 4.37765 1.92301 2.28193-0.213532-0.0200693 7.6384 0.197846 14.243 4.5584 15.4646 10.3478 13.1508 9.44275 10.9508 8.37884 8.89326 7.1782 8.8615 6.92504 8.71918 6.68704 8.47278 6.51117 8.20959 6.31033 7.84083 6.19801 7.43888 6.19801" fill="#80CC2A" fill-rule="evenodd" transform="matrix(1.01912 0 0 -1 559.242 -11.977)"/><path d="M6.25291 0.455365 6.18339 0.528089 6.24969 0.602471C6.34991 0.714818 6.48666 0.795219 6.62584 0.855876L6.87022 0.96579C6.92203 0.980586 7.02751 1.00959 7.07932 1.02381L7.32585 1.09127 7.33159 0.902124C7.33295 0.858015 7.33771 0.814405 7.34441 0.771381L7.35002 0.721534 7.3609 0.687351C7.42996 0.399191 7.61744 0.14453 7.88758-0.0240858 7.94076-0.132728 8.05329-0.152207 8.2148-0.0982662 8.40499-0.105385 8.58829-0.132728 8.76652-0.159993 8.65369 0.408932 8.58847 1.04338 8.7689 1.65737 8.76508 1.65776 8.76126 1.65815 8.75747 1.65845 5.82719 1.93308 2.85135 1.92509-0.0816863 1.6711-0.0807559 1.60052-0.0770339 1.52984-0.0733121 1.46053-0.0677509 1.32521-0.0575158 1.18658-0.0435587 1.04464 2.13696 0.936477 4.3031 0.678404 6.41727 0.278669L6.36647 0.333588C6.32892 0.374377 6.29132 0.415165 6.25291 0.455365" fill="#80CC2A" fill-rule="evenodd" transform="matrix(1.01912 0 0 -1 541.46 -22.092)"/><path d="M0.230203 2.07832C0.848995 1.7896 1.08557 1.09213 0.689217 0.614109 0.550799 0.426423 0.309429 0.271179 0.0121171 0.176508 0.060873 0.0953763 0.0972243 0.0118036 0.12095-0.0723795 2.27178 1.06995 4.56037 2.07458 6.95607 2.92084 6.96846 2.98505 6.98088 3.04928 6.99221 3.11409 7.02746 3.315 7.05596 3.51719 7.07775 3.72073 4.62458 3.40198 2.20952 2.93194-0.135898 2.32045-0.175278 2.29252-0.214902 2.2647-0.255587 2.23718-0.0877828 2.20613 0.0795793 2.15834 0.230203 2.07832" fill="#1F6632" fill-rule="evenodd" transform="matrix(1.01912 0 0 -1 568.004 -19.5632)"/><path d="M14.1837 5.99346C14.1605 5.99346 14.1374 5.99394 14.114 5.99482 14.1014 5.99444 14.0891 5.99432 14.0768 5.99432 13.7474 5.99432 13.4606 6.09961 13.2292 6.21414 12.9184 5.93661 12.5101 5.78013 12.0859 5.78013 12.0754 5.78013 12.0647 5.78013 12.0541 5.78034 12.0233 5.77854 11.9929 5.77768 11.9625 5.77768 11.6434 5.77768 11.3633 5.87094 11.1076 5.98448 10.9148 5.84709 10.6461 5.69542 10.3035 5.64778 10.1968 5.62669 10.0854 5.61607 9.97265 5.61607 9.64955 5.61607 9.30613 5.7049 8.99373 5.86737 8.88628 5.82287 8.77835 5.77619 8.67301 5.7306 8.21753 5.53353 7.74668 5.32969 7.20149 5.24794 7.14552 5.2379 7.08908 5.23269 7.03297 5.23269L7.03297 5.23269C6.77732 5.23269 6.53367 5.33905 6.35125 5.52703 6.31322 5.52557 6.27513 5.5241 6.2371 5.52289 3.91211 4.31246 1.75395 2.93814-0.210487 1.43364 2.08507 0.542282 4.68972 0.0237692 7.43443-0.0106059 9.71366 2.30618 12.4259 4.40149 15.4677 6.20921 15.3839 6.23819 15.3043 6.27215 15.2299 6.31124 14.9765 6.1511 14.6166 5.99346 14.1837 5.99346" fill="#1F6632" fill-rule="evenodd" transform="matrix(1.01912 0 0 -1 550.48 -11.977)"/><path d="M7.20836 1.85001C6.98111 2.10422 6.80784 2.38011 6.6399 2.64751 6.63171 2.66056 6.62334 2.67373 6.6151 2.68691 4.43457 3.17243 2.191 3.50172-0.0755824 3.65979-0.0400334 3.33788 0.0123649 3.02025 0.0815907 2.70595 2.6132 1.97483 5.02783 1.01686 7.25914-0.133328 7.42672-0.0596746 7.59491 0.0131713 7.76352 0.0855168 7.52726 0.34013 7.36831 0.602653 7.28031 0.879767 7.1234 1.20926 7.15164 1.55172 7.20836 1.85001" fill="#1F6632" fill-rule="evenodd" transform="matrix(1.01912 0 0 -1 541.46 -19.3103)"/><path d="M-0.0714497 4.70411C0.359399 2.94168 1.32762 1.3113 2.70314-0.100489 4.00797 0.620337 5.35708 1.30044 6.75612 1.92311 4.70183 2.99319 2.48253 3.90004 0.158585 4.63234 0.0812776 4.65469 0.00491394 4.679-0.0714497 4.70411" fill="#80CC2A" fill-rule="evenodd" transform="matrix(1.01912 0 0 -1 541.718 -17.2874)"/><path d="M0.185783 0.245335C0.0613039 0.105719-0.0700877-0.0297066-0.204423-0.164499 0.25432-0.259352 0.771148-0.24959 1.2222-0.138609 2.06545 0.204097 2.27619 0.929318 2.5282 1.54081 1.79093 1.44167 0.978034 1.44036 0.357374 1.10171-0.0602317 0.918889-0.248638 0.556565-0.253407 0.220875-0.24079 0.161543-0.214279 0.0435448-0.201502-0.0157872-0.075016 0.0735923 0.0525203 0.160779 0.185783 0.245335" fill="#4DBB38" fill-rule="evenodd" transform="matrix(1.01912 0 0 -1 557.954 -26.6437)"/><path d="M0.100748-0.211802C0.356817-0.238567 0.607956-0.201055 0.847134-0.142064 0.741296-0.134 0.636349-0.126638 0.530352-0.12057L0.52556-0.0408816C0.489154 0.117295 0.424378 0.281554 0.62455 0.398256 0.758917 0.527578 0.890525 0.657615 1.01499 0.791724 0.881646 0.710539 0.754125 0.62678 0.627607 0.540914 0.614804 0.597925 0.588303 0.71124 0.575477 0.768235L0.572577 0.778982C0.548999 0.637509 0.64217 0.45586 0.421616 0.3687 0.339197 0.575136 0.269467 0.796405 0.0614437 0.963939-0.00611699 1.02761-0.150391 1.0859-0.249381 1.00223 0.155778 0.730739 0.291014 0.344523 0.386077-0.0234746 0.394956-0.060987 0.414609-0.134702 0.424378-0.171606 0.316486-0.18435 0.208617-0.197779 0.100748-0.211802" fill="#191716" fill-rule="evenodd" transform="matrix(1.01912 0 0 -1 557.181 -26.1379)"/><path d="M0.383779-0.199954C0.35243-0.178413 0.289753-0.136034 0.258262-0.114493 0.247169-0.0989509 0.225877-0.067978 0.215819-0.0525461 0.296702 0.218786 0.456652 0.483413 0.672378 0.719729 0.773492 0.834192 0.996142 0.899489 1.0408 1.03147L0.907159 1.06441C0.355538 0.814043 0.218787 0.342004 0.0366255-0.0558833-0.0281228-0.0276674-0.158679 0.0289834-0.223569 0.0571992-0.0848864-0.0889243 0.128743-0.173697 0.383779-0.199954" fill="#191716" fill-rule="evenodd" transform="matrix(1.01912 0 0 -1 554.604 -24.6207)"/><path d="M0.565091 0.569357C0.552918 0.504088 0.533232 0.43872 0.471455 0.388118 0.308655 0.641103 0.16637 1.07955-0.29879 1.05491 0.0381518 0.779458 0.310572 0.464686 0.441512 0.0986073 0.477051 0.0171185 0.511783-0.0650897 0.547322-0.146578 0.48267-0.162078 0.353492-0.19298 0.289927-0.208463 0.485543-0.19092 0.681138-0.170498 0.87673-0.150176 0.69699-0.129754 0.598714-0.051748 0.582861 0.0845463 0.52204 0.207483 0.509866 0.334751 0.625913 0.441484 0.734446 0.599639 0.854192 0.752757 0.965598 0.909472 0.830803 0.797098 0.69699 0.683907 0.565091 0.569357" fill="#191716" fill-rule="evenodd" transform="matrix(1.01912 0 0 -1 561.304 -24.6207)"/><path d="M-0.214981 0.103695C-0.0412126 0.0355834 0.121695-0.0665844 0.290767-0.149197 0.264698-0.116046 0.212688-0.0503674 0.186747-0.0179142 0.125071 0.0273994 0.0614847 0.0663394-0.00417224 0.0996221-0.0568983 0.10032-0.162367 0.102828-0.214981 0.103695" fill="#5D133E" fill-rule="evenodd" transform="matrix(1.01912 0 0 -1 566.716 -22.5977)"/><path d="M2.15125-0.15712C2.06412-0.00907677 1.95014 0.131488 1.84486 0.274532 1.97502 0.176887 2.1043 0.079242 2.23755-0.0166578L2.3102-0.0695493C2.3851 0.309211 2.33605 0.762315 1.84206 1.01633 1.28834 1.36226 0.502996 1.41646-0.190457 1.56773-0.00652983 1.11333-0.0132379 0.60345 0.444562 0.217212 0.791267-0.150184 1.54496-0.280558 2.15125-0.15712" fill="#4DBA38" fill-rule="evenodd" transform="matrix(1.01912 0 0 -1 552.542 -25.3793)"/><path d="M0.0987916 0.959066C-0.354895 0.710681-0.329052 0.284346-0.255407-0.0617411-0.119354 0.0397125 0.0186976 0.139978 0.157828 0.239564 0.0428337 0.100657-0.0807681-0.0349909-0.192684-0.175085 0.38674-0.195593 1.09086-0.194898 1.47999 0.133055 2.04406 0.529558 2.05943 1.09095 2.23146 1.58773 2.20056 1.57158 2.1386 1.53968 2.1077 1.52353 1.39989 1.41027 0.616594 1.32189 0.0987916 0.959066" fill="#4DBA38" fill-rule="evenodd" transform="matrix(1.01912 0 0 -1 562.077 -25.3793)"/><path d="M-0.168268 1.61201C-0.29528 1.04974-0.320285 0.426722 0.15871-0.0581169 0.588816-0.228393 1.09776-0.158588 1.56621-0.160016 1.83557 0.320634 2.47632 0.711331 3.22566 0.661803 3.3729 0.663232 3.52005 0.661087 3.6673 0.659059 3.66829 0.748311 3.66829 0.838296 3.66912 0.926948 4.02603 0.78388 4.37813 0.63185 4.75331 0.515275 4.75723 0.624206 4.76103 0.733037 4.76399 0.841867 4.53397 1.19209 4.58498 1.58624 4.59848 1.96154 4.63024 2.45627 4.95733 2.90686 5.31621 3.31568 4.76399 3.81948 4.43884 4.42364 3.99818 4.97544 3.78362 5.19799 3.5355 5.46874 3.14292 5.5197 2.90825 5.45825 2.66195 5.41923 2.41085 5.44712 2.51664 5.46172 2.62245 5.47567 2.72825 5.48892 2.71872 5.52734 2.69945 5.60406 2.69073 5.64308 2.4551 5.62568 2.17126 5.64105 2.00968 5.48829 1.57577 5.08223 1.44495 4.561 1.21607 4.08596 1.03522 3.71413 0.93518 3.31854 0.653172 2.97597 0.303026 2.54899-0.0432032 2.10664-0.168268 1.61201" fill="#B5DD25" fill-rule="evenodd" transform="matrix(1.01912 0 0 -1 554.861 -20.5747)"/><path d="M0.04253 1.91609C0.408343 1.86726 0.639558 1.60774 0.839485 1.39443 1.25008 0.865548 1.55305 0.286473 2.0676-0.196412 2.13476-0.128135 2.20284-0.0606522 2.27735 0.00292524 1.88194 0.480348 1.50735 0.967122 1.09585 1.43731 0.912029 1.63587 0.73369 1.84518 0.476424 1.9956 0.271116 2.12403-0.022819 2.0832-0.251405 2.01698L-0.246962 1.93748C-0.150201 1.93143-0.0542315 1.9241 0.04253 1.91609" fill="#A0CF1E" fill-rule="evenodd" transform="matrix(1.01912 0 0 -1 557.954 -24.1149)"/><path d="M0.0538229-0.225183C0.0762323-0.203069 0.121134-0.157345 0.143555-0.135127L0.0996974-0.0605872C0.0288036 0.0516863-0.0400023 0.166125-0.10933 0.280563-0.0532534 0.112961 0.00742629-0.0517379 0.0538229-0.225183" fill="#2E6B2F" fill-rule="evenodd" transform="matrix(1.01912 0 0 -1 554.604 -25.3793)"/><path d="M0.823513-0.171875C0.682931-0.0697883 0.466233-0.00286622 0.425935 0.158952 0.350715 0.396847 0.365031 0.64462 0.364156 0.887447 0.377573 1.29569 0.320275 1.71804 0.50382 2.1087 0.665009 2.5409 1.00798 2.93364 1.4781 3.192 1.80405 3.30109 2.16939 3.30602 2.51415 3.36092 2.74697 3.41303 2.95111 3.29193 3.16064 3.23281 3.21438 3.23496 3.32281 3.24052 3.37735 3.24341 2.75592 3.59675 1.89718 3.73965 1.17813 3.49249 0.588917 3.29059 0.205654 2.83937 0.0247535 2.36849-0.261787 1.61245-0.173129 0.812187-0.0200028 0.0442215 0.228928-0.0163293 0.46444-0.102185 0.706205-0.176707L0.823513-0.171875" fill="#D51E26" fill-rule="evenodd" transform="matrix(1.01912 0 0 -1 550.738 -21.5862)"/><path d="M2.04627 4.37545C1.6884 4.32103 1.30911 4.31615 0.970756 4.20802 0.482738 3.95193 0.126709 3.56266-0.0406211 3.13427-0.231182 2.74702-0.171678 2.3284-0.185629 1.92375-0.184699 1.68304-0.19958 1.43746-0.121496 1.20164-0.0796635 1.04124 0.145289 0.974909 0.291227 0.873721L0.169471 0.868932C0.553383 0.739104 0.932643 0.60306 1.32214 0.483737 1.37234 0.467014 1.47179 0.433491 1.522 0.416786 1.54618 0.408426 1.59543 0.390293 1.61959 0.38193 1.78878 0.322626 1.95888 0.267495 2.13086 0.214392 2.6905 0.0644018 3.2454-0.153983 3.8496-0.163659 3.38674 0.321197 3.41091 0.944243 3.53366 1.50654 3.65448 2.00118 3.98903 2.44356 4.32737 2.87054 4.59987 3.21314 4.69655 3.60873 4.87128 3.98058 4.43707 4.0566 3.99093 4.035 3.55034 4.02104 3.5596 4.00504 3.57915 3.97295 3.58931 3.95684 3.61824 3.93451 3.67582 3.89059 3.7046 3.86828 3.47039 3.89549 3.27418 3.98331 3.14683 4.13476 3.10976 4.16614 3.03441 4.22964 2.99721 4.26173L2.94236 4.25897C2.88574 4.25614 2.77319 4.25063 2.71738 4.24848 2.49987 4.30707 2.28796 4.42713 2.04627 4.37545" fill="#E61E25" fill-rule="evenodd" transform="matrix(1.01912 0 0 -1 551.253 -20.5747)"/><path d="M2.14968 1.80224C2.40235 1.55322 2.75549 1.37362 3.09735 1.19271 3.30518 0.931619 3.49992 0.664673 3.63984 0.380949 3.6873 0.260781 3.83817 0.192665 3.96776 0.119982 3.68629 0.115291 3.40026 0.0998198 3.14021 0.0157512 3.19258 0.0224307 3.2978 0.0358051 3.35002 0.0424848 3.42267 0.0417858 3.5662 0.0397818 3.63786 0.0383839 3.76549 0.0157512 3.89415-0.00956879 4.0172-0.0442711 4.10654-0.0717038 4.19328-0.10375 4.27705-0.141093 4.31061 0.219398 4.10295 0.571813 3.87271 0.885654 3.09277 1.90024 1.24785 2.38362-0.271116 2.00787 0.37463 1.94245 1.0279 1.98114 1.67739 1.95441 1.72666 1.78277 1.94578 1.77012 2.14968 1.80224" fill="#EF8B13" fill-rule="evenodd" transform="matrix(1.01912 0 0 -1 562.593 -22.8506)"/><path d="M2.44775 3.59032C2.25815 3.57012 2.0687 3.54966 1.87911 3.53211 1.94074 3.54759 2.06587 3.57854 2.12861 3.59399 2.09417 3.67549 2.06054 3.75773 2.02595 3.83923 1.53828 3.61227 1.05028 3.38241 0.651276 3.06275 0.575965 2.99587 0.50711 2.92499 0.439037 2.85322 0.100865 2.44147-0.207575 1.98771-0.237455 1.48938-0.250179 1.11137-0.29829 0.714391-0.0814938 0.361627-0.0071323 0.647581 0.0400294 0.937822 0.0654988 1.22868 0.107153 1.2104 0.191432 1.1746 0.234036 1.15631 0.267672 0.793004 0.184195 0.428337 0.117999 0.0693265 0.45539 0.117774 0.79812 0.147957 1.14287 0.141694 1.23171 0.141694 1.32038 0.140256 1.40937 0.138817 1.42036 0.0474823 1.43121-0.0438688 1.44205-0.135939L1.47837-0.109239C1.40764 0.325099 1.65509 0.785304 2.19198 0.96799 2.43312 1.05092 2.70072 1.0657 2.96011 1.0341 2.85398 1.45149 2.95915 1.92923 3.44072 2.18299 3.96754 2.50835 4.83095 2.40359 5.21094 1.97419 5.27805 1.88428 5.34332 1.79365 5.40588 1.70167 5.47395 1.72336 5.54281 1.74528 5.6126 1.76551 5.65175 1.77744 5.73148 1.80071 5.77138 1.81265 6.02436 1.90109 6.30277 1.91729 6.57666 1.92229 6.45058 1.9988 6.30373 2.07054 6.25751 2.19698 6.12136 2.49569 5.93191 2.77673 5.72958 3.05143 5.3969 3.24194 5.0531 3.43089 4.80738 3.69304 4.6088 3.65928 4.39563 3.67256 4.3475 3.85321 3.71552 3.88136 3.0799 3.84054 2.45138 3.9095 2.34258 3.91438 2.24635 3.88624 2.16305 3.82509 2.17828 3.68877 2.27356 3.61081 2.44775 3.59032" fill="#F79710" fill-rule="evenodd" transform="matrix(1.01912 0 0 -1 559.758 -21.0805)"/><path d="M-0.140592 0.00766409C0.128669-0.0286046 0.396134-0.0727335 0.666446-0.104461 0.437512 0.0108927 0.154224 0.0445965-0.120057 0.0679962 0.684286 0.536757 1.35507 1.11765 1.73826 1.79845 1.64123 1.89638 1.4906 1.92366 1.32663 1.91779 1.00735 1.34466 0.465957 0.849281-0.136976 0.40324-0.153895 0.543863-0.188807 0.683929-0.284756 0.809694-0.270709 0.538659-0.110523 0.28069-0.140592 0.00766409" fill="#3D271B" fill-rule="evenodd" transform="matrix(1.01912 0 0 -1 567.489 -21.5862)"/><path d="M0.63577 0.245977C0.581149 0.278735 0.525532 0.31149 0.46994 0.343552 0.240551 0.273854 0.0161276 0.184726-0.122875 0.0321086-0.0603053-0.0318818 0.000254161-0.0973955 0.0618301-0.162213 0.046927-0.130153 0.0161276-0.066065 0.00124769-0.0340211 0.210768 0.0607 0.424261 0.153395 0.63577 0.245977" fill="#3D271B" fill-rule="evenodd" transform="matrix(1.01912 0 0 -1 548.161 -22.5977)"/><path d="M-0.261618 0.344325C-0.220928 0.131856-0.012745-0.0355753 0.222305-0.141155 0.416538-0.107348 0.523881 0.042484 0.673761 0.131168 0.939342 0.340755 1.34356 0.347223 1.69797 0.374579 1.68324 0.575849 1.70178 0.776319 1.73685 0.976082 1.34918 1.4061 0.468314 1.51082-0.0690856 1.18508-0.173694 0.913496-0.35137 0.632773-0.261618 0.344325" fill="#7C1755" fill-rule="evenodd" transform="matrix(1.01912 0 0 -1 563.366 -22.092)"/><path d="M0.968607 1.31338C0.842534 1.3487 0.710706 1.37449 0.579902 1.3975 0.530304 1.29504 0.333664 1.30248 0.28511 1.40171 0.231623 1.39486 0.12383 1.38125 0.0701889 1.37449 0.0282088 1.36287-0.055729 1.34045-0.096843 1.32896-0.0337174 1.33034 0.0921785 1.33302 0.155304 1.33441-0.0367602 1.22918-0.400276 1.15508-0.262852 0.931705-0.111236 0.755151 0.194397 0.672919 0.347213 0.492985 0.497807 0.307613 0.532347 0.0902915 0.595295-0.115527 0.945595-0.110075 1.23006 0.0685639 1.40182 0.272297 1.5279 0.525631 1.46022 0.800583 1.44685 1.06204 1.44007 1.06849 1.43212 1.07375 1.42213 1.08038L1.37999 1.10489C1.14426 1.17412 0.916988 1.25972 0.67448 1.31675 0.747934 1.31605 0.894998 1.31397 0.968607 1.31338" fill="#7C1755" fill-rule="evenodd" transform="matrix(1.01912 0 0 -1 565.685 -21.5862)"/><path d="M0.0477815 0.0966857C0.195518-0.0151388 0.385202-0.0756939 0.566389-0.142481 0.801857 0.21393 1.24416 0.41272 1.72565 0.46464 1.72272 0.711485 1.7475 0.978636 1.59302 1.20228 1.42623 1.37385 1.19178 1.49106 0.971576 1.61065 0.698864 1.64554 0.417633 1.62929 0.164129 1.53765 0.0458735 1.35676-0.133384 1.21078-0.267765 1.04076-0.341281 0.714719-0.292567 0.316433 0.0477815 0.0966857" fill="#7C1755" fill-rule="evenodd" transform="matrix(1.01912 0 0 -1 561.819 -20.5747)"/><path d="M7.10623 2.98707C7.23949 2.71434 7.2208 2.3626 6.91801 2.15312 6.70552 1.9663 6.35413 1.90862 6.03723 1.91955 5.70733 1.93811 5.46402 2.13114 5.273 2.31184 5.17969 2.42992 5.04923 2.60791 5.21051 2.72598 5.37 2.80085 5.57298 2.81049 5.72597 2.89366 5.94956 3.03924 6.10712 3.22884 6.27101 3.41015 6.63088 3.38957 6.92171 3.20477 7.10623 2.98707ZM7.86305 1.74918C7.97396 1.40365 7.78102 0.972329 7.30939 0.830171 6.92909 0.67697 6.44724 0.75393 6.11646 0.94073 5.89357 1.10076 5.82563 1.33161 5.85362 1.55343 6.13317 1.56377 6.42683 1.54932 6.68952 1.63311 6.89546 1.69773 7.0467 1.82955 7.2488 1.89828 7.45851 1.89558 7.74175 1.9017 7.86305 1.74918ZM4.09574 0.905007C3.92902 1.04106 3.8544 1.22445 3.87868 1.40576 4.36897 1.45933 4.73974 1.70865 4.99714 2.00613 5.17883 1.88453 5.3922 1.78219 5.53866 1.6352 5.55821 1.3872 5.55538 1.13648 5.64394 0.893979 5.24394 0.581452 4.47619 0.570518 4.09574 0.905007ZM2.79949 2.21422C2.48611 2.69027 3.08169 3.28925 3.79189 3.23848 3.99715 2.98011 4.35666 2.84829 4.70628 2.72117 4.81896 2.4526 4.7436 2.11469 4.43323 1.93058 3.93835 1.6002 3.03241 1.74378 2.79949 2.21422ZM3.43503 0.602724C3.05019 0.356817 2.40425 0.357505 2.04722 0.633013 1.98209 0.865192 2.00057 1.10557 1.95497 1.34054 2.23173 1.42773 2.47046 1.56579 2.63997 1.7506 2.89631 1.59328 3.18717 1.46755 3.51054 1.40306 3.51054 1.14059 3.82464 0.784123 3.43503 0.602724ZM4.23836 4.33478C4.38093 4.44463 4.56844 4.5209 4.76791 4.55873 5.39129 4.69194 6.13423 4.25574 6.02137 3.76873 5.99252 3.32496 5.33267 2.98224 4.75574 3.10385 4.0586 3.20616 3.70632 3.96387 4.23836 4.33478ZM7.12206 4.00299C6.95428 3.79692 6.67647 3.61622 6.33458 3.61071 6.27298 3.8189 6.23933 4.03869 6.09215 4.22623 5.94306 4.40822 5.64482 4.49141 5.49659 4.66999 5.36244 4.89591 5.71752 4.97086 5.90485 5.07732 5.8434 5.07593 5.72033 5.0732 5.65873 5.07181 5.58706 5.05193 5.51631 5.03057 5.44624 5.0093 5.38198 5.09932 5.3149 5.1879 5.24589 5.27578 5.21051 5.08074 5.19182 4.88499 5.20662 4.68855 4.84976 4.66175 4.44258 4.65555 4.17497 4.45088 4.02408 4.36427 3.916 4.21801 3.72023 4.18501 3.48343 4.28803 3.27378 4.45159 3.23291 4.65897 3.14226 4.94057 3.32129 5.21468 3.42674 5.47987 2.93172 5.23183 2.82361 4.7648 2.93275 4.35676 3.14807 4.25091 3.37728 4.14728 3.54031 3.99548 3.69135 3.79763 3.66707 3.56124 3.66988 3.34284 3.19931 3.29686 2.76674 3.12099 2.53665 2.80566 2.35953 2.86475 2.17398 2.91834 2.02961 3.01726 1.69689 3.2117 1.64936 3.56405 1.72118 3.8525 1.85252 4.00299 2.02768 4.13213 2.14336 4.29215 1.5916 4.11354 1.33722 3.66368 1.40974 3.23908L1.37259 3.21299C1.31291 3.20065 1.19444 3.17657 1.13493 3.16423L1.16468 3.15402C1.23633 3.13133 1.38105 3.08728 1.4527 3.06463 1.64372 2.78239 1.95692 2.55564 2.38471 2.4822 2.40989 2.29398 2.49561 2.07414 2.29527 1.91955 2.11623 1.70112 1.75005 1.67705 1.44424 1.62558 1.64196 1.38448 1.82645 1.10968 1.72945 0.819143 1.57189 0.338964 0.7154 0.080014 0.177744 0.409084 0.0405973 0.334825-0.101125 0.266223-0.244604 0.199587 0.0965924-0.00588197 0.553247-0.146649 0.996914-0.0546318 1.32683-0.00930246 1.58861 0.154242 1.80867 0.331436 2.09387 0.191276 2.4134 0.0601303 2.77061 0.0841057 3.24578 0.0717663 3.65033 0.301228 3.90103 0.580747 4.16581 0.42964 4.47321 0.291604 4.82091 0.302538 5.24692 0.28267 5.62897 0.455132 5.91787 0.670735 6.42119 0.320487 7.26941 0.31216 7.75867 0.681077 8.21622 1.00395 8.23205 1.54109 7.91514 1.92647 8.23399 1.99168 8.52465 2.13867 8.6831 2.35648 9.0093 2.75559 8.87515 3.34564 8.33274 3.60249L8.27026 3.55651C8.44084 3.34013 8.82658 3.10172 8.62165 2.83115 8.45865 2.47186 7.99351 2.18401 7.4576 2.24864 7.44354 2.46433 7.46589 2.68827 7.37081 2.89566 7.2423 3.11758 6.98227 3.27479 6.76151 3.44457 6.96169 3.59154 7.20409 3.70692 7.48364 3.75087 7.51361 4.04011 7.35513 4.31342 7.34107 4.60055 7.30481 4.67551 7.24705 4.74282 7.16591 4.80182 7.1789 4.53736 7.24513 4.25925 7.12206 4.00299" fill="#5D133E" fill-rule="evenodd" transform="matrix(1.01912 0 0 -1 559.758 -17.7931)"/><path d="M8.11094 1.78027C8.17191 2.05294 8.03212 2.32561 8.11464 2.59828 8.08462 2.53994 8.05928 2.48084 8.03857 2.42115 7.96167 2.22018 7.94949 2.0105 7.96923 1.80353 6.55041 1.83201 5.09219 1.95411 3.8085 2.41059 3.51856 2.50273 3.24925 2.62278 3.01463 2.77405 2.35875 3.14294 1.63903 3.51906 1.27026 4.06702L1.25806 4.08495C0.733508 4.3205 0.467955 4.77155 0.454834 5.19817 0.403217 5.18424 0.298105 5.15564 0.246511 5.14112L0.269022 5.12785C0.321557 5.09732 0.374111 5.06612 0.425728 5.03492 0.225856 4.94674 0.0241052 4.85846-0.17389 4.76826-0.159806 4.73774-0.130723 4.67669-0.11664 4.64617 0.155483 4.26537 0.373173 3.86072 0.717546 3.50784 0.651868 3.19999 0.621846 2.8842 0.773856 2.58566 1.00751 1.87252 1.79385 1.33978 2.60647 0.928463 4.37717 0.0873092 6.57674-0.1874 8.6767-0.095151 8.44962 0.293604 8.32392 0.706283 8.19538 1.11489 8.12779 1.33319 8.0612 1.55673 8.11094 1.78027" fill="#EDCE0A" fill-rule="evenodd" transform="matrix(1.01912 0 0 -1 548.161 -17.7931)"/><path d="M-0.00771654-0.190478C-0.0707826-0.185903-0.1968-0.179119-0.260591-0.176857-0.218959-0.499375-0.0503193-0.523582-0.00771654-0.190478" fill="#5D133E" fill-rule="evenodd" transform="matrix(1.01912 0 0 -1 566.2 -22.8506)"/><path d="M0.482076-0.0906886C1.05095-0.213369 1.70151 0.132404 1.7301 0.580089 1.84131 1.07139 1.1089 1.51145 0.494092 1.37708 0.297448 1.33893 0.112671 1.26201-0.0279271 1.15117-0.552577 0.776946-0.205199 0.0125616 0.482076-0.0906886" fill="#7C1755" fill-rule="evenodd" transform="matrix(1.01912 0 0 -1 564.139 -20.8276)"/><path d="M0.340896 0.899669C0.171327 0.815092-0.0541488 0.805306-0.231059 0.729166-0.409966 0.609071-0.265135 0.428069-0.16158 0.307975 0.0503464 0.124207 0.320201-0.0721087 0.686463-0.0909973 1.03807-0.102116 1.42799-0.0434343 1.66391 0.146558 1.99994 0.359601 2.02064 0.717332 1.87271 0.994666 1.66795 1.21609 1.3453 1.40404 0.94604 1.42496 0.764004 1.24057 0.589114 1.04772 0.340896 0.899669" fill="#7C1755" fill-rule="evenodd" transform="matrix(1.01912 0 0 -1 565.17 -19.8161)"/><path d="M1.68856 0.885194C1.34224 1.0146 0.985936 1.1488 0.782613 1.41179 0.079112 1.46348-0.51105 0.853724-0.200616 0.369109 0.0302525-0.109797 0.927687-0.255959 1.41804 0.0803627 1.72549 0.267788 1.80026 0.611775 1.68856 0.885194" fill="#7C1755" fill-rule="evenodd" transform="matrix(1.01912 0 0 -1 562.85 -19.5632)"/><path d="M0.361584 2.76515 0.444729 2.7306C0.601379 2.68514 0.769472 2.66787 0.932734 2.63977 0.768506 2.40558 0.395654 2.44083 0.100984 2.39978 0.128421 2.37241 0.183164 2.31694 0.210601 2.28957L0.262445 2.32053C0.374829 2.42283 0.492861 2.43083 0.618337 2.34431 1.02717 2.05747 1.02526 1.58254 0.927067 1.19699 0.753326 0.698998 0.231272 0.342272-0.293528 0.0490157 0.251131-0.296241 1.11873-0.0245666 1.27828 0.479208 1.37645 0.78405 1.18962 1.07236 0.989411 1.32529 1.29911 1.37928 1.67003 1.40455 1.85134 1.6337 2.05432 1.79591 1.96746 2.02653 1.94194 2.224 1.5087 2.30106 1.1914 2.53895 0.997955 2.83504 0.925287 2.85884 0.77883 2.90504 0.706162 2.92883 0.617371 2.8423 0.50224 2.78755 0.361584 2.76515" fill="#7C1755" fill-rule="evenodd" transform="matrix(1.01912 0 0 -1 560.273 -18.046)"/><path d="M0.833744 1.19189C0.576481 0.913134 0.205595 0.679491-0.284814 0.629301-0.309065 0.459406-0.234445 0.287532-0.0676566 0.160055 0.312708-0.153405 1.08073-0.14316 1.48083 0.149705 1.39224 0.376936 1.39504 0.611896 1.37546 0.844309 1.22903 0.982047 1.01561 1.07794 0.833744 1.19189" fill="#7C1755" fill-rule="evenodd" transform="matrix(1.01912 0 0 -1 564.139 -18.5517)"/><path d="M0.417178 1.18614C0.237922 1.01025-0.0143459 0.878855-0.306695 0.795869-0.258525 0.572223-0.278186 0.343417-0.209299 0.122449 0.167957-0.139777 0.85051-0.140446 1.25719 0.0936057 1.66889 0.266258 1.33706 0.605554 1.33706 0.85535 0.995161 0.91675 0.688031 1.0364 0.417178 1.18614" fill="#7C1755" fill-rule="evenodd" transform="matrix(1.01912 0 0 -1 562.077 -18.2989)"/><path d="M0.650211 1.61637C0.649392 1.52722 0.649392 1.43676 0.648444 1.347 0.506701 1.34906 0.365066 1.35121 0.223324 1.34978 0.100112 1.22282-0.077616 1.14772-0.264675 1.08747 0.0529004 1.05582 0.441907 1.06289 0.617869 0.81668 0.393747 0.764025 0.164088 0.726223-0.0674884 0.695992 0.0288311 0.669354 0.126077 0.645475 0.224272 0.62171 0.563223 0.601323 0.902991 0.614642 1.24196 0.622329 1.32447 0.381751 1.39385 0.138317 1.48095-0.102261 1.64948 0.075198 1.76987 0.272325 1.8383 0.484207 2.04579 0.240055 2.37272 0.0793927 2.62915-0.132376 2.63944 0.0310455 2.61347 0.19303 2.5672 0.351636 2.54029 0.378274 2.4866 0.43227 2.45968 0.458907 2.74874 0.498866 3.11447 0.464539 3.27555 0.692499 3.1154 0.719855 2.95053 0.736669 2.79688 0.780919 2.65148 0.826525 2.51067 0.880518 2.36892 0.931738 2.50877 1.00326 2.64958 1.07477 2.77455 1.16247 2.83474 1.21165 2.89492 1.26145 2.95432 1.31124 2.60237 1.31749 2.25233 1.28737 1.90784 1.23901 1.97546 1.5974 2.06068 1.96145 2.02631 2.32413 1.98276 2.34238 1.89674 2.37813 1.85414 2.39638 1.82815 2.106 1.78002 1.81626 1.70413 1.53081 1.70128 1.42138 1.69764 1.31196 1.69385 1.20243 1.3327 1.31964 0.99375 1.47252 0.650211 1.61637" fill="#4DBB38" fill-rule="evenodd" transform="matrix(1.01912 0 0 -1 557.954 -19.8161)"/><path d="M-0.296851 1.12095C-0.0641123 0.950531 0.210148 0.792703 0.345688 0.569904 0.445836 0.361723 0.422423 0.136904 0.43717-0.0796521 1.00208-0.14451 1.49249 0.144462 1.66438 0.505143 1.88054 0.776785 1.47387 1.01609 1.29404 1.23336L1.35989 1.27949 1.33536 1.29167 1.30678 1.3092C1.02477 1.34295 0.745727 1.38988 0.464653 1.42844 0.16993 1.38433-0.0856736 1.26851-0.296851 1.12095" fill="#7B1755" fill-rule="evenodd" transform="matrix(1.01912 0 0 -1 566.974 -20.069)"/><path d="M-0.273996 0.811067C-0.301509 0.567112-0.234389 0.313245-0.0140676 0.137243 0.313154-0.0681823 0.789545-0.152817 1.1656 0.0156613 1.63193 0.172011 1.82272 0.646317 1.71299 1.02632 1.59318 1.19404 1.31311 1.18729 1.1057 1.19028 0.905836 1.1147 0.756327 0.96972 0.552605 0.898655 0.292845 0.806533 0.0025519 0.822423-0.273996 0.811067" fill="#7B1755" fill-rule="evenodd" transform="matrix(1.01912 0 0 -1 565.943 -18.5517)"/><path d="M3.1221 1.01691C3.03823 1.11068 3.21903 1.28227 3.35422 1.19825 3.46328 1.10164 3.25157 0.952264 3.1221 1.01691ZM2.95341 2.2258C3.00555 2.22854 3.109 2.23413 3.16115 2.23686 3.14729 2.20215 3.11748 2.13123 3.10344 2.09652 3.05959 2.08404 2.97286 2.05969 2.93 2.04791 2.93556 2.09237 2.94767 2.18125 2.95341 2.2258ZM3.5266 1.76652C3.68601 1.68594 3.46508 1.59705 3.39141 1.5456 3.40828 1.61156 3.36443 1.8888 3.5266 1.76652ZM2.48164 1.47609C2.49934 1.50603 2.53392 1.5657 2.55162 1.59564 2.90301 1.72623 2.64475 1.24412 2.48164 1.47609ZM2.15173 0.576398C2.04636 0.672295 2.25331 0.83556 2.38469 0.759157 2.47509 0.664585 2.28409 0.509014 2.15173 0.576398ZM1.82824 1.98399C1.8842 2.06872 1.84963 2.24803 2.02961 2.22925 2.12097 2.10281 1.94752 2.0396 1.82824 1.98399ZM1.84227 1.08012C1.65478 1.03284 1.69495 1.25375 1.81423 1.28988 2.03137 1.36498 2.02404 1.09951 1.84227 1.08012ZM1.3155 0.243547C1.35743 0.337409 1.34437 0.505555 1.53837 0.46944 1.62129 0.343003 1.41801 0.302004 1.3155 0.243547ZM1.17853 2.59812C1.18874 2.66835 1.19896 2.73918 1.2093 2.8094 1.25301 2.8156 1.33973 2.82819 1.38356 2.83436 1.38261 2.72739 1.32489 2.63009 1.17853 2.59812ZM0.962186 1.3399C0.96776 1.46016 1.0116 1.58518 1.21488 1.53728 1.15987 1.45113 1.11139 1.34965 0.962186 1.3399ZM0.853127 1.9298C0.696543 2.02152 0.931407 2.27371 1.05081 2.10839 1.0843 2.02712 0.979885 1.89093 0.853127 1.9298ZM0.648087 0.514593C0.506341 0.497149 0.469184 0.647933 0.543648 0.711869 0.71984 0.861247 0.858701 0.552744 0.648087 0.514593ZM0.469184 2.52527C0.312471 2.54393 0.393615 2.71351 0.498988 2.74477 0.730185 2.7962 0.668651 2.49806 0.469184 2.52527ZM0.366525 1.15654C0.223975 1.16902 0.273387 1.28502 0.252823 1.35869 0.302255 1.36498 0.399191 1.37746 0.447667 1.38374 0.431878 1.30663 0.427106 1.22464 0.366525 1.15654ZM0.712486 3.33535C0.788859 3.25335 0.669584 3.13654 0.54842 3.13455 0.324576 3.17483 0.55482 3.43602 0.712486 3.33535ZM0.0524257 1.96663C0.0618177 2.06943-0.0221893 2.22784 0.179184 2.24874 0.180117 2.14513 0.188576 2.02712 0.0524257 1.96663ZM3.95454 2.23686C4.11013 2.32932 4.19305 2.116 4.07013 2.05552 3.91721 1.96176 3.83703 2.17781 3.95454 2.23686ZM4.49232 1.90128C4.58925 2.27299 4.59117 2.73086 4.18749 3.00737 4.06358 3.0908 3.94705 3.08309 3.83607 2.98444L3.78489 2.95463C3.83144 2.79754 3.85759 2.63709 3.84722 2.47524 3.58909 2.68499 3.26002 2.84409 3.05117 3.08592 2.98226 2.87606 2.86109 2.68081 2.69146 2.50506 2.60376 2.74335 2.53392 2.98444 2.45086 3.22272 2.12655 3.10949 1.73497 3.04351 1.42647 3.22212 1.3276 3.24563 1.22972 3.2693 1.13278 3.29568 1.36587 3.32562 1.59706 3.36307 1.82267 3.41521 1.64552 3.65906 1.25396 3.65208 0.934272 3.68343 1.12256 3.74309 1.30147 3.81746 1.42551 3.94321 0.699408 3.99252 0.0785625 3.60345-0.182438 3.12478-0.194563 3.10043-0.219745 3.05325-0.23187 3.0296-0.313839 2.74406-0.174955 2.45849-0.235536 2.17294-0.284968 1.93883-0.218791 1.70471-0.151681 1.47609-0.0239679 1.04816 0.100882 0.615972 0.326485 0.208837 0.469184 0.0247669 0.720793-0.146128 1.0293-0.0864577 1.70517 0.0177668 2.27196 0.336696 2.86475 0.582684 3.00826 0.650067 3.15002 0.719486 3.2871 0.794577 3.80529 1.07728 4.32078 1.42119 4.49232 1.90128" fill="#E51E25" fill-rule="evenodd" transform="matrix(1.01912 0 0 -1 556.665 -17.2874)"/><path d="M-0.321018 0.0190686C-0.160093-0.0297938-0.000220177-0.081287 0.164839-0.124764L0.0722427-0.0927126 0.0145072-0.0699547C0.0260298 0.0518044 0.283565 0.0431028 0.422372 0.069192 0.489626 0.0812091 0.623225 0.104652 0.690499 0.116684 0.677901 0.204322 0.665303 0.29129 0.652555 0.378243 0.549514 0.379614 0.446643 0.380984 0.3436 0.380984 0.276176 0.333492 0.207847 0.286015 0.139519 0.239113-0.00237302 0.15546-0.162246 0.0872644-0.321018 0.0190686" fill="#F9D905" fill-rule="evenodd" transform="matrix(1.01912 0 0 -1 560.531 -20.8276)"/><path d="M1.54897 0.947859C1.78132 0.77942 2.04803 0.645738 2.33517 0.543135 3.60646 0.0348086 5.05062-0.101143 6.45571-0.132857 6.43616 0.0976188 6.44825 0.331103 6.52442 0.554891 6.5449 0.621346 6.57003 0.687164 6.59975 0.752122 6.61183 0.77727 6.63692 0.827448 6.64901 0.853335 6.19646 0.854847 5.70485 0.780932 5.28938 0.961233 4.68537 0.971477 4.13064 1.20271 3.57113 1.36154 3.39923 1.41775 3.22917 1.47612 3.06002 1.53892 3.03587 1.54777 2.98664 1.56697 2.96244 1.57582 2.91227 1.59353 2.81284 1.62902 2.76267 1.64671 2.37327 1.77307 1.99412 1.9171 1.61032 2.05456 1.35942 2.13279 1.11499 2.2229 0.856647 2.28645 0.514666 2.33522 0.173617 2.42316-0.17859 2.38766 0.186634 1.77749 0.899418 1.35862 1.54897 0.947859" fill="#F8D909" fill-rule="evenodd" transform="matrix(1.01912 0 0 -1 549.707 -19.5632)"/><path d="M-0.368563-0.155356-0.302394-0.190926C-0.122976-0.15842 0.0239057-0.079064 0.137212 0.0463881L0.0986776 0.061948C-0.0603387 0.0212004-0.355363 0.0347911-0.368563-0.155356" fill="#561C17" fill-rule="evenodd" transform="matrix(1.01912 0 0 -1 560.789 -20.8276)"/><path d="M-0.252488-0.0238012C0.0521511-0.430224 0.438796-0.280133 0.759028-0.0224401 0.422134-0.0397666 0.0844269-0.0697848-0.252488-0.0238012" fill="#B1852E" fill-rule="evenodd" transform="matrix(1.01912 0 0 -1 558.469 -20.3218)"/><path d="M-0.117145 0.821037C-0.139925 0.742343-0.0709743 0.669667-0.011232 0.60828 0.143318 0.477855 0.351203 0.390176 0.534183 0.282996 0.647387 0.225523 0.753846 0.159641 0.879337 0.115465 1.13125 0.00464602 1.43917 0.0271146 1.71179-0.0403824 1.96148-0.0776724 2.18321-0.207045 2.44699-0.18869 2.67022-0.164591 2.82743-0.0241289 2.9129 0.117385 2.86483 0.144058 2.81074 0.120538 2.76328 0.10925 2.51294 0.0324766 2.24397-0.0412508 1.96717-0.0160098 1.46941 0.0277847 1.0305 0.236811 0.679608 0.486081 0.44833 0.636963 0.140199 0.698839-0.117145 0.821037" fill="#DB7919" fill-rule="evenodd" transform="matrix(1.01912 0 0 -1 547.645 -24.6207)"/><path d="M1.45974 0.979673C1.16828 0.973189 0.909859 0.872411 0.625827 0.843247 0.530673 0.830806 0.440339 0.856607 0.354109 0.879186 0.666855 0.825503 0.950198 0.953437 1.24634 0.992754 1.47295 1.02786 1.70774 1.0105 1.93221 0.977763 1.77972 0.948498 1.61652 0.991196 1.45974 0.979673ZM1.70092 0.668684C1.92967 0.627354 2.16281 0.585559 2.402 0.585559 2.45012 0.583827 2.49639 0.574956 2.5428 0.567555 2.51457 0.548253 2.48756 0.522381 2.44075 0.530888 2.11178 0.541405 1.80662 0.631375 1.48944 0.679653 1.29594 0.701416 1.09959 0.70554 0.903568 0.702612 1.16837 0.736714 1.44573 0.728119 1.70092 0.668684ZM0.937324 1.0414C0.734122 1.0168 0.537278 0.973467 0.349669 0.91741 0.199097 0.870502 0.0252107 0.877714-0.125362 0.831914-0.109053 0.773571-0.0499081 0.727302 0.0192092 0.691174 0.185421 0.610895 0.324637 0.507477 0.414637 0.385314 0.440673 0.342426 0.501537 0.318464 0.559387 0.295971 0.535515 0.375611 0.461623 0.452879 0.497921 0.536191 0.643161 0.504463 0.739162 0.397565 0.904015 0.406436 1.16159 0.403596 1.451 0.422433 1.67249 0.320022 1.46213 0.395919 1.21975 0.374693 0.990847 0.367016 1.20103 0.259216 1.4765 0.238545 1.72845 0.196852 1.96567 0.156981 2.19357 0.0947914 2.41007 0.0200888 2.67975-0.0678705 2.94079-0.194434 3.25651-0.189947 3.42011-0.1831 3.60206-0.177419 3.73722-0.109752 3.47461-0.0581832 3.19708-0.0934805 2.9305-0.063209 2.79534-0.0487725 2.7475 0.0420423 2.66577 0.100473 2.45715 0.166493 2.21176 0.185227 2.02725 0.28289 1.79944 0.411375 1.55855 0.545878 1.25558 0.587031 1.06534 0.616926 0.869544 0.58913 0.677653 0.606042 0.507828 0.615745 0.341281 0.657626 0.21061 0.729765 0.353775 0.700513 0.490092 0.654057 0.640486 0.640888 0.843753 0.619765 1.05224 0.648843 1.25424 0.618205 1.46925 0.601381 1.62772 0.471991 1.85236 0.481504 2.38471 0.496507 2.93192 0.451422 3.4167 0.300909 3.47188 0.288468 3.53328 0.256098 3.5901 0.283719 3.36777 0.488643 3.03061 0.640612 2.65391 0.694935 2.37121 0.727666 2.07879 0.716785 1.80145 0.770089 1.65627 0.789843 1.52629 0.840784 1.38161 0.860074 1.28347 0.87343 1.19717 0.836109 1.11511 0.807309 1.17149 0.850196 1.23867 0.895458 1.33213 0.89537 1.60938 0.892995 1.86309 0.808867 2.12961 0.770364 2.2968 0.746139 2.46986 0.749709 2.63777 0.727201 2.7849 0.7124 2.92011 0.669237 3.06015 0.638427 3.0539 0.648565 3.04169 0.668684 3.03544 0.678837 2.89806 0.751166 2.74724 0.823407 2.56735 0.838759 2.32567 0.862913 2.07455 0.836938 1.83786 0.886324 2.0136 0.88376 2.18898 0.878996 2.36456 0.88019 2.63641 0.887053 2.88402 0.791312 3.09224 0.686238 3.34478 0.554195 3.5577 0.390515 3.72657 0.210386 3.80676 0.128909 3.83948 0.03234 3.91696-0.0501418 3.94758 0.181484 3.78238 0.406436 3.56397 0.582545 3.38003 0.720252 3.14163 0.824221 2.88326 0.892995 2.27768 1.07066 1.5893 1.11255 0.937324 1.0414" fill="#DB7919" fill-rule="evenodd" transform="matrix(1.01912 0 0 -1 546.872 -24.8736)"/><path d="M1.45395 1.48223C1.38048 1.30081 1.44578 1.11457 1.50125 0.936103 1.56064 0.737346 1.50454 0.532693 1.41081 0.345276 1.40667 0.351188 1.3987 0.363185 1.39456 0.36919 1.42721 0.491151 1.47902 0.612232 1.47681 0.737847 1.48236 0.921534 1.38259 1.09528 1.37812 1.27816 1.37793 1.35013 1.41984 1.41648 1.45395 1.48223ZM1.39376 0.0176738C1.49832 0.214642 1.56723 0.42215 1.60591 0.631726 1.65066 0.906572 1.63934 1.19075 1.51927 1.45487 1.46125 1.57052 1.51134 1.70047 1.43892 1.81299 1.34175 1.79792 1.26328 1.75156 1.19399 1.70136 1.09665 1.62645 0.981375 1.56452 0.850983 1.52535 0.773968 1.49749 0.680088 1.48557 0.62743 1.43066 0.331634 1.41017 0.0556979 1.30189-0.140079 1.1374-0.0582095 1.11762 0.0221188 1.09557 0.100653 1.07077L0.103777 1.07106C0.194658 1.12511 0.263378 1.19647 0.3516 1.25317 0.430535 1.31036 0.529775 1.34983 0.604363 1.41047 0.710903 1.4087 0.813922 1.43271 0.920419 1.43517 0.950094 1.35958 0.837917 1.32148 0.789122 1.26813 0.708921 1.207 0.714808 1.11751 0.699233 1.03926 0.691402 0.969773 0.663184 0.902918 0.649845 0.834308 0.711136 0.79661 0.768078 0.756259 0.819745 0.713243 0.883485 0.787951 0.94047 0.867288 0.964763 0.954512 1.00174 1.08483 0.993277 1.22177 1.05864 1.34727 1.10185 1.44306 1.18475 1.52495 1.27993 1.59543 1.21923 1.51363 1.14579 1.43616 1.10598 1.34679 1.04862 1.23072 1.04564 1.1057 1.01981 0.98492 0.997182 0.87753 0.929685 0.778889 0.845895 0.690785 0.887285 0.652505 0.924958 0.613706 0.958917 0.574344 1.09077 0.728203 1.10358 0.923793 1.1449 1.1 1.16696 0.904407 1.09564 0.713822 0.991103 0.536143 1.02909 0.489394 1.06181 0.442033 1.08914 0.394597 1.14163 0.491842 1.20113 0.586937 1.27242 0.677691 1.33926 0.754878 1.31282 0.847905 1.31294 0.933437 1.34897 0.877325 1.38557 0.815709 1.36381 0.752119 1.31797 0.599937 1.21396 0.462217 1.13399 0.319086 1.13266 0.317612 1.13167 0.315839 1.13065 0.314365 1.15944 0.251856 1.17903 0.189551 1.18901 0.127731 1.21428 0.238369 1.2456 0.348912 1.30604 0.451883 1.26425 0.304126 1.24186 0.154109 1.21231 0.00506536 1.20119-0.0402092 1.2117-0.0847936 1.22609-0.128908 1.235-0.156069 1.24534-0.183137 1.25307-0.210016 1.30585-0.13609 1.3525-0.0600001 1.39376 0.0176738" fill="#DB7919" fill-rule="evenodd" transform="matrix(1.01912 0 0 -1 549.707 -24.8736)"/><path d="M1.37769 0.293639C1.29267 0.316479 1.20439 0.290663 1.11998 0.279559 0.682551 0.209778 0.281122 0.0582906-0.057353-0.136342-0.0831759-0.152235-0.113165-0.166689-0.139553-0.183113-0.103899-0.189067-0.0684417-0.195755-0.0332228-0.202975 0.234425-0.0169134 0.619707 0.0634394 0.981165 0.138457 1.12924 0.170773 1.24918 0.237765 1.37769 0.293639" fill="#DB7919" fill-rule="evenodd" transform="matrix(1.01912 0 0 -1 549.449 -26.1379)"/><path d="M0.547289 0.264622C0.547266 0.264622 0.547266 0.264622 0.547266 0.264622 0.243924 0.234614 0.0555336 0.0335409-0.148879-0.116571-0.146718-0.117108-0.144167-0.117974-0.14196-0.118839-0.0315364-0.152761 0.0733705-0.193298 0.17191-0.239289 0.325615-0.0960168 0.441419 0.0682076 0.592364 0.21354 0.59225 0.213644 0.592043 0.213973 0.591906 0.214077 0.625073 0.25115 0.612983 0.273212 0.547289 0.264622" fill="#DB7919" fill-rule="evenodd" transform="matrix(1.01912 0 0 -1 549.965 -25.8851)"/><path d="M-0.00223725-0.222151C0.0147204-0.1378 0.0322942-0.0539397 0.0414053 0.0307221-0.0688357-0.018018-0.140882-0.0818658-0.211501-0.145599-0.138547-0.169405-0.0685765-0.195157-0.00223725-0.222151" fill="#DB7919" fill-rule="evenodd" transform="matrix(1.01912 0 0 -1 550.48 -25.8851)"/><path d="M1.88022-0.261787C1.8866-0.208865 1.86533-0.158516 1.83623-0.113328 1.69852 0.120877 1.43102 0.259792 1.16002 0.33906 0.763466 0.452285 0.343754 0.511149-0.0726124 0.493852-0.115214 0.50031-0.125757 0.460799-0.141627 0.435501-0.00867523 0.323696 0.127942 0.207899 0.308984 0.164254 0.447445 0.108474 0.605969 0.129536 0.742859 0.0727274 0.847781 0.0336077 0.764718-0.111765 0.865017-0.152181 1.04738-0.253663 1.26503-0.18149 1.46295-0.221124 1.47666-0.211951 1.5035-0.194015 1.51707-0.18511 1.38107-0.105965 1.23459-0.0419171 1.11218 0.0550392 0.949174 0.176512 0.745067 0.229968 0.55592 0.306789 0.771616 0.289492 1.00382 0.238874 1.16193 0.0959486 1.36588-0.0738176 1.62347-0.174641 1.88022-0.261787" fill="#DB7919" fill-rule="evenodd" transform="matrix(1.01912 0 0 -1 548.934 -24.8736)"/><path d="M1.39484-0.152917C1.27405-0.0895304 1.12361-0.0691946 0.996504-0.0136667 0.688006 0.120371 0.351836 0.212343 0.0143278 0.295769-0.0304336 0.3051-0.0764917 0.307853-0.122424 0.310797-0.116296 0.284966-0.102386 0.262265-0.0801101 0.242604 0.257567 0.00951819 0.681439-0.184258 1.15254-0.194684 1.23564-0.194387 1.3319-0.202042 1.39484-0.152917" fill="#DB7919" fill-rule="evenodd" transform="matrix(1.01912 0 0 -1 548.676 -24.8736)"/><path d="M2.64185-0.0748933C2.31224-0.155118 1.94223-0.101044 1.64416 0.022427 1.96431-0.0583068 2.30502-0.0828174 2.64185-0.0748933ZM-0.125123 1.31277-0.119365 1.2619C0.05612 0.809914 0.474393 0.425177 0.983049 0.153101 1.39991-0.071284 1.90753-0.218446 2.42787-0.203418 2.68812-0.198988 2.94097-0.137613 3.16706-0.0439024 3.3942 0.0684622 3.6148 0.217478 3.66798 0.426112 3.65936 0.432396 3.64201 0.444848 3.63339 0.451131 3.5132 0.359897 3.50321 0.214377 3.36157 0.13653 3.30546 0.101717 3.24055 0.0754676 3.17331 0.0541397 3.06172 0.0251011 2.94274 0.0163404 2.82495 0.0220168 2.60204 0.0260364 2.39825 0.121076 2.17317 0.108821 1.69033 0.0792736 1.16972 0.134874 0.776413 0.358767 0.493872 0.53239 0.327962 0.783041 0.181441 1.02762 0.114137 1.14059 0.00127946 1.23421-0.125123 1.31277" fill="#DB7919" fill-rule="evenodd" transform="matrix(1.01912 0 0 -1 547.13 -24.3678)"/><path d="M0.120503 0.165744C0.32601-0.0252616 0.600941-0.174668 0.90928-0.209088 0.907803-0.200147 0.905649-0.182132 0.904314-0.172973 0.696335 0.0407607 0.412687 0.186057 0.157021 0.354635 0.0634826 0.413496 0.00149582 0.501625-0.102235 0.549532-0.0948352 0.402023 0.0115078 0.274826 0.120503 0.165744" fill="#DB7919" fill-rule="evenodd" transform="matrix(1.01912 0 0 -1 547.645 -24.6207)"/><path d="M0.314324-0.256773C0.421588-0.249599 0.552536-0.290038 0.640799-0.210516 0.398736-0.103007 0.118526-0.137629-0.117822-0.00792855-0.00409852-0.135453 0.138129-0.256773 0.314324-0.256773" fill="#DB7919" fill-rule="evenodd" transform="matrix(1.01912 0 0 -1 548.676 -24.6207)"/><path d="M29.682 52.1043C28.4141 53.9867 27.2863 55.6489 26.2989 57.091 25.3114 58.5331 24.6043 59.7019 24.1775 60.5976 23.7509 61.493 23.5375 62.3963 23.5375 63.3072 23.5375 64.7642 24.141 66.0622 25.348 67.2006 26.555 68.3393 28.2923 68.9086 30.5598 68.9086 32.6566 68.9086 34.8938 68.4455 37.271 67.5195 39.6486 66.5935 41.6478 65.3868 43.2692 63.8991 44.8909 62.4115 45.7016 60.9086 45.7016 59.3906 45.7016 58.0853 45.104 57.0076 43.9095 56.1574 42.7146 55.3072 40.898 54.556 38.4598 53.9033 36.0216 53.2504 33.0956 52.6508 29.682 52.1043ZM47.7132 16.3104C52.3216 16.3104 55.7839 17.335 58.1002 19.3843 60.4166 21.4336 61.5747 24.0066 61.5747 27.1032 61.5747 29.198 61.0444 31.217 59.9836 33.1601 58.9231 35.1029 57.2711 36.9398 55.0281 38.6702 52.7848 40.4009 49.8649 41.9186 46.2683 43.2242 42.6719 44.5298 38.4355 45.5314 33.5589 46.2298L31.6937 48.9621C33.8636 49.2049 35.8021 49.5314 37.509 49.9413 39.2156 50.3512 40.7946 50.8066 42.2453 51.3075 43.696 51.8085 44.97 52.3322 46.0672 52.8786 49.9198 54.8824 51.8459 57.6754 51.8459 61.2579 51.8459 63.4437 51.0413 65.584 49.432 67.6788 47.8227 69.7736 45.7319 71.6409 43.1597 73.2802 40.5872 74.9196 37.9417 76.2024 35.223 77.1282 32.5044 78.0542 30.0356 78.5172 27.8166 78.5172 24.1105 78.5172 21.2211 77.6595 19.1486 75.9443 17.0761 74.229 16.0398 71.8836 16.0398 68.9086 16.0398 66.8441 16.6737 64.4152 17.9416 61.6223 19.2096 58.829 21.1724 55.3528 23.8301 51.1935 21.8307 51.0721 20.4165 50.7001 19.5875 50.0778 18.7585 49.4555 18.344 48.5826 18.344 47.4593 18.344 46.7611 18.5025 46.2298 18.8194 45.8654 19.1364 45.5011 19.5631 45.2355 20.0995 45.0686 20.636 44.9015 21.6661 44.6967 23.1901 44.4537 24.714 44.2109 26.6706 43.9072 29.0602 43.5431 31.7179 39.4748 34.1013 36.4161 36.2105 34.3668 38.3197 32.3175 40.5812 31.1411 42.9951 30.8374 43.19 30.8071 43.4035 30.7919 43.6351 30.7919 43.8667 30.7919 43.9826 30.8678 43.9826 31.0195 43.9826 31.2018 43.7082 31.6876 43.1597 32.4768 42.611 33.2663 41.7211 34.5261 40.4896 36.2568 39.2584 37.9872 37.8016 40.0365 36.1189 42.4044 40.703 41.6455 44.4519 40.7726 47.3657 39.7859 50.2794 38.7991 52.4799 37.6228 53.9673 36.2568 55.4547 34.8905 56.1984 33.3725 56.1984 31.7028 56.1984 29.6686 55.4059 28.1962 53.8209 27.2853 52.2361 26.3745 49.81 25.9193 46.5426 25.9193 44.7384 25.9193 42.6719 26.1469 40.3434 26.6023 38.0147 27.0577 35.9058 27.5738 34.016 28.1506 32.1263 28.7274 30.444 29.3422 28.9687 29.9951 27.4937 30.6478 26.756 31.126 26.756 31.4294 26.756 31.5204 26.8291 31.6117 26.9755 31.7028 28.1704 32.2492 28.7677 32.7046 28.7677 33.0688 28.7677 33.5546 26.9389 34.4882 23.2815 35.8696 19.6241 37.2508 17.1614 37.9417 15.8935 37.9417 14.9913 37.9417 14.5403 37.38 14.5403 36.2568 14.5403 34.9208 15.5217 32.5147 17.4845 29.0387 19.4473 25.5625 21.2333 23.3386 22.8426 22.3671 23.4034 22.0332 24.7079 21.5019 26.756 20.7732 28.8043 20.0446 31.0536 19.3463 33.504 18.6784 35.9546 18.0105 38.4477 17.4488 40.9835 16.9934 43.5193 16.5381 45.7625 16.3104 47.7132 16.3104Z" stroke="#2F528F" stroke-width="0.337164" stroke-miterlimit="8" fill="#1F6632" fill-rule="evenodd" transform="matrix(1.01912 0 0 1 486.568 -73.931)"/><path d="M179.909 57.0349C178.129 60.6191 177.24 63.5962 177.24 65.9664 177.24 67.1417 177.456 68.1436 177.889 68.9723 178.323 69.8009 178.832 70.2152 179.418 70.2152 180.027 70.2152 180.793 69.7719 181.719 68.8855 182.644 67.9992 183.446 66.6888 184.125 64.9546 184.804 63.2204 185.144 61.0912 185.144 58.5668L185.074 57.9599C184.418 58.0175 183.891 58.0322 183.493 58.0031 183.095 57.9743 182.632 57.8924 182.105 57.7576 181.578 57.6226 181.168 57.4974 180.876 57.3818 180.583 57.2663 180.261 57.1504 179.909 57.0349ZM176.143 31.5705C176.846 31.5705 177.432 31.7488 177.9 32.1053 178.368 32.4616 178.603 32.9772 178.603 33.6517 178.603 34.4801 178.122 35.3955 177.162 36.3974 176.202 37.3995 175.172 37.9004 174.071 37.9004 173.485 37.9004 172.929 37.7174 172.402 37.3512 171.875 36.9853 171.612 36.5228 171.612 35.9639 171.612 35.116 172.103 34.1718 173.087 33.1312 174.071 32.0907 175.089 31.5705 176.143 31.5705ZM238.999 30.8478C238.859 30.8478 238.59 30.954 238.191 31.1659 236.763 32.1294 235.159 34.013 233.379 36.8166 231.599 39.6202 230.334 42.4481 229.584 45.3 230.802 44.3171 231.979 43.1997 233.115 41.9469 234.251 40.6944 235.322 39.3552 236.33 37.9293 237.337 36.5036 238.127 35.222 238.701 34.0851 239.275 32.9482 239.562 32.0907 239.562 31.5126 239.562 31.0696 239.374 30.8478 238.999 30.8478ZM196.245 24.4023C196.643 24.4023 196.995 24.6432 197.299 25.1249 197.604 25.6067 197.756 26.2329 197.756 27.0036 197.756 27.9478 197.633 28.8149 197.387 29.6049 197.141 30.3951 196.79 31.1899 196.333 31.9895 195.876 32.7894 195.244 33.748 194.436 34.8654 193.628 35.9832 193.13 36.6768 192.943 36.9466 191.772 38.6424 190.449 40.5212 188.973 42.5829 187.498 44.6448 186.332 46.2731 185.478 47.4677 184.623 48.6625 184.008 49.5584 183.633 50.1557 184.898 51.0615 185.899 51.8419 186.637 52.4971 187.375 53.1523 188.013 53.9326 188.552 54.8382 189.348 54.5878 190.074 54.2889 190.73 53.9422 191.386 53.5953 192.158 53.1184 193.048 52.5115 193.493 52.208 193.933 51.9152 194.366 51.6335L195.426 50.9614 195.553 50.3292C195.729 49.7127 196.062 49.0335 196.554 48.2915 197.046 47.5496 197.696 46.7452 198.504 45.8781 199.312 45.0107 200.302 44.0281 201.473 42.9298 202.175 42.2554 202.767 41.687 203.247 41.2245 203.727 40.762 204.195 40.4489 204.652 40.285 205.109 40.1212 205.852 40.0395 206.883 40.0395 207.632 40.0395 208.347 40.1212 209.026 40.285 209.705 40.4489 210.045 40.6176 210.045 40.7908 210.045 41.1377 209.699 41.7641 209.008 42.6696 208.317 43.5752 207.205 44.6785 205.671 45.9792 204.137 47.2798 202.363 48.5565 200.348 49.809 199.904 50.9459 199.681 51.813 199.681 52.4103 199.681 53.2387 200.068 53.6532 200.84 53.6532 201.121 53.6532 201.59 53.4557 202.245 53.0607 202.901 52.6655 204.008 51.9046 205.565 50.7773 207.123 49.65 208.522 48.6529 209.764 47.7855 210.677 47.1306 211.737 46.1525 212.943 44.8519 214.149 43.5512 215.127 42.5733 215.876 41.9181 217.61 40.415 218.792 39.4371 219.424 38.9843 220.057 38.5316 220.666 38.305 221.251 38.305 221.814 38.305 222.194 38.4497 222.393 38.7387 222.592 39.0277 222.692 39.6154 222.692 40.5017 222.692 40.9066 222.645 41.2341 222.551 41.4847 222.457 41.735 222.264 42.0579 221.972 42.4529 221.679 42.8479 221.087 43.5752 220.197 44.6352 219.307 45.695 218.254 46.9475 217.036 48.3927 216.38 49.1634 215.806 50.0065 215.314 50.9217 214.822 51.8371 214.577 52.5259 214.577 52.9884 214.577 53.9903 215.057 54.4915 216.017 54.4915 216.813 54.4915 217.738 54.2217 218.792 53.682 219.715 53.2099 221.067 52.406 222.85 51.2699L222.883 51.2486 222.91 50.9823C223.12 49.369 223.647 47.5473 224.491 45.5167 225.615 42.8092 227.119 40.0635 229.005 37.2791 230.89 34.4947 232.846 32.0666 234.872 29.9954 236.898 27.9238 238.777 26.4738 240.51 25.6452 241.213 25.2982 241.763 25.1249 242.161 25.1249 242.653 25.1249 242.981 25.303 243.145 25.6596 243.309 26.0161 243.391 26.6278 243.391 27.4949 243.391 30.1734 242.068 33.4638 239.421 37.3659 236.775 41.2677 233.086 45.2517 228.355 49.3177 228.121 50.3196 228.003 51.0903 228.003 51.63 228.003 52.8632 228.326 53.8651 228.97 54.6359 229.614 55.4066 230.509 55.792 231.657 55.792 232.243 55.792 232.875 55.6041 233.554 55.2283 234.233 54.8526 234.948 54.3853 235.697 53.8267 236.447 53.2678 237.911 52.1597 240.089 50.5026L240.089 52.6414C235.194 57.9791 231.212 60.6479 228.144 60.6479 226.481 60.6479 225.176 59.9012 224.227 58.408 223.397 57.1011 222.93 55.4367 222.826 53.4145L222.824 53.3184 222.646 53.4532C220.405 55.1497 218.71 56.411 217.563 57.2372 216.251 58.1814 215.115 58.8945 214.155 59.3762 213.195 59.858 212.281 60.0987 211.415 60.0987 209.447 60.0987 208.464 59.1352 208.464 57.2083 208.464 56.476 208.756 55.4886 209.342 54.2457 209.928 53.0028 210.876 51.2059 212.188 48.8552 208.792 52.5547 206.21 55.1851 204.441 56.7458 202.673 58.3066 201.227 59.0872 200.103 59.0872 199.213 59.0872 198.393 58.7835 197.643 58.1766 196.894 57.5697 196.314 56.7506 195.904 55.7197 195.7 55.2043 195.546 54.6708 195.443 54.1192L195.348 53.0595 194.658 53.6223C193.731 54.3703 192.996 54.9393 192.451 55.3295 191.725 55.8499 190.73 56.3797 189.465 56.9193 189.465 58.6727 189.36 60.1662 189.149 61.3995 188.938 62.6327 188.47 63.9285 187.744 65.2869 187.017 66.6456 185.893 68.134 184.371 69.7526 182.872 71.3521 181.397 72.5805 179.945 73.438 178.493 74.2955 177.357 74.7241 176.537 74.7241 175.623 74.7241 174.78 74.1076 174.007 72.8744 173.235 71.6411 172.848 70.1092 172.848 68.2786 172.848 66.525 173.211 64.6752 173.937 62.7291 174.663 60.7827 175.787 58.2681 177.31 55.1851 177.023 54.8769 176.772 54.5691 176.557 54.2619L176.035 53.3705 175.615 53.8059C173.66 55.7839 171.822 57.3082 170.101 58.3789 168.134 59.6026 166.459 60.2143 165.077 60.2143 163.157 60.2143 161.728 59.3858 160.791 57.7285 160.089 56.4856 159.649 55.1563 159.474 53.7399L159.427 52.972 158.571 53.7248C152.836 58.6871 148.553 61.1681 145.72 61.1681 144.666 61.1681 143.817 60.831 143.173 60.1566 142.529 59.4822 142.207 58.6151 142.207 57.5553 142.207 56.8422 142.389 55.9943 142.752 55.0116 143.115 54.029 143.764 52.5451 144.701 50.5603 144.373 50.7917 144.063 51.018 143.77 51.2398 143.478 51.4613 143.208 51.6636 142.962 51.8467 142.717 52.0297 142.453 52.2224 142.172 52.4247L141.863 52.6526 141.863 52.6994C138.537 55.397 135.984 57.3431 134.204 58.538 132.424 59.7325 130.972 60.3301 129.848 60.3301 127.927 60.3301 126.967 59.2895 126.967 57.2083 126.967 56.5918 127.084 55.9847 127.319 55.3874 127.553 54.7901 127.875 54.1686 128.285 53.523 128.695 52.8776 129.321 51.9526 130.164 50.7482 131.007 49.544 131.979 48.1808 133.08 46.6585 131.745 47.2173 130.071 48.3252 128.056 49.9822 126.745 51.0228 125.632 52.0105 124.719 52.9449 123.806 53.8795 122.828 54.9201 121.785 56.0666 120.743 57.2132 119.982 57.9839 119.502 58.3789 119.022 58.7739 118.536 58.9714 118.044 58.9714 117.295 58.9714 116.604 58.326 115.971 57.0349 115.497 56.0666 115.201 54.979 115.082 53.7723L115.055 53.2023 114.724 53.4532C112.483 55.1497 110.788 56.411 109.641 57.2372 108.329 58.1814 107.193 58.8945 106.233 59.3762 105.273 59.858 104.359 60.0987 103.493 60.0987 101.525 60.0987 100.542 59.1352 100.542 57.2083 100.542 56.476 100.835 55.4886 101.42 54.2457 102.006 53.0028 102.954 51.2059 104.266 48.8552 100.87 52.5547 98.2877 55.1851 96.5193 56.7458 94.7512 58.3066 93.305 59.0872 92.1808 59.0872 91.2906 59.0872 90.4711 58.7835 89.7216 58.1766 88.972 57.5697 88.3925 56.7506 87.9826 55.7197 87.5726 54.689 87.3678 53.5857 87.3678 52.4103 87.3678 51.6396 87.4556 50.9459 87.6313 50.3292 87.8071 49.7127 88.1406 49.0335 88.6324 48.2915 89.1243 47.5496 89.7744 46.7452 90.5824 45.8781 91.3903 45.0107 92.3798 44.0281 93.5508 42.9298 94.2536 42.2554 94.8448 41.687 95.325 41.2245 95.8052 40.762 96.2735 40.4489 96.7302 40.285 97.1869 40.1212 97.9306 40.0395 98.9611 40.0395 99.7106 40.0395 100.425 40.1212 101.104 40.285 101.783 40.4489 102.123 40.6176 102.123 40.7908 102.123 41.1377 101.777 41.7641 101.086 42.6696 100.396 43.5752 99.283 44.6785 97.749 45.9792 96.2149 47.2798 94.4409 48.5565 92.4268 49.809 91.9818 50.9459 91.7592 51.813 91.7592 52.4103 91.7592 53.2387 92.1456 53.6532 92.9184 53.6532 93.1996 53.6532 93.6679 53.4557 94.3239 53.0607 94.9796 52.6655 96.0861 51.9046 97.6436 50.7773 99.201 49.65 100.6 48.6529 101.842 47.7855 102.755 47.1306 103.815 46.1525 105.021 44.8519 106.227 43.5512 107.205 42.5733 107.955 41.9181 109.688 40.415 110.87 39.4371 111.503 38.9843 112.135 38.5316 112.744 38.305 113.33 38.305 113.891 38.305 114.272 38.4497 114.471 38.7387 114.67 39.0277 114.77 39.6154 114.77 40.5017 114.77 40.9066 114.723 41.2341 114.629 41.4847 114.536 41.735 114.342 42.0579 114.05 42.4529 113.757 42.8479 113.165 43.5752 112.276 44.6352 111.385 45.695 110.332 46.9475 109.114 48.3927 108.458 49.1634 107.884 50.0065 107.392 50.9217 106.901 51.8371 106.655 52.5259 106.655 52.9884 106.655 53.9903 107.135 54.4915 108.095 54.4915 108.891 54.4915 109.816 54.2217 110.87 53.682 111.793 53.2099 113.145 52.406 114.928 51.2699L115.129 51.1412 115.133 51.1095C115.206 50.6953 115.316 50.3388 115.462 50.0401 115.755 49.4429 116.334 48.595 117.201 47.4965 118.817 45.454 120.211 43.9557 121.382 43.0019 122.552 42.0483 123.677 41.5714 124.754 41.5714 125.503 41.5714 126.107 41.6774 126.563 41.8893 127.02 42.1012 127.248 42.4289 127.248 42.8719 127.248 43.0646 127.178 43.2669 127.038 43.4788 126.897 43.691 126.739 43.8837 126.563 44.0572 126.388 44.2304 126.019 44.5677 125.457 45.0686 121.756 48.4407 119.906 50.6278 119.906 51.63 119.906 52.1888 120.129 52.468 120.573 52.468 120.855 52.468 121.399 52.0973 122.207 51.3553 123.015 50.6134 124.057 49.6403 125.334 48.4359 126.61 47.2317 128.121 45.9744 129.866 44.664 131.61 43.3537 133.595 42.0916 135.82 40.8775 137.062 40.1647 138.092 39.8081 138.912 39.8081 139.287 39.8081 139.655 40.2322 140.018 41.0798 140.382 41.9277 140.563 42.7852 140.563 43.6523 140.563 44.0764 140.059 44.7217 139.052 45.5891 134.93 49.3657 132.869 51.9961 132.869 53.4797 132.869 54.3084 133.279 54.7226 134.099 54.7226 134.778 54.7226 135.662 54.4288 136.751 53.8411 137.704 53.3267 139.128 52.4622 141.022 51.2471L141.356 51.0319 142.275 50.3557C144.54 48.5917 147.198 45.8467 150.252 42.1204 149.901 42.1012 149.573 42.0868 149.268 42.0771 148.964 42.0675 148.601 42.0627 148.179 42.0627 146.797 42.0627 145.767 42.1396 145.088 42.2939 144.807 42.3518 144.543 42.4142 144.297 42.4818 144.051 42.5493 143.882 42.5829 143.788 42.5829 143.694 42.5829 143.647 42.5252 143.647 42.4094 143.647 41.7737 144.128 40.8199 145.088 39.5479 145.861 38.4689 146.593 37.6693 147.283 37.1489 147.974 36.6287 148.818 36.277 149.813 36.0939 150.808 35.9108 152.208 35.8193 154.011 35.8193L155.522 35.8193C156.763 33.9887 157.887 32.693 158.894 31.9319 159.901 31.1707 161.049 30.7901 162.337 30.7901 163.625 30.7901 164.269 31.0309 164.269 31.5126 164.269 31.744 163.766 32.3701 162.759 33.3914 161.752 34.4128 160.99 35.2703 160.475 35.9639 161.271 36.0411 161.98 36.1083 162.6 36.1662 163.221 36.2241 163.707 36.2722 164.058 36.3109 162.723 38.3533 161.049 40.4441 159.035 42.5829 158.379 42.5445 157.829 42.5106 157.383 42.4818 156.939 42.4529 156.488 42.4238 156.031 42.395 155.574 42.3662 155.018 42.3326 154.362 42.2939 153.098 43.9704 152.038 45.4684 151.183 46.7884 150.328 48.1084 149.672 49.3177 149.216 50.4159 148.759 51.5141 148.531 52.5547 148.531 53.5376 148.531 54.8672 149.175 55.5318 150.463 55.5318 151.353 55.5318 152.518 55.1416 153.958 54.3612 155.219 53.6785 156.851 52.6746 158.855 51.35L159.512 50.9126 159.667 50.1413C159.855 49.4573 160.077 48.8936 160.334 48.4503 160.592 48.0073 161.072 47.3137 161.775 46.3694 165.101 42.1108 168.145 39.9816 170.909 39.9816 172.338 39.9816 173.052 40.4345 173.052 41.34 173.052 41.9568 172.589 42.9202 171.664 44.2304 170.739 45.5408 169.914 46.4754 169.188 47.0342 167.15 48.6529 165.821 49.7799 165.2 50.4159 164.579 51.0519 164.269 51.7743 164.269 52.5838 164.269 53.2774 164.585 53.8555 165.218 54.318 165.85 54.7805 166.67 55.0116 167.677 55.0116 168.778 55.0116 169.99 54.6794 171.313 54.0146 172.305 53.5159 173.519 52.7924 174.952 51.8439L175.597 51.4117 175.645 50.8205C175.76 50.1701 176.045 49.65 176.502 49.2598 177.111 48.7394 177.977 48.2675 179.102 47.8434 179.921 46.7836 180.7 45.8829 181.438 45.141 182.175 44.399 183.177 43.4116 184.441 42.1783 186.877 37.2452 189.734 32.428 193.013 27.7263 193.927 26.4159 194.582 25.5344 194.98 25.0816 195.379 24.6287 195.8 24.4023 196.245 24.4023Z" stroke="#2F528F" stroke-width="0.337164" stroke-miterlimit="8" fill="#1F6632" fill-rule="evenodd" transform="matrix(1.01912 0 0 1 486.568 -73.931)"/><path d="M97.108 72.949 100.045 72.949 100.468 73.2941 97.4734 73.2941 97.4734 78.7651 100.045 81.5517 91.5857 81.5517 91.2203 81.2066 99.2266 81.2066 97.108 78.9186ZM102.704 69.2421 103.083 69.4338 103.083 74.956 102.704 74.7641ZM107.335 64.6658 107.598 64.8833C106.205 66.3062 105.328 67.61 104.968 68.7948L104.661 68.6157C105.031 67.2778 105.922 65.9611 107.335 64.6658ZM91.3228 64.1034 106.487 64.1034C105.883 64.8021 105.453 65.3519 105.194 65.7524 104.936 66.153 104.608 66.7963 104.208 67.6826L104.091 67.9383C103.449 66.7794 102.813 66.0293 102.185 65.6885 101.557 65.3476 100.498 65.1772 99.0073 65.1772L98.1746 65.19 96.7575 65.1772 96.2169 65.1645 96.2169 71.1467 97.108 71.1467 97.108 65.8675 97.5318 65.8546C98.1357 65.8291 98.7785 65.8164 99.4602 65.8164 101.447 65.8164 102.689 66.268 103.186 67.1713 102.708 66.7708 102.19 66.5002 101.63 66.3596 101.07 66.219 100.205 66.1487 99.0367 66.1487 98.6177 66.1487 98.0967 66.1699 97.4734 66.2127L97.4734 71.1467 99.6795 71.1467 102.017 68.9864 102.017 74.3423 99.5624 72.2204 96.2169 72.2204 96.2169 78.6629 98.0869 80.3245 90.9136 80.3245 93.2949 78.6629 93.2949 73.1664C92.5452 73.1664 91.8877 73.4135 91.3228 73.9076L91.0451 73.6393C91.61 73.0939 92.36 72.8213 93.2949 72.8213L93.2949 72.2204C93.0906 72.2032 92.9444 72.1949 92.8567 72.1949 91.9509 72.1949 91.167 72.5186 90.5045 73.1664L90.4023 72.9619C90.8405 71.854 91.8047 71.2489 93.2949 71.1467L93.2949 65.7524Z" stroke="#2F528F" stroke-width="0.337164" stroke-miterlimit="8" fill="#92D050" fill-rule="evenodd" transform="matrix(1.01912 0 0 1 486.568 -73.931)"/><path d="M113.405 65.2156C114.695 65.2156 115.64 65.5929 116.242 66.348L115.994 66.2208C115.063 65.7711 114.21 65.5463 113.434 65.5463 110.883 65.5463 109.608 67.7393 109.608 72.1254 109.608 75.3323 110.398 77.4575 111.979 78.5008L111.848 78.6283C110.878 78.0259 110.187 77.2347 109.775 76.2548 109.363 75.2749 109.157 73.9493 109.157 72.2781 109.157 67.5696 110.573 65.2156 113.405 65.2156ZM113.128 64.4393C109.85 64.4393 108.211 66.9589 108.211 71.9982 108.211 76.6556 109.826 78.9846 113.056 78.9846 114.559 78.9846 115.703 78.3673 116.489 77.133 117.274 75.8985 117.667 74.0937 117.667 71.7182 117.667 69.0289 117.289 67.1539 116.532 66.0936 115.737 64.9905 114.603 64.4393 113.128 64.4393ZM117.769 63.994C119.156 64.5791 120.252 65.5802 121.057 66.9971 121.862 68.4139 122.264 70.0513 122.264 71.9092 122.264 74.6409 121.472 76.8465 119.886 78.5264 118.3 80.2062 116.217 81.046 113.638 81.046 111.989 81.046 110.447 80.5582 109.012 79.5826L109.012 79.5189C110.214 80.2909 111.722 80.677 113.536 80.677 115.97 80.677 117.968 79.8752 119.529 78.272 121.091 76.6685 121.872 74.6197 121.872 72.1254 121.872 70.2675 121.515 68.6428 120.802 67.2515 120.089 65.8602 119.078 64.8211 117.769 64.1338ZM113.128 63.3448C115.485 63.3448 117.369 64.1255 118.78 65.6864 120.191 67.2474 120.897 69.3344 120.897 71.9473 120.897 74.4159 120.201 76.3843 118.809 77.8519 117.418 79.3196 115.548 80.0535 113.201 80.0535 111.349 80.0535 109.7 79.5358 108.255 78.5008 106.131 76.974 105.069 74.713 105.069 71.7182 105.069 69.1561 105.796 67.12 107.251 65.6101 108.706 64.0999 110.665 63.3448 113.128 63.3448Z" stroke="#2F528F" stroke-width="0.337164" stroke-miterlimit="8" fill="#FF0000" fill-rule="evenodd" transform="matrix(1.01912 0 0 1 486.568 -73.931)"/><path d="M131.612 65.2421C132.902 65.2421 133.847 65.625 134.449 66.3909L134.201 66.262C133.27 65.8058 132.417 65.5777 131.641 65.5777 129.09 65.5777 127.815 67.8022 127.815 72.2508 127.815 75.5035 128.605 77.659 130.186 78.7175L130.055 78.8465C129.085 78.2355 128.394 77.4332 127.982 76.4394 127.57 75.4453 127.364 74.1008 127.364 72.4058 127.364 67.63 128.78 65.2421 131.612 65.2421ZM131.335 64.4549C128.057 64.4549 126.418 67.0105 126.418 72.1218 126.418 76.8458 128.033 79.2078 131.263 79.2078 132.766 79.2078 133.91 78.582 134.696 77.33 135.481 76.0778 135.874 74.2472 135.874 71.8378 135.874 69.1101 135.496 67.2085 134.739 66.1328 133.944 65.0141 132.809 64.4549 131.335 64.4549ZM135.976 64.0031C137.363 64.5968 138.459 65.6121 139.264 67.0492 140.069 68.4863 140.471 70.1469 140.471 72.0315 140.471 74.8023 139.679 77.0395 138.093 78.7433 136.507 80.4469 134.424 81.2989 131.844 81.2989 130.196 81.2989 128.654 80.804 127.218 79.8145L127.218 79.75C128.421 80.5329 129.929 80.9246 131.743 80.9246 134.177 80.9246 136.175 80.1114 137.736 78.4851 139.298 76.8587 140.079 74.7808 140.079 72.2508 140.079 70.3664 139.722 68.7187 139.009 67.3074 138.296 65.8961 137.285 64.8421 135.976 64.1452ZM131.335 63.3448C133.692 63.3448 135.576 64.1366 136.987 65.7198 138.398 67.3031 139.104 69.4199 139.104 72.0702 139.104 74.5742 138.408 76.5704 137.016 78.059 135.624 79.5477 133.755 80.2922 131.408 80.2922 129.556 80.2922 127.907 79.7672 126.462 78.7175 124.338 77.1684 123.276 74.8754 123.276 71.8378 123.276 69.2391 124.003 67.1741 125.458 65.6424 126.913 64.1108 128.872 63.3448 131.335 63.3448Z" stroke="#2F528F" stroke-width="0.337164" stroke-miterlimit="8" fill="#00B050" fill-rule="evenodd" transform="matrix(1.01912 0 0 1 486.568 -73.931)"/><path d="M153.07 65.5122C155.123 66.6458 156.149 68.8145 156.149 72.0186 156.149 75.3849 155.133 77.8646 153.099 79.4582 151.54 80.6854 148.993 81.2989 145.459 81.2989L140.36 81.2989 140.143 80.9537 145.459 80.9537C148.073 80.9537 150.058 80.634 151.414 79.995 154.329 78.6315 155.786 75.9941 155.786 72.0826 155.786 69.4664 155.133 67.5236 153.825 66.2536L153.244 65.6912C153.225 65.6743 153.167 65.6146 153.07 65.5122ZM144.297 64.9243 144.297 79.2665 145.096 79.2665 145.096 65.7679C145.599 65.6998 146.059 65.6657 146.476 65.6657 147.27 65.6657 147.897 65.736 148.357 65.8766 148.817 66.0172 149.279 66.2751 149.744 66.6499 148.717 66.2238 147.618 66.0109 146.446 66.0109 146.195 66.0109 145.866 66.0278 145.459 66.062L145.459 79.2665C146.543 79.2665 147.366 79.1876 147.928 79.0298 148.49 78.8723 149.022 78.5676 149.526 78.1159 150.93 76.8632 151.632 74.7585 151.632 71.8014 151.632 68.9126 150.872 66.9397 149.352 65.8829 148.432 65.2439 146.974 64.9243 144.979 64.9243ZM139.895 63.8506 145.618 63.8506C148.417 63.8506 150.489 64.3234 151.835 65.2694 153.84 66.6671 154.842 68.8572 154.842 71.8396 154.842 74.933 153.966 77.1702 152.213 78.5506 151.419 79.1727 150.531 79.6117 149.548 79.8673 148.565 80.1227 147.26 80.2507 145.633 80.2507L139.46 80.2507 141.45 78.9084 141.45 65.3205Z" stroke="#2F528F" stroke-width="0.337164" stroke-miterlimit="8" fill="#002060" fill-rule="evenodd" transform="matrix(1.01912 0 0 1 486.568 -73.931)"/><path d="M159.875 76.0704C160.237 77.5996 161.207 78.6826 162.784 79.3199L162.784 79.4218C160.962 78.9631 159.86 77.8671 159.478 76.1342ZM170.335 72.4007C171.667 73.2757 172.333 74.4735 172.333 75.9941 172.333 77.6165 171.609 78.9906 170.159 80.1162 168.709 81.2417 166.946 81.8046 164.87 81.8046 163.812 81.8046 162.857 81.7113 162.005 81.5242L159.655 81.0273C159.106 80.9084 158.518 80.849 157.891 80.849 157.333 80.849 156.819 80.9466 156.349 81.1421L156.173 80.7724C156.682 80.5686 157.201 80.4667 157.73 80.4667 158.318 80.4667 158.988 80.543 159.743 80.696L162.005 81.1674C162.906 81.3545 163.856 81.4478 164.855 81.4478 166.814 81.4478 168.482 80.9064 169.858 79.8231 171.234 78.74 171.922 77.4296 171.922 75.8922 171.922 74.5924 171.393 73.4542 170.335 72.4771ZM158.038 71.942 158.538 72.184C158.861 72.6852 159.806 73.1015 161.374 73.433L163.739 73.9425C165.345 74.291 166.415 74.5904 166.949 74.841 167.483 75.0916 167.862 75.4716 168.087 75.9814L167.985 76.0323C167.544 75.5905 167.066 75.2678 166.552 75.064 166.038 74.8599 165.051 74.6093 163.592 74.312 161.476 73.8874 160.056 73.52 159.331 73.2099 158.607 72.8999 158.175 72.4771 158.038 71.942ZM163.46 65.5198C164.302 65.5198 165.039 65.6748 165.671 65.9848 166.303 66.2951 166.765 66.7303 167.059 67.2909L166.956 67.342C165.879 66.3482 164.723 65.8511 163.489 65.8511 162.745 65.8511 162.128 66.0379 161.638 66.4119 161.148 66.7857 160.903 67.2613 160.903 67.8389 160.903 68.4675 161.398 69.1131 162.387 69.7759L162.505 69.8396 162.431 69.9415C161.138 69.4403 160.492 68.7138 160.492 67.7625 160.492 67.1 160.766 66.5604 161.315 66.1441 161.863 65.7279 162.578 65.5198 163.46 65.5198ZM170.864 64.6405 171.246 64.8062 171.114 64.9974C170.712 65.5835 170.37 66.1441 170.086 66.6795 169.4 67.9282 169.013 68.6248 168.925 68.7692L168.852 68.8582 168.499 68.7308 168.558 68.6162C168.842 68.0556 169.253 67.3251 169.792 66.4246L170.791 64.7425ZM163.004 63.8506C164.15 63.8506 165.487 64.0289 167.015 64.3857 167.73 64.5556 168.259 64.6405 168.602 64.6405 169.082 64.6405 169.606 64.4962 170.174 64.2074L170.335 64.2711C169.826 64.8656 169.419 65.4859 169.116 66.1315 168.518 67.4057 168.122 68.1874 167.926 68.4761L167.852 68.5525C167.813 68.4589 167.784 68.3869 167.764 68.3358 167.49 67.5714 167.265 67.0403 167.088 66.7432 166.912 66.4458 166.648 66.1613 166.295 65.8892 165.404 65.2012 164.39 64.8573 163.254 64.8573 162.206 64.8573 161.334 65.1099 160.639 65.6154 159.944 66.1209 159.596 66.7558 159.596 67.5203 159.596 68.9475 160.835 69.9203 163.313 70.4384L165.796 70.9609C169.331 71.6998 171.099 73.3182 171.099 75.8158 171.099 77.2089 170.494 78.3789 169.285 79.3262 168.075 80.2735 166.579 80.7471 164.796 80.7471 163.68 80.7471 162.431 80.5984 161.05 80.301L159.331 79.9316C158.636 79.7872 158.063 79.7149 157.612 79.7149 157.015 79.7149 156.398 79.8805 155.761 80.2117L155.644 80.0335C156.858 78.4449 157.71 76.9327 158.2 75.4972L158.464 75.5609C158.67 76.8946 159.287 77.9308 160.316 78.67 161.344 79.4091 162.691 79.7786 164.356 79.7786 165.668 79.7786 166.711 79.5153 167.485 78.9886 168.259 78.4619 168.646 77.7526 168.646 76.8607 168.646 75.8327 168.107 74.9831 167.03 74.312 166.256 73.8363 164.669 73.3945 162.27 72.9869 160.418 72.6726 159.077 72.1501 158.244 71.4196 157.412 70.689 156.995 69.6738 156.995 68.3742 156.995 67.032 157.551 65.9423 158.663 65.1056 159.774 64.2691 161.222 63.8506 163.004 63.8506Z" stroke="#2F528F" stroke-width="0.337164" stroke-miterlimit="8" fill="#FFFF00" fill-rule="evenodd" transform="matrix(1.01912 0 0 1 486.568 -73.931)"/></g></svg>