<?xml version="1.0" encoding="UTF-8" standalone="no"?>
<svg
   xmlns:dc="http://purl.org/dc/elements/1.1/"
   xmlns:cc="http://creativecommons.org/ns#"
   xmlns:rdf="http://www.w3.org/1999/02/22-rdf-syntax-ns#"
   xmlns:svg="http://www.w3.org/2000/svg"
   xmlns="http://www.w3.org/2000/svg"
   viewBox="0 0 3687.1733 3596.0132"
   height="3596.0132"
   width="3687.1733"
   xml:space="preserve"
   id="svg2"
   version="1.1"><metadata
     id="metadata8"><rdf:RDF><cc:Work
         rdf:about=""><dc:format>image/svg+xml</dc:format><dc:type
           rdf:resource="http://purl.org/dc/dcmitype/StillImage" /></cc:Work></rdf:RDF></metadata><defs
     id="defs6" /><g
     transform="matrix(1.3333333,0,0,-1.3333333,0,3596.0133)"
     id="g10"><g
       transform="scale(0.1)"
       id="g12"><g
         transform="scale(1.69655)"
         id="g14"><path
           id="path16"
           style="fill:#1f6632;fill-opacity:1;fill-rule:nonzero;stroke:none"
           d="m 2084.36,12515.9 c 206.62,207.4 437.05,390.6 684.43,546 136,85.1 277.25,162.2 423.34,230 78.29,36.3 173.53,34.3 250.61,-4.8 126.71,-65 247.77,-140.1 365.61,-219.6 -125.5,-144.9 -171.1,-347.4 -140.03,-534.7 74.25,-492.3 551.66,-895.9 1054.09,-858.4 -272,-58.1 -545.61,56.1 -769.99,203 -115.82,-6.8 -230.02,17.4 -338.99,53.7 -391.04,120.3 -805.49,150.1 -1211.87,116.2 -271.19,-27 -539.56,-96 -785.72,-212.6 -9.69,-4.9 -19.78,-9.3 -29.46,-14.6 -24.22,-11.7 -48.43,-23.8 -71.84,-36.7 158.2,267.2 350.69,513.3 569.82,732.5 z m 2974.21,94.4 c -189.67,315.6 -535.52,512.5 -895.9,558.9 381.36,51.7 758.69,-208.2 895.9,-558.9 z M 2916.49,10832.6 c -11.7,-330.9 35.52,-685.2 240.12,-956.81 -277.24,222.41 -369.66,630.41 -240.12,956.81 z M 11441.2,14172 c 5.3,-121 -16.1,-257 -110.2,-342.2 -84.3,-72.2 -232.4,-10.1 -251.8,96.9 -81.9,197.3 -36.7,418.1 70.6,597.3 19.4,32.6 40.8,64.1 64.2,93.6 48.8,-62.2 97.6,-127.5 138,-197.4 44.4,-77 77.9,-159.4 89.2,-248.2 z m -1438.3,-331.7 c -138.78,39.6 -172.26,186.1 -161,310 2.42,132.3 69.02,246.5 127.14,360.7 59.76,-87.9 134.36,-177.9 144.46,-287.7 0,-134.8 -45.6,-265.9 -110.6,-383 z M 16.1403,7363.64 c 1.2111,-21.34 2.4199,-43.15 4.4414,-64.54 C 312.352,3225.19 3719.97,0 7866.9,0 11844,0 15141,2966.13 15662,6802.74 c 37.9,278.03 60.9,560.9 69,847.84 0,0.41 0,0.41 0,0.82 0,1280.07 -335.8,2552.5 -849.5,3720 -69.8,162.6 -150.5,320 -231.6,477.4 -75.5,146.1 -151.4,292.2 -219.2,441.9 120.7,-78.3 222,-182.8 287.4,-311.2 118.6,-242.5 437.4,-305.1 676.7,-224.3 397.9,141.6 684.9,473.3 905.2,820 -192.9,33.5 -380.1,93.6 -557.3,176.3 82.3,139.3 161.4,281.3 215.5,434.3 153.8,501.2 79.1,1036.3 -48.4,1534.3 -333.4,-42.4 -677.6,-131.6 -943.2,-347.1 -177.9,-157 -301,-364.4 -437.8,-555.7 -31,7.7 -62.2,15.4 -92.8,23.4 -22.6,163.9 -9.7,334.2 -73,490 -67.8,224.7 -280.1,369.6 -495.2,435.8 -367.2,106.9 -753.4,180 -1085.6,379.3 -49.2,-155.3 -102.1,-309.5 -156.5,-462.8 -195.4,196.9 -425.8,380.9 -709.5,422.1 -239.3,73 -477,-13.3 -686.5,-126.7 -14.1,-7.7 -27.8,-15.4 -41.5,-23 -192.5,92 -401.1,166.2 -617.9,148.5 -177.9,5.2 -348.6,-53.3 -497.2,-148.1 -60.9,-38.4 -117.79,-83.6 -170.25,-132.4 -236.48,33.1 -485.04,46.4 -701.36,-74.3 -308.75,-161 -527.07,-474.9 -876.14,-563.3 -227.63,-82.3 -494.76,-59.7 -696.11,77.5 -227.64,172.3 -198.17,558.1 18.92,726 122.72,86.7 278.5,85.9 422.15,100.8 -170.29,77.5 -377.71,105.8 -545.64,5.3 -328.08,-215.5 -363.56,-763.9 -46.38,-1004.1 282.86,-251 711.5,-233.6 1043.58,-98.4 332.56,123.9 543.99,437.8 870.47,571.4 110.99,37.5 228.41,46.4 344.64,56.5 -91.59,-231.2 -185.19,-489.5 -109.34,-738.5 63.72,-199.8 309.1,-324.5 502.06,-218.3 196.9,126.7 237.3,380.9 228,597.2 -15.4,172.8 -120.3,323.7 -230.5,451.2 93.6,45.6 187.2,97.7 287.3,127.5 44.8,13.4 90.9,22.2 138.9,24.3 160.6,28.6 309.9,-51.7 460.8,-92.9 -29.8,-46 -58.1,-94 -83.5,-143.2 -111.8,-212.3 -177.1,-453.2 -111,-690.1 39.1,-203 210.7,-410.4 435.9,-387.4 258.2,10.5 410.4,287.7 419.7,519.4 9.6,56.5 10,111.7 2.8,165 -25.8,209.9 -161.9,395.5 -285.3,564.2 37.1,13.3 74.6,28.2 112.6,41.9 101.3,36.8 206.2,67 314.7,49.3 274.4,-50.1 556.9,-185.3 729.2,-406.8 -9.2,-87.6 -27.8,-175.1 -48.8,-262.3 -38.3,-160.2 -85.1,-320.4 -97.6,-481.9 -8.1,-97.6 -3.3,-195.3 22.9,-294.2 63.8,-213.4 274.5,-320.4 450.4,-427.3 -3.1,-20.6 -10,-62.6 -13.7,-83.1 -215.1,16.9 -433.8,90.3 -648.9,38.7 -344.6,-88.4 -642.4,-305.5 -881.4,-563.4 235.3,-291.7 499.6,-563.3 811.2,-774 263.5,-194.9 586.8,-304.3 916.4,-272.8 -91.6,-172.3 -142.8,-361.6 -174.3,-553.7 318.9,-62.9 667.1,-49.2 950.8,124.3 184.4,99.7 343,264 390.3,473.8 15.7,91.2 14.5,182 6.8,272.8 -14.9,174.3 -52.1,348.3 -33.1,523.4 401.1,-763.9 677.6,-1591.6 855.1,-2434.61 -5.6,5.59 -11.2,10.84 -16.9,16.5 -270,263.11 -539.2,528.71 -842.2,753.41 -65.4,54.1 -151.8,63 -229.6,87.6 -24.2,-102.5 11.2,-194.1 95.2,-249.4 373.3,-305.1 793,-752.59 1101.7,-1141.61 14.1,-77.1 27.4,-154.61 39.1,-232.47 57.4,-370.46 87.2,-750.23 87.2,-1136.42 0,-319.59 -20.2,-634.41 -59.7,-943.51 C 14765.3,3274.05 11640.6,443.901 7866.9,443.901 3979.06,443.901 780.07,3447.58 468.931,7256.72 c -9.283,112.17 -16.142,225.57 -19.773,339.39 -3.231,80.34 -4.842,160.62 -4.842,241.32 -0.403,9.72 -0.403,19.8 -0.403,29.47 0,77.51 1.209,154.55 3.628,231.23 5.248,177.95 16.953,354.72 35.111,529.49 10.087,99.67 22.195,198.93 36.321,297.42 0,-0.41 0.403,-1.24 0.403,-1.65 0.403,4.48 0.806,8.9 1.614,13.32 98.06,676.79 287.732,1324.09 555.7,1928.99 57.7,130 119.05,257.9 184.02,383.8 124.29,117.8 272.8,219.1 401.94,305.5 131.96,84.7 276.44,166.3 437.46,169.1 343.02,-14.1 658.19,-216.3 852.3,-494 30.27,-48 78.7,-93.2 77.48,-154.1 58.52,-33.1 123.9,-15 184.84,0.8 -62.56,-71.9 -173.94,-95.3 -255.46,-42 -163.84,-179.2 -207.02,-440.3 -170.7,-674.3 44.79,-289 200.16,-565.4 439.87,-736.92 150.93,-106.16 346.66,-169.11 529.47,-117.42 159.81,39.55 287.33,164.63 353.11,312.34 97.26,214.7 89.18,464.1 18.56,685.6 -88.78,274.5 -280.07,529.9 -551.66,643.7 -130.35,59.3 -277.64,61.8 -414.85,27 -141.65,253.1 -355.94,469.8 -621.07,590.4 -41.57,19.8 -87.98,29.9 -125.91,56.5 339.79,52.9 688.87,44.4 1025.83,-24.6 177.57,-35.1 349.08,-94.8 523.01,-144 475.8,-139.3 958.45,-274.5 1455.63,-307.5 305.09,-29.5 609.79,16.1 914.05,29 -677.16,-168.3 -1396.3,-146.1 -2066.61,43.2 368.04,-283.3 794.2,-521.8 1265.15,-563.4 404.78,-38.3 815.2,46 1185.65,209.5 264.3,114.2 503.61,276.8 727.18,457.6 -380.95,27 -735.25,181.6 -1080.31,333.3 -338.15,149 -691.68,289.4 -1066.58,295 -46.41,-171.9 -168.28,-320.8 -332.94,-391 60.54,46.8 123.09,93.6 167.08,157.8 126.71,175.9 139.62,412 78.29,614.6 -101.7,334.1 -381.37,610.2 -719.14,703.4 -172.32,48 -360.78,37.1 -523.41,-39.6 22.6,-27.4 55.29,-56.1 47.21,-96 -10.89,-80.7 -91.2,-126.7 -162.22,-148.1 48.83,34.7 114.2,78.7 103.71,148.1 -4.84,57.7 -68.61,58.5 -105.33,87.6 -119.86,83.1 -246.97,154.9 -375.71,223.1 473.78,181.2 983.06,266.4 1489.93,259.5 118.65,0.4 229.62,-49.6 328.89,-111 432.21,-252.2 767.96,-631.9 1171.55,-923.7 363.56,-255 770.74,-445.9 1194.48,-578.7 353.13,-115 723.17,-178.8 1062.98,-332.9 -193.27,691.7 -570.63,1355.1 -1153.75,1789.7 -334.15,251.9 -734.49,414.9 -1149.33,468.2 -320.01,45.6 -644.48,19.3 -961.68,-36.3 451.58,-158.2 899.9,-338.6 1301.07,-602.2 91.6,-61.7 185.2,-122.6 262.3,-202.9 -908.79,627.1 -2074.27,847.8 -3153.78,632.7 -133.17,-26.6 -264.73,-59.3 -394.68,-99.2 65.78,108.1 143.67,208.2 213.89,313.5 7.26,11.7 16.14,22.2 25.82,31.1 13.72,9.3 27.85,18.6 41.97,27.8 29.46,15.4 62.16,25.9 92.42,38 279.26,104.5 573.85,192.9 808.73,384.2 13.32,10 26.22,20.9 39.14,31.8 59.32,49.3 115.01,101.7 167.88,156.2 200.97,207.8 363.6,450 537.13,682.8 151.34,203.4 310.74,399.6 510.93,558.5 -476.62,3.3 -967.35,-41.9 -1404,-246.5 -320.83,-146.9 -596.05,-398.7 -753.44,-716.7 -79.1,-157.8 -138.82,-324.1 -199.76,-489.6 -52.46,-142.8 -106.13,-285.7 -174.33,-422.1 255.45,287.4 523.01,570.7 826.88,808 115.42,90.3 235.68,173.9 362.8,248.5 -83.53,-61.3 -167.07,-123 -247.38,-188.8 -68.6,-55.7 -134.79,-114.2 -197.75,-176.8 -239.71,-226 -443.5,-484.2 -653.75,-736.9 -100.09,-121 -202.18,-240.1 -309.94,-354.3 -112.18,-114.2 -266.34,-165.5 -405.16,-237.7 -214.29,-110.6 -419.7,-238.9 -612.6,-383.4 -376.52,-282.1 -707.84,-623.9 -974.99,-1010.9 -35.51,-52 -70.22,-104.5 -103.72,-157.8 -119.042,-192.5 -224.368,-394.2 -310.731,-604.1 -70.622,-171.5 -129.139,-347.5 -172.319,-528.2 -17.757,-71.9 -32.688,-144.5 -44.792,-217.2 -2.422,0 -7.269,0.4 -9.689,0.4 0.403,26.7 0.808,53.3 1.614,79.6 0.806,52 2.827,103.7 4.844,155.3 6.859,140.5 18.565,280.1 35.919,419.7 15.735,121.9 62.551,239.3 133.573,339.4 253.837,346.3 523.821,683.2 735.281,1058.1 142.86,253.9 248.59,527.5 327.69,807.1 167.07,583.6 238.9,1189.7 406.78,1772.9 -469.74,-227.6 -888.63,-561 -1218.737,-965.7 -417.275,-511 -699.362,-1142.9 -749.809,-1804.3 -19.37,-305.1 -2.014,-617.5 87.169,-910.9 173.53,717.6 451.983,1418.1 880.157,2022.6 -390.238,-780 -702.593,-1610.9 -812.358,-2480.6 -31.882,-280.1 -41.164,-562.6 -27.443,-843.8 C 309.527,10057 288.137,9981.54 267.558,9905.27 113.401,9329.8 22.5987,8728.47 3.62868,8109.03 1.20879,8028.75 0,7948 0,7866.9 0,7764.81 2.01696,7663.13 5.64794,7562.22 8.47307,7495.61 11.7034,7429.42 16.1403,7363.64" /></g><g
         transform="scale(1.41878)"
         id="g18"><path
           id="path20"
           style="fill:#5e2791;fill-opacity:1;fill-rule:nonzero;stroke:none"
           d="m 12504.3,16250.9 c -73.5,37.8 -157.6,47.1 -239,49.1 -134.5,-5.9 -264,-71.1 -351.5,-173 6.5,-16.6 13,-33.1 19,-49.9 17.8,-49.4 24.6,-101.9 27.3,-154.1 125.8,-45.2 234.5,-137.4 291.8,-259.2 84.9,98 207.3,162.5 336.9,173 63.6,3.4 126.6,-9.4 188.9,-21 -3.3,64.3 -13.9,128.7 -39,188.3 -46.4,106.4 -130.6,195 -234.4,246.8" /></g><g
         transform="scale(1.43035)"
         id="g22"><path
           id="path24"
           style="fill:#5e2791;fill-opacity:1;fill-rule:nonzero;stroke:none"
           d="m 11434.9,16274.1 c -60.8,17.6 -124.5,25.2 -187.8,25.9 -158.8,-5.1 -309.6,-100.3 -390.6,-235.7 -26.4,-45 -43.4,-94.7 -57.6,-144.7 177,3.7 350.8,-96.7 434.9,-252.3 72,78.3 163.7,140.3 268.5,163.9 83.7,17.7 173,17.3 254.1,-12.4 2.6,40.9 -1.8,82 -12.1,121.6 -41.3,152 -158.8,284.1 -309.4,333.7" /></g><g
         transform="scale(1.37351)"
         id="g26"><path
           id="path28"
           style="fill:#5e2791;fill-opacity:1;fill-rule:nonzero;stroke:none"
           d="m 13064.4,16284.4 c -134,-6.3 -256.8,-77.5 -347.3,-173.6 22.6,-61.9 46.6,-124.9 48.8,-191.7 6.5,-78.3 -10.1,-156.9 -40.2,-229.2 -19.3,-40.7 -44.8,-78.1 -71.2,-114.6 41.8,-11.6 84.6,-19.7 125.8,-33.9 122.1,-48.7 225.5,-143.9 279.8,-264.2 108.2,-6.3 220.2,14.1 311.6,74.5 107.5,65.4 187.8,173.4 221.2,294.4 40.4,145.1 10.7,303.2 -73.6,427.2 -102,142.8 -279.5,226.7 -454.9,211.1" /></g><g
         transform="scale(1.38204)"
         id="g30"><path
           id="path32"
           style="fill:#5e2791;fill-opacity:1;fill-rule:nonzero;stroke:none"
           d="m 11994.6,16280 c -159.6,-24.1 -301.8,-130 -374.5,-273.7 -68.2,-132.5 -67.7,-293.2 -8.8,-429 172.4,-18.7 334.6,-124.9 409.9,-282.7 l 8.7,2.3 c 59,53.6 120.2,108.6 196.8,135.2 73.8,29.4 153.6,36.9 232.3,35.1 61.1,62.4 95.5,149.4 109.7,234.9 30.3,177.2 -44.8,367.8 -187.8,476.9 -106.8,86.6 -251.1,121 -386.3,101" /></g><g
         transform="scale(1.38908)"
         id="g34"><path
           id="path36"
           style="fill:#5e2791;fill-opacity:1;fill-rule:nonzero;stroke:none"
           d="m 10751.8,16164.7 c -93.5,-81 -158.6,-197.1 -169.4,-321.3 -38,-254.8 160.4,-517.3 416.4,-548.9 38,53.6 87.2,98.6 142.7,133.9 90.4,58.7 200.4,78.8 306.8,75.6 -63.7,134.1 -59.7,295.7 6.4,428.1 17.2,32.8 41.5,61.2 59.5,93.5 -1.9,21.1 -18.7,37.1 -29.9,53.9 -78.6,110.6 -204.6,185.3 -338.7,204.3 -139.9,16.2 -287.3,-25.9 -393.8,-119.1" /></g><g
         transform="scale(1.30677)"
         id="g38"><path
           id="path40"
           style="fill:#5e2791;fill-opacity:1;fill-rule:nonzero;stroke:none"
           d="m 12729.6,15540.1 c 171.1,-31 318.4,-153.7 388.4,-311.8 136.8,-19.6 283.3,13.8 393.3,99 105.2,75.1 177.8,192.6 205.5,318.4 40.6,191.8 -35,402.8 -189.6,523.9 -83,70.4 -190,107.4 -297.8,113.9 -165.7,16.5 -332,-60 -440.6,-183.7 28.4,-74 51.1,-151.6 51,-231.7 3.1,-111.1 -39.9,-218.3 -101.8,-308.9 -2.2,-4.8 -6.3,-14.3 -8.4,-19.1" /></g><g
         transform="scale(1.31478)"
         id="g42"><path
           id="path44"
           style="fill:#5e2791;fill-opacity:1;fill-rule:nonzero;stroke:none"
           d="m 12194.7,16284.6 c -122,15.4 -247.3,-19.7 -349.2,-86.6 -128.7,-86.7 -217.7,-230.7 -233.1,-385.5 -17.8,-167.9 52,-341.2 179.3,-451.6 71.1,-59.3 156.1,-107.1 248.5,-120.5 36.4,26.3 61.3,66.7 99.1,92.1 108.5,84.6 250.7,120 386.9,105.4 48,-12.9 60.1,48.5 82.9,77.8 93.1,171.6 74.5,392.5 -38.7,550.1 -87.7,120.3 -226.2,206 -375.7,218.8" /></g><g
         transform="scale(1.24029)"
         id="g46"><path
           id="path48"
           style="fill:#5e2791;fill-opacity:1;fill-rule:nonzero;stroke:none"
           d="m 13596.9,16174.4 c -105.6,86.9 -244.8,125.6 -380.3,119.7 -158.4,-9.2 -308.5,-92.1 -406.8,-215.6 -70.5,-93.2 -113.6,-208 -118.2,-325.1 -1.9,-127.9 34.3,-258.7 114.9,-359.8 108.5,-144.5 291.5,-230.6 472.2,-220.3 145.3,8.1 288.1,72.3 385.9,181.1 139.4,146.6 182.3,374.5 116.8,564.4 -37.3,99.7 -98.6,191.5 -184.5,255.6" /></g><g
         transform="scale(1.32039)"
         id="g50"><path
           id="path52"
           style="fill:#f68714;fill-opacity:1;fill-rule:nonzero;stroke:none"
           d="m 16173.6,13430.8 c -35.4,15.4 -74.9,4 -110.2,-5.9 -74.4,-22.9 -144.7,-56.8 -214.3,-91.2 -189.7,-96.5 -371.8,-207 -552.2,-319.6 -170.8,-108.1 -341,-217.5 -507.2,-332.4 30.6,-6.5 60.6,-15.5 90,-26.1 275.2,185.2 552.8,367.1 840.1,533.3 94.7,53.6 190,106.8 290.5,149 35.5,13.7 71.7,28.4 110.1,30.8 26.6,-1.3 51.5,-15.5 70.6,-33.5 25.7,-24.3 32.3,-62.4 27.2,-96.2 -10.8,-76.1 -55.7,-144.8 -117.5,-189.8 28.1,-4.4 54.9,-14.3 79.6,-28.4 45,41.1 77.9,94.4 97,152 16.9,51.6 22.7,109.9 1.3,161.1 -18.6,45.8 -59.6,79.4 -105,96.9" /></g><g
         transform="scale(1.31298)"
         id="g54"><path
           id="path56"
           style="fill:#f68714;fill-opacity:1;fill-rule:nonzero;stroke:none"
           d="m 16081.9,13026.1 c 46.6,0.5 100.7,-0.7 134.8,-37.3 27.7,2.3 55.5,4.4 83.3,5.9 -8.4,34.6 -32.2,65 -65.4,78.6 -63.5,26.7 -134.8,20.1 -201.3,10.8 -140.9,-23.1 -276.3,-71.4 -407.5,-126.4 -85.8,-37.6 -172.3,-75.7 -250.6,-127.7 117.8,48.5 238.2,90.7 360.3,127.1 113.2,32.5 228.2,63.6 346.4,69" /></g><g
         transform="scale(1.22179)"
         id="g58"><path
           id="path60"
           style="fill:#f68714;fill-opacity:1;fill-rule:nonzero;stroke:none"
           d="m 16232.3,13469.3 c 26,-39.3 30.1,-88.2 23.7,-134 -160,27.6 -323.2,36.8 -485.6,44.9 -63.9,4.1 -128.6,5.7 -191.5,18.3 -36.8,6.7 -64,34.6 -85.7,62.7 44.7,89.6 136.8,148.3 232.2,171.3 92.2,24.2 189.3,10.5 280,-12.6 88.1,-24.7 177.6,-70.1 226.9,-150.6 z m -929,108.5 c -4.9,-54.5 -35.5,-103 -76.4,-138.1 -21.7,-17.2 -46.5,-33.7 -74.7,-36.4 -34.4,2.3 -74,18.6 -87.2,52.9 -9.7,31.3 1.2,64 16,90.9 32.3,55.2 81.3,103 140.7,126.8 22.1,8.3 51,9.9 67.8,-9.5 18.8,-24.4 17,-57.5 13.8,-86.6 z m 432.5,97.5 c -94.2,-19.1 -184.3,-67.5 -244.9,-143.4 -4.1,44.1 -17.1,87.9 -42.1,125.1 -41.9,64.9 -114.5,108.3 -191.5,116.2 -62.2,8 -126.8,-9.5 -177.8,-45 -46.6,67.7 -91,136.4 -140.2,202 -15.5,22 -43.3,28.2 -68.4,28.4 -45.9,-0.1 -91,-12.7 -134.8,-26.8 -37.8,-13.2 -76.8,-26.6 -111.8,-46.5 70.3,15.4 140.1,37.8 212.7,42.9 25.4,1 56.1,-0.6 71.8,-24.4 48.7,-65.6 93.6,-133.6 139.5,-200.9 -24.4,-23 -43.9,-49.9 -61.5,-78.4 -44.6,32.9 -90.1,67.9 -143.1,85.8 -21.9,9.6 -39.7,-9.4 -53.4,-24.1 -38.3,-41.6 -70.7,-87.9 -103.2,-134 l -1.8,-8.2 c 50.3,31.1 86.2,80.4 130.8,118.3 9.3,5.7 20,17 31.2,10.3 44.5,-20.9 81.9,-53.7 121.8,-82.6 -27.4,-64.5 -42,-133.1 -47.1,-202.5 -4.5,-50.3 0.3,-102.7 18.6,-150.4 21.2,-58.1 67.8,-106.7 125.3,-130.9 44.2,-15.1 92.3,-2.1 135.1,13.1 92.8,35.7 179,97.8 228.3,185 7.6,-44.2 19.4,-88.2 42.3,-126.9 19.8,-33.8 45.4,-63.8 72.1,-92.4 -81.1,-42.1 -160.7,-92.4 -253.4,-102.4 -36.5,-7 -71.7,8.2 -107.3,13.9 36.9,-81.2 73.8,-166.6 72.7,-257.4 1.1,-40.4 -19.5,-76 -28.2,-114.4 -16.1,-56.8 -17.5,-118.5 -45.4,-172.4 -12.7,-24.7 -37.2,-39.4 -61,-50.9 -51.3,-26.1 -92.3,-68.4 -126.2,-113.9 49.4,15.1 97.7,34.2 146,53.1 43.3,16.5 82.1,46.6 104.9,86.6 40.1,66.7 44.7,146.1 70.9,217.8 32.6,83.9 14.2,177 -11.1,260.7 32,4.5 64,10.2 94.2,22.2 72.6,27.7 140.5,66 208.5,103 4.3,-4 8.5,-8.1 12.7,-12.2 -37.2,-32.2 -75.5,-65.2 -119.5,-88.3 -39.5,-14.1 -80.4,-23.6 -117.3,-43.2 21.3,-36 41.8,-71.4 58.7,-109.3 30.1,-69.3 58.1,-144.1 45.2,-220.2 -11.2,-90.7 -32.8,-183 -85.8,-258.9 -54.2,-75.4 -121.2,-141.6 -166,-223.3 47.3,32.6 95.4,64.1 146.5,91.4 37.9,20.4 64.4,56.2 86.6,92.6 37.5,64.4 62,135.7 80.9,207.9 10,45.8 21.6,92.4 19.4,139.7 -3.9,84.2 -36.2,163.7 -72,238.5 76.9,23 136.1,81.4 196.1,131.6 48,-24 101.3,-32.2 154.3,-35.7 47.7,-82.4 96.3,-169.6 176.7,-224.8 -22.3,-81.1 -39.8,-165.6 -32.4,-249.8 4.7,-55.3 27.4,-107.8 55.2,-155.2 35.8,-59.4 76.6,-117.3 131.3,-161.1 28,-22.3 57.1,-43.9 88,-61.7 -55.9,91.9 -112.3,183.7 -159.9,280.6 -18.2,38.8 -38.4,79.8 -37.6,124 -1.7,85.1 20.1,169.1 47.2,249.8 -29.6,25.1 -61.4,48.1 -90.6,74.4 -35.9,37.9 -62.9,83.7 -89.7,128.3 60.7,8.5 118.7,30.3 171.7,60.8 40.8,20.9 73.7,54.1 99.3,91.7 54.5,81.4 88,177.4 90.2,275.6 2.5,63.7 -28,123.9 -72.1,168.1 -67.6,68.6 -160.7,106.3 -253.9,126 -77.1,15.7 -157.7,23.2 -235.7,7.1" /></g><g
         transform="scale(1.35593)"
         id="g62"><path
           id="path64"
           style="fill:#f68714;fill-opacity:1;fill-rule:nonzero;stroke:none"
           d="m 16250.5,12175.1 c 39.4,41.2 49.5,101.1 48.6,156 -0.3,51.8 -24,102.7 -64.4,135.2 -57.5,47.2 -132.4,65.2 -204.6,75.5 -131.5,17 -264.7,7.4 -396.1,-5.9 -153.3,-15.7 -305.7,-38.8 -457.6,-64.8 -213.6,-33.6 -418.7,-104.7 -621.8,-176.7 12.6,-7.5 25.1,-15.1 37.5,-23.1 72.2,31.8 151.9,38.4 229.7,39.3 115.1,35.5 231.2,69.2 350.3,87.7 147.3,25.7 295.3,48.2 444,64.3 134,15.5 270,30.2 404.7,13.1 53.2,-7.9 108.2,-20.3 152.3,-52.8 31.5,-23 52.9,-60.1 53.8,-99.5 1.4,-39.6 -6.4,-84.2 -38.5,-111.1 -45.8,-38.9 -107.4,-50.6 -165.4,-58 17,-19.7 32.8,-40.5 45,-63.7 66.1,12.7 134.9,34.5 182.5,84.5" /></g><g
         transform="scale(1.33609)"
         id="g66"><path
           id="path68"
           style="fill:#f68714;fill-opacity:1;fill-rule:nonzero;stroke:none"
           d="m 16181.7,12083.5 c 44.2,12.4 90.7,38.7 105.4,85.1 12.9,41.9 -7.5,84.7 -32,117.9 -45.9,60.2 -112,101.3 -179.7,132.9 -100.6,45.8 -210.6,68.4 -320.6,75.2 -128.6,7.2 -259.6,-5.1 -382.5,-44.8 154,-3.7 308.8,-7.4 461.3,-32.2 103.3,-18 206,-50.9 293.7,-109.8 36.8,-25.9 73.7,-57.2 89.9,-100.5 7.7,-18.1 -8.3,-34.1 -23.1,-41.7 -41,-21.8 -89,-23.2 -134.4,-22.2 -106.9,5.5 -210.8,36.1 -310.6,73.2 -86.6,32.3 -170.1,72.3 -252.8,113.5 -112.9,53 -231.3,97 -354.8,117.3 -100,16.6 -205.2,16.8 -301.6,-17.7 19,-17.5 36.8,-36.3 52.6,-56.8 51.6,14.8 105.9,17.9 159.2,14.6 116.6,-7.9 229.4,-43.5 336.8,-88 76.5,-31.5 148.8,-72 224.6,-104.9 107.7,-47.3 219.2,-88.2 335.1,-110.3 76.8,-13.7 157.1,-21 233.5,-0.8" /></g><g
         transform="scale(1.25216)"
         id="g70"><path
           id="path72"
           style="fill:#f68714;fill-opacity:1;fill-rule:nonzero;stroke:none"
           d="m 16155.7,13143.8 c 36.6,0 74.6,-7.9 104.8,-29.3 -2.8,-55.2 -12.6,-110.3 -25,-164.1 -83.9,32.6 -170.1,59 -258.2,78.2 0.8,31.6 -0.7,63.3 -7.4,94.3 61.4,12.1 123.4,21.4 185.8,20.9 z m -342.7,-424.3 c -41.8,-48 -100.9,-76.1 -158.8,-99.9 27,-66.7 56.3,-134.2 100.4,-191.2 33.7,-43.6 87.9,-72.8 142.9,-70.9 64.8,83 128.9,166.1 191,251 51.4,72.2 105.2,143.7 145.5,222.9 43.2,94.3 60.3,198.8 66,302.2 -39.8,33.8 -94.6,49 -146.3,48.3 -78.6,0.2 -157.3,-14.1 -233.8,-30.9 28,-61.9 22.5,-133.2 8.3,-197.8 -19.6,-85.2 -57.1,-168 -115.2,-233.7" /></g><g
         transform="scale(1.28151)"
         id="g74"><path
           id="path76"
           style="fill:#f68714;fill-opacity:1;fill-rule:nonzero;stroke:none"
           d="m 16200.7,12626.2 c 28.3,-23.3 63.8,-53.5 58.9,-94.1 -3.7,-48.4 -7.9,-96.8 -16.2,-144.8 -28.3,31.3 -56.6,62.6 -88.3,90 16.6,49.3 31.4,98.9 45.6,148.9 z m -251.8,-756.8 c 15.9,4.2 33.3,5.3 45,17.4 51.2,49.7 99.9,101.3 145.8,155.7 31.9,39.3 64.3,78.6 83.6,124.9 21.1,50 34.3,102.2 45.3,154.6 12.7,60 22.3,121.2 26.1,182.7 0.4,18.8 5.3,37.9 2.4,56.1 -19.3,57.2 -68.3,96.6 -119.8,123.7 -25.1,-99.6 -56.1,-197.8 -94.5,-292.6 -36.8,-93.5 -96,-175.2 -155.6,-254.6 -53,-70.5 -110.7,-136.6 -167,-204.2 25.2,-22.7 53,-43.8 83.8,-58.3 32.6,-15.8 70.6,-11.5 104.9,-5.4" /></g><g
         transform="scale(1.30419)"
         id="g78"><path
           id="path80"
           style="fill:#f68714;fill-opacity:1;fill-rule:nonzero;stroke:none"
           d="m 16145.9,11835.8 c 3.4,-21.7 7,-43.6 7.1,-65.9 -6,17 -11.6,34.5 -16.6,51.6 3.2,4.9 6.3,9.4 9.5,14.3 z m 4.4,-182.1 c 49.7,-41.7 99.1,-84.8 149.7,-125.2 -34.8,60.3 -70.7,120.6 -106,180.8 -8.6,11.5 -4.6,25.6 -4.4,38.4 1.8,61.9 -11.8,122.9 -28,182.3 -56.6,-90.1 -112.7,-180 -174.9,-266.5 53.5,-10 109.3,-22.9 163.6,-9.8" /></g><g
         transform="scale(1.26913)"
         id="g82"><path
           id="path84"
           style="fill:#f68714;fill-opacity:1;fill-rule:nonzero;stroke:none"
           d="m 16163.4,12886.6 c 33.2,-9.7 68.8,-20.7 93.1,-46.7 -15.1,-56.4 -29.1,-112.6 -48,-167.3 -25.9,14.8 -51.6,28.6 -77.9,42.1 14.6,56.3 26.7,113.4 32.8,171.9 z m -393.5,-791.1 c 29.7,-17.1 64.5,-23 97.9,-23.4 16.3,12.9 29,30.4 42.6,45.8 52.8,61.2 104.3,124 152.5,189.1 50.5,69 101.2,140.3 132.5,220.5 41.4,100.8 73.5,205.9 99.2,311.6 5.4,12.4 -6.3,20.8 -13.3,28.9 -14.3,14.4 -31.3,26.6 -50.3,34.5 -32.1,13.8 -66.4,27.9 -102.3,22.1 -5.7,-76.1 -19.5,-151.8 -42.9,-224.5 -29.3,-90.2 -87.7,-166.8 -140.8,-244.2 -69.2,-96 -140.3,-190 -213.5,-282.1 -3.2,-5.1 -8.7,-10 -9.5,-16.5 7.6,-25.8 25,-48.3 47.9,-61.8" /></g><g
         transform="scale(1.29253)"
         id="g86"><path
           id="path88"
           style="fill:#f68714;fill-opacity:1;fill-rule:nonzero;stroke:none"
           d="m 16225.9,12276.7 c 27.2,-36.2 34.1,-83.1 36.7,-127.2 1.7,-21.7 -11.2,-40.1 -20.6,-58.5 -12.4,24.5 -26.8,47.5 -40.3,71.9 10.5,37.2 16.1,75.9 24.2,113.8 z m -160.7,-520.2 c 63.5,82.9 119.4,171.3 175.1,259.7 21.9,36.2 46.7,71.7 58.8,112.6 0.9,40.2 -3.4,81.8 -16.8,119.7 -15.6,44.3 -48.8,79.1 -83,110.3 -10.2,-81.2 -24.3,-162.4 -46.8,-240.9 -15.3,-49.3 -32.8,-98.4 -63.4,-139.9 -56.1,-79.5 -123.9,-149.5 -192.5,-217.9 50.1,-34.9 115.4,-26.7 168.6,-3.6" /></g><g
         transform="scale(1.57017)"
         id="g90"><path
           id="path92"
           style="fill:#80cc2a;fill-opacity:1;fill-rule:nonzero;stroke:none"
           d="m 12566.8,7713.07 -12.7,-0.32 c 0.8,-18.34 0.9,-36.81 0.6,-55.28 2.5,-2.74 5.1,-5.41 7.7,-8.15 l 44,-43.56 3,-2.42 2.3,-2.17 c 6.8,-6.43 12.3,-11.97 17,-17.7 43,-43.69 75.4,-94.2 96.3,-150.43 19.5,-38.03 33.9,-77 44.6,-115.41 257.9,297.49 431.1,573 540.1,856.98 l 20.3,52.99 56.6,2.93 c 7.9,0.38 15.7,0.57 23.5,0.57 134.4,0 206.7,-64.64 243.6,-118.84 l 25.8,-37.83 -16.5,-42.79 c -105,-270.87 -256.9,-526.64 -453.8,-764.83 1004.9,316.02 2033.9,554.98 3076,711.39 7.4,109.42 12.6,219.34 14.8,329.2 -239.8,7.39 -479.6,18.28 -719.5,20.06 -1045.1,10.45 -2091,-57.89 -3126,-204.11 50.7,-123.37 91.1,-259.27 99,-399.9 l 13.3,-10.38" /></g><path
         id="path94"
         style="fill:#80cc2a;fill-opacity:1;fill-rule:nonzero;stroke:none"
         d="M 7257.14,8350.9 C 6014.18,7593.9 4821.5,6753.9 3690.96,5836.7 4610.45,4662.5 5737.39,3658.8 7012.22,2882.4 8005.65,3910.7 9058.64,4880.9 10176.7,5773 c 404.7,325.2 817.4,640.3 1237.4,945.2 -1335.2,67 -2538.38,439 -3501.37,1086 -253.95,181.8 -471.66,363.2 -655.59,546.7" /><g
         transform="scale(1.56126)"
         id="g96"><path
           id="path98"
           style="fill:#80cc2a;fill-opacity:1;fill-rule:nonzero;stroke:none"
           d="m 12482.4,4675 c -0.1,0 0,0 -0.1,0 -22.1,0 -44.1,1.15 -66,3.13 C 11063.7,3513.44 9858.68,2176.19 8842.39,707.312 12577.3,846.365 15718.9,3628.79 16300,7322.91 15199.4,6745.43 14152.9,6066.56 13174.2,5300.45 c -15.1,-161.53 -82.8,-313.4 -200,-425.62 C 12849,4746.67 12673.6,4675 12482.4,4675" /></g><path
         id="path100"
         style="fill:#80cc2a;fill-opacity:1;fill-rule:nonzero;stroke:none"
         d="m 5761.89,11868.4 -51.18,74.7 48.8,76.4 c 73.8,115.4 174.48,198 276.95,260.3 l 179.91,112.9 c 38.15,15.2 115.8,45 153.95,59.6 l 181.49,69.3 4.25,-194.3 c 0.99,-45.3 4.48,-90.1 9.43,-134.3 l 4.13,-51.2 8,-35.1 c 50.84,-296 188.89,-557.6 387.77,-730.8 39.14,-111.6 122,-131.6 240.91,-76.2 140.01,-7.3 274.97,-35.4 406.17,-63.4 -83.06,584.4 -131.08,1236.1 1.76,1866.8 -2.81,0.4 -5.61,0.8 -8.42,1.1 -2157.34,282.1 -4348.24,273.9 -6507.63,13 0.69,-72.5 3.43,-145.1 6.17,-216.3 4.1,-139 11.63,-281.4 21.91,-427.2 1605.35,-111.1 3200.13,-376.2 4756.65,-786.8 l -37.41,56.4 c -27.65,41.9 -55.33,83.8 -83.61,125.1" /><g
         transform="scale(1.56815)"
         id="g102"><path
           id="path104"
           style="fill:#1f6632;fill-opacity:1;fill-rule:nonzero;stroke:none"
           d="m 13153.9,6862.56 c 284.3,-182.64 393,-623.86 210.9,-926.26 -63.6,-118.73 -174.5,-216.94 -311.1,-276.82 22.4,-51.33 39.1,-104.2 50,-157.45 988.2,722.64 2039.7,1358.17 3140.4,1893.51 5.7,40.62 11.4,81.24 16.6,122.25 16.2,127.09 29.3,255.01 39.3,383.76 -1127.1,-201.63 -2236.7,-498.99 -3314.3,-885.82 -18.1,-17.66 -36.3,-35.26 -55,-52.67 77.1,-19.64 154,-49.87 223.2,-100.5" /></g><g
         transform="scale(1.16493)"
         id="g106"><path
           id="path108"
           style="fill:#1f6632;fill-opacity:1;fill-rule:nonzero;stroke:none"
           d="m 15496.9,6175.55 c -14.5,0 -29,0.43 -43.6,1.2 -7.9,-0.34 -15.6,-0.43 -23.3,-0.43 -206,0 -385.4,91.77 -530.1,191.6 -194.4,-241.9 -449.8,-378.3 -715.1,-378.3 -6.6,0 -13.3,0 -19.9,0.17 -19.3,-1.55 -38.3,-2.32 -57.3,-2.32 -199.6,0 -374.8,81.29 -534.7,180.27 -120.6,-119.75 -288.7,-251.95 -503,-293.49 -66.7,-18.38 -136.4,-27.65 -206.9,-27.65 -202.1,0 -416.9,77.44 -612.3,219.07 -67.2,-38.8 -134.7,-79.49 -200.6,-119.23 -284.9,-171.77 -579.4,-349.46 -920.4,-420.71 -35,-8.76 -70.3,-13.31 -105.4,-13.31 v 0 c -159.9,0 -312.3,92.71 -426.4,256.58 -23.8,-1.28 -47.6,-2.57 -71.4,-3.6 C 9072.29,4710.31 7722.41,3512.39 6493.71,2200.99 7929.51,1424.03 9558.66,972.075 11275.4,942.115 12701,2961.54 14397.4,4787.92 16300,6363.63 c -52.4,25.24 -102.2,54.85 -148.7,88.93 -158.5,-139.58 -383.6,-277.01 -654.4,-277.01" /></g><path
         id="path110"
         style="fill:#1f6632;fill-opacity:1;fill-rule:nonzero;stroke:none"
         d="m 6467.73,10547.1 c -166.31,250.9 -293.11,523.2 -416,787.1 -6.01,12.9 -12.12,25.9 -18.16,38.9 -1595.75,479.2 -3237.64,804.2 -4896.36,960.2 26.01,-317.7 64.35,-631.2 115.02,-941.4 1852.67,-721.6 3619.76,-1667.1 5252.66,-2802.3 122.64,72.7 245.71,144.6 369.11,216 -172.9,251.3 -289.22,510.4 -353.61,783.9 -114.83,325.2 -94.17,663.2 -52.66,957.6" /><path
         id="path112"
         style="fill:#80cc2a;fill-opacity:1;fill-rule:nonzero;stroke:none"
         d="m 1278.93,11233.8 c 312.89,-1782.9 1016.02,-3432.2 2014.93,-4860.4 947.57,729.2 1927.3,1417.2 2943.33,2047.1 -1491.86,1082.5 -3103.54,1999.9 -4791.2,2740.7 -56.15,22.6 -111.6,47.2 -167.06,72.6" /><g
         transform="scale(1.07566)"
         id="g114"><path
           id="path116"
           style="fill:#4dbb38;fill-opacity:1;fill-rule:nonzero;stroke:none"
           d="m 12349.2,15118.7 c -80.8,-127.3 -166.1,-250.8 -253.3,-373.7 297.8,-86.5 633.3,-77.6 926.1,23.6 547.4,312.5 684.2,973.8 847.8,1531.4 -478.6,-90.4 -1006.3,-91.6 -1409.2,-400.4 -271.1,-166.7 -393.4,-497.1 -396.5,-803.2 8.2,-54.1 25.4,-161.7 33.7,-215.8 82.1,81.5 164.9,161 251.4,238.1" /></g><g
         transform="scale(1.01613)"
         id="g118"><path
           id="path120"
           style="fill:#191716;fill-opacity:1;fill-rule:nonzero;stroke:none"
           d="m 12444.6,14995.6 c 175.9,-26.9 348.4,10.8 512.7,70.1 -72.7,8.1 -144.8,15.5 -217.6,21.6 l -3.3,80.1 c -25,159 -69.5,324.1 68,441.4 92.3,130 182.7,260.7 268.2,395.5 -91.6,-81.6 -179.2,-165.8 -266.1,-252.1 -8.8,57.3 -27,171.2 -35.8,228.5 l -2,10.8 c -16.2,-142.2 47.8,-324.8 -103.7,-412.4 -56.6,207.5 -104.5,429.9 -247.4,598.3 -46.4,64 -145.5,122.6 -213.5,38.5 278.3,-272.9 371.2,-661.1 436.5,-1031 6.1,-37.7 19.6,-111.8 26.3,-148.9 -74.1,-12.8 -148.2,-26.3 -222.3,-40.4" /></g><path
         id="path122"
         style="fill:#191716;fill-opacity:1;fill-rule:nonzero;stroke:none"
         d="m 10935.8,13791.6 c -21.2,21.9 -63.6,65 -84.9,86.9 -7.5,15.8 -21.9,47.3 -28.7,63 54.7,275.9 162.9,545 308.8,785.3 68.4,116.4 219,182.8 249.2,317 l -90.4,33.5 c -373.1,-254.6 -465.6,-734.6 -588.8,-1139.2 -43.8,28.7 -132.1,86.3 -176,115 93.8,-148.6 238.3,-234.8 410.8,-261.5" /><path
         id="path124"
         style="fill:#191716;fill-opacity:1;fill-rule:nonzero;stroke:none"
         d="m 16001.6,14565.2 c -8.9,-63.6 -23.3,-127.3 -68.5,-176.6 -119.1,246.5 -223.2,673.7 -563.5,649.7 246.5,-268.4 445.8,-575.1 541.6,-931.8 26,-79.4 51.4,-159.5 77.4,-238.9 -47.3,-15.1 -141.8,-45.2 -188.3,-60.3 143.1,17.1 286.2,37 429.3,56.8 -131.5,19.9 -203.4,95.9 -215,228.7 -44.5,119.8 -53.4,243.8 31.5,347.8 79.4,154.1 167,303.3 248.5,456 -98.6,-109.5 -196.5,-219.8 -293,-331.4" /><g
         transform="scale(1.20725)"
         id="g126"><path
           id="path128"
           style="fill:#5d133e;fill-opacity:1;fill-rule:nonzero;stroke:none"
           d="m 15880.9,10001.1 c 144,-47.66 279,-119.15 419.1,-176.97 -21.6,23.2 -64.7,69.17 -86.2,91.87 -51.1,31.72 -103.8,58.97 -158.2,82.25 -43.7,0.5 -131.1,2.25 -174.7,2.85" /></g><g
         transform="scale(1.00463)"
         id="g130"><path
           id="path132"
           style="fill:#4dba38;fill-opacity:1;fill-rule:nonzero;stroke:none"
           d="m 10633.9,14434.7 c -62,160.1 -143.1,312.1 -218,466.8 92.6,-105.6 184.6,-211.2 279.4,-314.9 l 51.7,-57.2 c 53.3,409.6 18.4,899.6 -333.1,1174.3 -394,374.1 -952.81,432.7 -1446.23,596.3 130.86,-491.4 126.09,-1042.8 451.84,-1460.5 246.7,-397.3 782.99,-538.3 1214.39,-404.8" /></g><g
         transform="scale(1.08985)"
         id="g134"><path
           id="path136"
           style="fill:#4dba38;fill-opacity:1;fill-rule:nonzero;stroke:none"
           d="m 14912.8,14394.7 c -295.1,-250.7 -278.3,-681 -230.4,-1030.3 88.5,102.4 178.3,203.6 268.8,304.1 -74.8,-140.2 -155.2,-277.1 -228,-418.5 376.9,-20.7 834.9,-20 1088,311 366.9,400.2 376.9,966.8 488.8,1468.2 -20.1,-16.3 -60.4,-48.5 -80.5,-64.8 -460.4,-114.3 -969.9,-203.5 -1306.7,-569.7" /></g><path
         id="path138"
         style="fill:#b5dd25;fill-opacity:1;fill-rule:nonzero;stroke:none"
         d="m 10809.9,11474 c -90.4,-551.8 -108.2,-1163.2 232.7,-1639 306.1,-167.1 668.3,-98.6 1001.7,-100 191.7,471.7 647.7,855.1 1181,806.5 104.8,1.4 209.5,-0.7 314.3,-2.7 0.7,87.6 0.7,175.9 1.3,262.9 254,-140.4 504.6,-289.6 771.6,-404 2.8,106.9 5.5,213.7 7.6,320.5 -163.7,343.7 -127.4,730.5 -117.8,1098.8 22.6,485.5 255.4,927.7 510.8,1328.9 -393,494.4 -624.4,1087.3 -938,1628.8 -152.7,218.4 -329.3,484.1 -608.7,534.1 -167,-60.3 -342.3,-98.6 -521,-71.2 75.3,14.3 150.6,28 225.9,41 -6.8,37.7 -20.5,113 -26.7,151.3 -167.7,-17.1 -369.7,-2 -484.7,-151.9 -308.8,-398.5 -401.9,-910 -564.8,-1376.2 -128.7,-364.9 -199.9,-753.1 -400.6,-1089.3 -249.2,-419 -495.6,-853.1 -584.6,-1338.5" /><path
         id="path140"
         style="fill:#a0cf1e;fill-opacity:1;fill-rule:nonzero;stroke:none"
         d="m 13166.4,15308.8 c 279.4,-50 456,-315.7 608.7,-534.1 313.6,-541.5 545,-1134.4 938,-1628.8 51.3,69.9 103.3,139 160.2,204.1 -302,488.8 -588.1,987.2 -902.4,1468.6 -140.4,203.3 -276.6,417.6 -473.1,571.6 -156.8,131.5 -381.3,89.7 -555.9,21.9 l 3.4,-81.4 c 73.9,-6.2 147.2,-13.7 221.1,-21.9" /><path
         id="path142"
         style="fill:#2e6b2f;fill-opacity:1;fill-rule:nonzero;stroke:none"
         d="m 10683.2,14501.6 c 30.1,20.5 90.4,62.9 120.5,83.5 l -58.9,69.1 c -95.2,104.1 -187.6,210.2 -280.7,316.3 75.3,-155.4 156.8,-308.1 219.1,-468.9" /><path
         id="path144"
         style="fill:#d51e26;fill-opacity:1;fill-rule:nonzero;stroke:none"
         d="m 8421.78,10853 c -107.49,99.3 -273.17,164.4 -303.98,321.8 -57.51,231.4 -46.56,472.4 -47.24,708.6 10.27,397.1 -33.55,807.9 106.8,1187.9 123.24,420.4 385.46,802.4 744.91,1053.7 249.21,106.1 528.55,110.9 792.14,164.3 178.01,50.7 334.09,-67.1 494.29,-124.6 41.1,2.1 124,7.5 165.7,10.3 -475.14,343.7 -1131.71,482.7 -1681.49,242.3 -450.5,-196.4 -743.53,-635.3 -881.84,-1093.3 -219.08,-735.4 -151.3,-1513.8 -34.23,-2260.8 190.33,-58.9 370.4,-142.4 555.26,-214.9 l 89.68,4.7" /><path
         id="path146"
         style="fill:#e61e25;fill-opacity:1;fill-rule:nonzero;stroke:none"
         d="m 9714.41,14289.3 c -263.59,-53.4 -542.93,-58.2 -792.14,-164.3 -359.45,-251.3 -621.67,-633.3 -744.91,-1053.7 -140.35,-380 -96.53,-790.8 -106.8,-1187.9 0.68,-236.2 -10.27,-477.2 47.24,-708.6 30.81,-157.4 196.49,-222.5 303.98,-321.8 l -89.68,-4.7 c 282.76,-127.4 562.09,-260.9 848.97,-378 36.97,-16.4 110.22,-49.3 147.2,-65.7 17.8,-8.2 54.08,-26 71.88,-34.2 124.61,-58.2 249.9,-112.3 376.56,-164.4 412.19,-147.2 820.89,-361.5 1265.89,-371 -340.9,475.8 -323.1,1087.2 -232.7,1639 89,485.4 335.4,919.5 584.6,1338.5 200.7,336.2 271.9,724.4 400.6,1089.3 -319.8,74.6 -648.4,53.4 -972.9,39.7 6.8,-15.7 21.2,-47.2 28.7,-63 21.3,-21.9 63.7,-65 84.9,-86.9 -172.5,26.7 -317,112.9 -410.8,261.5 -27.3,30.8 -82.8,93.1 -110.2,124.6 l -40.4,-2.7 c -41.7,-2.8 -124.6,-8.2 -165.7,-10.3 -160.2,57.5 -316.28,175.3 -494.29,124.6" /><g
         transform="scale(1.20237)"
         id="g148"><path
           id="path150"
           style="fill:#ef8b13;fill-opacity:1;fill-rule:nonzero;stroke:none"
           d="m 14979.5,11613.8 c 154.4,-212.4 370.2,-365.6 579.1,-519.9 127,-222.7 246,-450.4 331.5,-692.4 29,-102.5 121.2,-160.6 200.4,-222.6 -172,-4 -346.8,-17.2 -505.7,-88.9 32,5.7 96.3,17.1 128.2,22.8 44.4,-0.6 132.1,-2.3 175.9,-3.5 78,-19.3 156.6,-40.9 231.8,-70.5 54.6,-23.4 107.6,-50.73 158.8,-82.58 20.5,307.48 -106.4,608.08 -247.1,875.78 -476.6,865.4 -1604,1277.7 -2532.2,957.2 394.6,-55.8 793.8,-22.8 1190.7,-45.6 30.1,-146.4 164,-157.2 288.6,-129.8" /></g><g
         transform="scale(1.18692)"
         id="g152"><path
           id="path154"
           style="fill:#f79710;fill-opacity:1;fill-rule:nonzero;stroke:none"
           d="m 13673.7,11680.7 c -120.6,-16.6 -241.1,-33.4 -361.7,-47.8 39.2,12.7 118.8,38.1 158.7,50.8 -21.9,66.9 -43.3,134.4 -65.3,201.3 -310.2,-186.3 -620.6,-375 -874.4,-637.4 -47.9,-54.9 -91.7,-113.1 -135,-172 -215.1,-338 -411.3,-710.5 -430.3,-1119.58 -8.1,-310.3 -38.7,-636.18 99.2,-925.76 47.3,234.73 77.3,472.99 93.5,711.76 26.5,-15 80.1,-44.4 107.2,-59.4 21.4,-298.25 -31.7,-597.6 -73.8,-892.31 214.6,39.77 432.6,64.54 651.9,59.4 56.5,0 112.9,-1.18 169.5,-2.36 7,-74.98 13.9,-149.97 20.8,-225.54 l 23.1,21.91 c -45,356.55 112.4,734.33 453.9,884.3 153.4,68.08 323.6,80.21 488.6,54.26 -67.5,342.65 -0.6,734.82 305.7,943.12 335.1,267.1 884.3,181.1 1126,-171.4 42.7,-73.8 84.2,-148.2 124,-223.7 43.3,17.8 87.1,35.8 131.5,52.4 24.9,9.8 75.6,28.9 101,38.7 160.9,72.6 338,85.9 512.2,90 -80.2,62.8 -173.6,121.7 -203,225.5 -86.6,245.2 -207.1,475.9 -335.8,701.4 -211.6,156.4 -430.3,311.5 -586.6,526.7 -126.3,-27.7 -261.9,-16.8 -292.5,131.5 -402,23.1 -806.3,-10.4 -1206.1,46.2 -69.2,4 -130.4,-19.1 -183.4,-69.3 9.7,-111.9 70.3,-175.9 181.1,-192.7" /></g><g
         transform="scale(1.30831)"
         id="g156"><path
           id="path158"
           style="fill:#3d271b;fill-opacity:1;fill-rule:nonzero;stroke:none"
           d="m 15256.1,8231.63 c 149.6,-29.27 298.2,-64.89 448.4,-90.5 -127.2,93.1 -284.6,120.31 -437,139.19 446.9,378.35 819.6,847.2 1032.5,1396.69 -53.9,79.03 -137.6,101.05 -228.7,96.31 -177.4,-462.58 -478.2,-862.41 -813.2,-1222.42 -9.4,113.5 -28.8,226.55 -82.1,328.06 7.8,-218.76 96.8,-426.97 80.1,-647.33" /></g><path
         id="path160"
         style="fill:#3d271b;fill-opacity:1;fill-rule:nonzero;stroke:none"
         d="m 6397.95,12155.9 c -37.66,32.2 -76,64.4 -114.34,95.9 -158.16,-68.5 -312.89,-156.1 -408.74,-306.1 43.14,-62.9 84.9,-127.3 127.35,-191 -10.27,31.5 -31.5,94.5 -41.77,126 144.47,93.1 291.67,184.2 437.5,275.2" /><g
         transform="scale(1.12366)"
         id="g162"><path
           id="path164"
           style="fill:#7c1755;fill-opacity:1;fill-rule:nonzero;stroke:none"
           d="m 14983.9,10389.8 c 26.8,-184 163.9,-329 318.7,-420.44 127.9,29.28 198.6,159.04 297.3,235.84 174.9,181.5 441.1,187.1 674.5,210.8 -9.7,174.3 2.5,347.9 25.6,520.9 -255.3,372.4 -835.4,463.1 -1189.3,181 -68.9,-235.2 -185.9,-478.3 -126.8,-728.1" /></g><g
         transform="scale(1.21376)"
         id="g166"><path
           id="path168"
           style="fill:#7c1755;fill-opacity:1;fill-rule:nonzero;stroke:none"
           d="m 15969.5,9944.63 c -74.5,29.33 -152.4,50.75 -229.7,69.87 -29.3,-85.11 -145.5,-78.93 -174.2,3.5 -31.6,-5.7 -95.3,-17 -127,-22.62 -24.8,-9.64 -74.4,-28.26 -98.7,-37.81 37.3,1.15 111.7,3.37 149,4.53 -113.5,-87.42 -328.3,-148.96 -247.1,-334.5 89.6,-146.65 270.2,-214.95 360.5,-364.41 89,-153.98 109.4,-334.49 146.6,-505.45 207,4.53 375.1,152.91 476.6,322.14 74.5,210.42 34.5,438.8 26.6,655.98 -4,5.35 -8.7,9.72 -14.6,15.24 l -24.9,20.35 c -139.3,57.51 -273.6,128.61 -416.9,175.98 43.4,-0.58 130.3,-2.31 173.8,-2.8" /></g><g
         transform="scale(1.0536)"
         id="g170"><path
           id="path172"
           style="fill:#7c1755;fill-opacity:1;fill-rule:nonzero;stroke:none"
           d="m 15141.4,9527.61 c 100.7,-93.59 230,-144.27 353.5,-200.17 160.5,298.31 462,464.69 790.2,508.16 -2,206.6 14.9,430.2 -90.4,617.4 -113.7,143.6 -273.5,241.7 -423.6,341.8 -185.9,29.2 -377.6,15.6 -550.4,-61.1 -80.6,-151.4 -202.8,-273.6 -294.4,-415.9 -50.1,-272.9 -16.9,-606.25 215.1,-790.19" /></g><g
         transform="scale(1.29327)"
         id="g174"><path
           id="path176"
           style="fill:#5d133e;fill-opacity:1;fill-rule:nonzero;stroke:none"
           d="m 15219,7738.68 c 75.7,-210.17 65.1,-481.26 -106.9,-642.71 -120.7,-143.98 -320.3,-188.44 -500.3,-180.01 -187.4,14.3 -325.6,163.07 -434.1,302.33 -53,91.01 -127.1,228.18 -35.5,319.19 90.6,57.69 205.9,65.11 292.8,129.21 127,112.2 216.5,258.34 309.6,398.06 204.4,-15.85 369.6,-158.28 474.4,-326.07 z m 429.9,-954.02 c 63,-266.3 -46.6,-598.71 -314.5,-708.28 -216,-118.07 -489.7,-58.76 -677.6,85.21 -126.6,123.33 -165.2,301.25 -149.3,472.21 158.8,7.97 325.6,-3.17 474.8,61.4 117,49.8 202.9,151.4 317.7,204.36 119.1,-2.08 280,2.64 348.9,-114.9 z M 13509,6134.06 c -94.7,104.86 -137.1,246.2 -123.3,385.93 278.5,41.28 489.1,233.43 635.3,462.7 103.2,-93.72 224.4,-172.59 307.6,-285.87 11.1,-191.14 9.5,-384.37 59.8,-571.26 -227.2,-240.86 -663.3,-249.29 -879.4,8.5 z m -736.3,1009 c -178,366.9 160.3,828.52 563.7,789.39 116.6,-199.11 320.8,-300.71 519.4,-398.68 64,-206.99 21.2,-467.42 -155.1,-609.31 -281.1,-254.62 -795.7,-143.97 -928,218.6 z m 361,-1241.97 c -218.6,-189.52 -585.5,-188.98 -788.3,23.35 -37,178.93 -26.5,364.19 -52.4,545.29 157.2,67.19 292.8,173.59 389.1,316.02 145.6,-121.25 310.8,-218.14 494.5,-267.85 0,-202.28 178.4,-477.01 -42.9,-616.81 z m 456.3,2876.27 c 81,84.67 187.5,143.44 300.8,172.59 354.1,102.68 776.1,-233.52 712,-608.85 -16.4,-342 -391.2,-606.13 -718.9,-512.42 -396,78.87 -596.1,662.82 -293.9,948.68 z m 1638,-255.7 c -95.3,-158.83 -253.1,-298.09 -447.3,-302.34 -35,160.45 -54.1,329.86 -137.7,474.38 -84.7,140.26 -254.1,204.37 -338.3,342 -76.2,174.13 125.5,231.89 231.9,313.93 -34.9,-1.08 -104.8,-3.17 -139.8,-4.25 -40.7,-15.31 -80.9,-31.78 -120.7,-48.17 -36.5,69.36 -74.6,137.63 -113.8,205.37 -20.1,-150.32 -30.7,-301.18 -22.3,-452.57 -202.7,-20.65 -434,-25.44 -586,-183.18 -85.7,-66.74 -147.1,-179.47 -258.3,-204.91 -134.5,79.41 -253.6,205.45 -276.8,365.28 -51.5,217.04 50.2,428.29 110.1,632.66 -281.2,-191.15 -342.6,-551.09 -280.6,-865.56 122.3,-81.58 252.5,-161.45 345.1,-278.44 85.8,-152.49 72,-334.66 73.6,-502.99 -267.3,-35.42 -513,-170.97 -643.7,-413.99 -100.6,45.54 -206,86.83 -288,163.07 -189,149.86 -216,421.42 -175.2,643.72 74.6,115.99 174.1,215.5 239.8,338.83 -313.4,-137.64 -457.9,-484.35 -416.7,-811.58 l -21.1,-20.11 c -33.9,-9.51 -101.2,-28.07 -135,-37.58 l 16.9,-7.88 c 40.7,-17.48 122.9,-51.42 163.6,-68.9 108.5,-217.51 286.4,-392.26 529.4,-448.86 14.3,-145.06 63,-314.48 -50.8,-433.63 -101.7,-168.34 -309.7,-186.89 -483.4,-226.56 112.3,-185.81 217.1,-397.6 162,-621.52 -89.5,-370.07 -576,-569.64 -881.4,-316.03 -77.9,-57.22 -158.4,-110.1 -239.9,-161.45 193.8,-158.35 453.2,-266.84 705.2,-195.93 187.4,34.94 336.1,160.98 461.1,297.54 162,-108.02 343.5,-209.09 546.4,-190.61 269.9,-9.51 499.7,167.33 642.1,382.75 150.4,-116.45 325,-222.84 522.5,-214.41 242,-15.31 459,117.61 623.1,283.77 285.9,-269.93 767.7,-276.35 1045.6,7.97 259.9,248.83 268.9,662.81 88.9,959.81 181.1,50.26 346.2,163.54 436.2,331.41 185.3,307.59 109.1,762.33 -199,960.28 l -35.5,-35.41 c 96.9,-166.79 316,-350.51 199.6,-559.05 -92.6,-276.9 -356.8,-498.74 -661.2,-448.94 -8,166.24 4.7,338.83 -49.3,498.66 -73,171.04 -220.7,292.2 -346.1,423.03 113.7,113.28 251.4,202.2 410.2,236.07 17,222.92 -73,433.55 -81,654.85 -20.6,57.76 -53.4,109.65 -99.5,155.11 7.4,-203.82 45,-418.16 -24.9,-615.64" /></g><path
         id="path178"
         style="fill:#edce0a;fill-opacity:1;fill-rule:nonzero;stroke:none"
         d="m 12005.3,8797 c 44.5,281.4 -57.5,562.8 2.7,844.2 -21.9,-60.2 -40.4,-121.2 -55.5,-182.8 -56.1,-207.4 -65,-423.8 -50.6,-637.4 -1035.2,29.4 -2099.17,155.4 -3035.78,626.5 -211.55,95.1 -408.05,219 -579.22,375.1 -478.56,380.7 -1003.69,768.9 -1272.76,1334.4 l -8.9,18.5 c -382.72,243.1 -576.48,708.6 -586.06,1148.9 -37.66,-14.4 -114.35,-43.9 -152,-58.9 l 16.43,-13.7 c 38.34,-31.5 76.68,-63.7 114.34,-95.9 -145.83,-91 -293.03,-182.1 -437.5,-275.2 10.27,-31.5 31.5,-94.5 41.77,-126 198.55,-393 357.39,-810.6 608.65,-1174.8 -47.92,-317.7 -69.83,-643.6 41.08,-951.7 170.48,-736 744.22,-1285.8 1337.13,-1710.3 1291.95,-868.1 2896.82,-1151.6 4429.02,-1056.4 -165.7,401.2 -257.4,827.1 -351.2,1248.8 -49.3,225.3 -97.9,456 -61.6,686.7" /><g
         transform="scale(1.17205)"
         id="g180"><path
           id="path182"
           style="fill:#5d133e;fill-opacity:1;fill-rule:nonzero;stroke:none"
           d="m 16300,10370.9 c -45,1.2 -134.9,3 -180.4,3.6 29.7,-85.3 150,-91.7 180.4,-3.6" /></g><g
         transform="scale(1.16369)"
         id="g184"><path
           id="path186"
           style="fill:#7c1755;fill-opacity:1;fill-rule:nonzero;stroke:none"
           d="m 15429.8,8700.4 c 364.2,-104.15 780.7,189.4 799,569.48 71.2,417.12 -397.7,790.72 -791.3,676.64 -125.9,-32.39 -244.2,-97.7 -334.2,-191.8 -335.9,-317.7 -113.5,-966.66 326.5,-1054.32" /></g><g
         transform="scale(1.21351)"
         id="g188"><path
           id="path190"
           style="fill:#7c1755;fill-opacity:1;fill-rule:nonzero;stroke:none"
           d="m 15383.7,8170.6 c -92.5,-68.31 -215.5,-76.22 -312,-137.7 -97.6,-96.99 -18.6,-243.18 37.9,-340.17 115.6,-148.41 262.8,-306.96 462.6,-322.21 191.8,-8.98 404.5,38.41 533.2,191.85 183.3,172.06 194.6,460.97 113.9,684.95 -111.7,178.82 -287.7,330.61 -505.5,347.51 -99.3,-148.91 -194.7,-304.66 -330.1,-424.23" /></g><g
         transform="scale(1.10442)"
         id="g192"><path
           id="path194"
           style="fill:#7c1755;fill-opacity:1;fill-rule:nonzero;stroke:none"
           d="m 16225,8821.98 c -232.5,114.72 -471.7,233.7 -608.2,466.85 -472.3,45.82 -868.5,-494.74 -660.1,-924.37 155,-424.57 757.5,-554.14 1086.7,-255.98 206.4,166.15 256.6,471.11 181.6,713.5" /></g><path
         id="path196"
         style="fill:#7c1755;fill-opacity:1;fill-rule:nonzero;stroke:none"
         d="m 15067.7,10019.1 60.3,-32.8 c 113.6,-43.2 235.5,-59.6 353.9,-86.3 -119.1,-222.5 -389.5,-189 -603.2,-228 19.9,-26 59.6,-78.7 79.5,-104.7 l 37.6,29.4 c 81.5,97.2 167.1,104.8 258.1,22.6 296.5,-272.5 295.1,-723.7 223.9,-1090 -126,-473.1 -504.6,-812 -885.2,-1090.6 395,-328 1024.2,-69.9 1139.9,408.7 71.2,289.6 -64.3,563.5 -209.5,803.8 224.6,51.3 493.6,75.3 625.1,293 147.2,154.1 84.2,373.2 65.7,560.8 -314.2,73.2 -544.3,299.2 -684.6,580.5 -52.7,22.6 -158.9,66.5 -211.6,89.1 -64.4,-82.2 -147.9,-134.2 -249.9,-155.5" /><g
         transform="scale(1.1416)"
         id="g198"><path
           id="path200"
           style="fill:#7c1755;fill-opacity:1;fill-rule:nonzero;stroke:none"
           d="m 15883.7,7910.38 c -165.5,-259.72 -404.1,-477.4 -719.6,-524.17 -15.6,-158.29 32.4,-318.42 139.7,-437.2 244.7,-292.04 738.8,-282.5 996.2,-9.63 -57,211.71 -55.2,430.62 -67.8,647.16 -94.2,128.33 -231.5,217.67 -348.5,323.84" /></g><g
         transform="scale(1.05961)"
         id="g202"><path
           id="path204"
           style="fill:#7c1755;fill-opacity:1;fill-rule:nonzero;stroke:none"
           d="m 15478.8,8282.12 c -117.6,-173.83 -283.1,-303.69 -474.9,-385.7 31.6,-221.03 18.7,-447.15 63.9,-665.53 247.5,-259.16 695.3,-259.82 962.1,-28.51 270.1,170.63 52.4,505.95 52.4,752.83 -224.3,60.68 -425.8,178.93 -603.5,326.91" /></g><path
         id="path206"
         style="fill:#4dbb38;fill-opacity:1;fill-rule:nonzero;stroke:none"
         d="m 13540.9,10801.7 c -0.6,-87 -0.6,-175.3 -1.3,-262.9 -104.8,2 -209.5,4.1 -314.3,2.7 -91.1,-123.9 -222.5,-197.2 -360.8,-256 234.8,-30.9 522.4,-24 652.5,-264.3 -165.7,-51.4 -335.5,-88.3 -506.7,-117.8 71.2,-26 143.1,-49.3 215.7,-72.5 250.6,-19.9 501.8,-6.9 752.4,0.6 61,-234.8 112.3,-472.4 176.7,-707.2 124.6,173.2 213.6,365.6 264.2,572.4 153.4,-238.3 395.1,-395.1 584.7,-601.8 7.6,159.5 -11.6,317.6 -45.8,472.4 -19.9,26 -59.6,78.7 -79.5,104.7 213.7,39 484.1,5.5 603.2,228 -118.4,26.7 -240.3,43.1 -353.9,86.3 -107.5,44.5 -211.6,97.2 -316.4,147.2 103.4,69.8 207.5,139.6 299.9,225.2 44.5,48 89,96.6 132.9,145.2 -260.2,6.1 -519,-23.3 -773.7,-70.5 50,349.8 113,705.1 87.6,1059.1 -32.2,17.8 -95.8,52.7 -127.3,70.5 -19.2,-283.4 -54.8,-566.2 -110.9,-844.8 -2.1,-106.8 -4.8,-213.6 -7.6,-320.5 -267,114.4 -517.6,263.6 -771.6,404" /><g
         transform="scale(1.28504)"
         id="g208"><path
           id="path210"
           style="fill:#7b1755;fill-opacity:1;fill-rule:nonzero;stroke:none"
           d="m 15119.4,8143.11 c 126.2,-131.67 274.9,-253.61 348.4,-425.74 54.3,-160.85 41.6,-334.55 49.6,-501.86 306.3,-50.11 572.2,173.15 665.4,451.82 117.2,209.88 -103.3,394.77 -200.8,562.63 l 35.7,35.64 -13.3,9.41 -15.5,13.55 c -152.9,26.07 -304.2,62.33 -456.6,92.13 -159.8,-34.08 -298.4,-123.57 -412.9,-237.58" /></g><g
         transform="scale(1.24661)"
         id="g212"><path
           id="path214"
           style="fill:#7b1755;fill-opacity:1;fill-rule:nonzero;stroke:none"
           d="m 15050.5,6882.12 c -16.4,-177.36 23.6,-361.94 154.9,-489.89 195,-149.36 478.9,-210.89 703,-88.4 277.9,113.67 391.6,458.52 326.2,734.8 -71.4,121.93 -238.3,117.03 -361.9,119.2 -119.1,-54.95 -208.2,-160.36 -329.6,-212.02 -154.8,-66.98 -327.8,-55.43 -492.6,-63.69" /></g><path
         id="path216"
         style="fill:#e51e25;fill-opacity:1;fill-rule:nonzero;stroke:none"
         d="m 14471.4,7657.8 c -61.6,92.4 71.2,261.5 170.5,178.7 80.1,-95.2 -75.4,-242.4 -170.5,-178.7 z m -123.9,1191.3 c 38.3,2.7 114.3,8.2 152.6,10.9 -10.2,-34.2 -32.1,-104.1 -42.4,-138.3 -32.2,-12.3 -95.9,-36.3 -127.4,-47.9 4.1,43.8 13,131.4 17.2,175.3 z m 421,-452.6 c 117.1,-79.4 -45.2,-167 -99.3,-217.7 12.4,65 -19.8,338.2 99.3,217.7 z M 14001,8110.3 c 13,29.5 38.4,88.3 51.4,117.8 258.1,128.7 68.4,-346.4 -51.4,-117.8 z m -242.3,-886.6 c -77.4,94.5 74.6,255.4 171.1,180.1 66.4,-93.2 -73.9,-246.5 -171.1,-180.1 z m -237.6,1387.1 c 41.1,83.5 15.7,260.2 147.9,241.7 67.1,-124.6 -60.3,-186.9 -147.9,-241.7 z m 10.3,-890.7 c -137.7,-46.6 -108.2,171.1 -20.6,206.7 159.5,74 154.1,-187.6 20.6,-206.7 z m -386.9,-824.4 c 30.8,92.5 21.2,258.2 163.7,222.6 60.9,-124.6 -88.4,-165 -163.7,-222.6 z M 13043.9,9216 c 7.5,69.2 15,139 22.6,208.2 32.1,6.1 95.8,18.5 128,24.6 -0.7,-105.4 -43.1,-201.3 -150.6,-232.8 z M 12885,7976.1 c 4.1,118.5 36.3,241.7 185.6,194.5 -40.4,-84.9 -76,-184.9 -185.6,-194.5 z m -80.1,581.3 c -115,90.4 57.5,338.9 145.2,176 24.6,-80.1 -52.1,-214.3 -145.2,-176 z m -150.6,-1394.6 c -104.1,-17.2 -131.4,131.4 -76.7,194.4 129.4,147.2 231.4,-156.8 76.7,-194.4 z m -131.4,1981.4 c -115.1,18.4 -55.5,185.5 21.9,216.3 169.8,50.7 124.6,-243.1 -21.9,-216.3 z m -75.4,-1348.8 c -104.7,12.3 -68.4,126.6 -83.5,199.2 36.3,6.2 107.5,18.5 143.1,24.7 -11.6,-76 -15.1,-156.8 -59.6,-223.9 z m 254.1,2147.1 c 56.1,-80.8 -31.5,-195.9 -120.5,-197.9 -164.4,39.7 4.7,297.1 120.5,197.9 z m -484.8,-1348.8 c 6.9,101.3 -54.8,257.4 93.1,278 0.7,-102.1 6.9,-218.4 -93.1,-278 z m 2866,266.3 c 114.3,91.1 175.2,-119.1 84.9,-178.7 -112.3,-92.4 -171.2,120.5 -84.9,178.7 z m 395,-330.7 c 71.2,366.3 72.6,817.5 -223.9,1090 -91,82.2 -176.6,74.6 -258.1,-22.6 l -37.6,-29.4 c 34.2,-154.8 53.4,-312.9 45.8,-472.4 -189.6,206.7 -431.3,363.5 -584.7,601.8 -50.6,-206.8 -139.6,-399.2 -264.2,-572.4 -64.4,234.8 -115.7,472.4 -176.7,707.2 -238.2,-111.6 -525.8,-176.6 -752.4,-0.6 -72.6,23.2 -144.5,46.5 -215.7,72.5 171.2,29.5 341,66.4 506.7,117.8 -130.1,240.3 -417.7,233.4 -652.5,264.3 138.3,58.8 269.7,132.1 360.8,256 -533.3,48.6 -989.3,-334.8 -1181,-806.5 -8.9,-24 -27.4,-70.5 -36.3,-93.8 -60.2,-281.4 41.8,-562.8 -2.7,-844.2 -36.3,-230.7 12.3,-461.4 61.6,-686.7 93.8,-421.7 185.5,-847.6 351.2,-1248.8 104.8,-181.4 289.6,-349.8 516.2,-291 496.4,102.7 912.7,417 1348.1,659.4 105.4,66.4 209.5,134.8 310.2,208.8 380.6,278.6 759.2,617.5 885.2,1090.6" /><path
         id="path218"
         style="fill:#f9d905;fill-opacity:1;fill-rule:nonzero;stroke:none"
         d="m 14811.6,10133.5 c 104.8,-50 208.9,-102.7 316.4,-147.2 l -60.3,32.8 -37.6,23.3 c 7.5,124.6 175.2,115.7 265.6,142.4 43.8,12.3 130.8,36.3 174.6,48.6 -8.2,89.7 -16.4,178.7 -24.7,267.7 -67.1,1.4 -134.1,2.8 -201.2,2.8 -43.9,-48.6 -88.4,-97.2 -132.9,-145.2 -92.4,-85.6 -196.5,-155.4 -299.9,-225.2" /><path
         id="path220"
         style="fill:#f8d909;fill-opacity:1;fill-rule:nonzero;stroke:none"
         d="m 8286.9,9822.6 c 171.17,-156.1 367.67,-280 579.22,-375.1 936.61,-471.1 2000.58,-597.1 3035.78,-626.5 -14.4,213.6 -5.5,430 50.6,637.4 15.1,61.6 33.6,122.6 55.5,182.8 8.9,23.3 27.4,69.8 36.3,93.8 -333.4,1.4 -695.6,-67.1 -1001.7,100 -445,9.5 -853.7,223.8 -1265.89,371 -126.66,52.1 -251.95,106.2 -376.56,164.4 -17.8,8.2 -54.08,26 -71.88,34.2 -36.98,16.4 -110.23,49.3 -147.2,65.7 -286.88,117.1 -566.21,250.6 -848.97,378 -184.86,72.5 -364.93,156 -555.26,214.9 -251.95,45.2 -503.22,126.7 -762.7,93.8 269.07,-565.5 794.2,-953.7 1272.76,-1334.4" /><path
         id="path222"
         style="fill:#561c17;fill-opacity:1;fill-rule:nonzero;stroke:none"
         d="m 15030.1,10042.4 37.6,-23.3 c 102,21.3 185.5,73.3 249.9,155.5 l -21.9,10.2 c -90.4,-26.7 -258.1,-17.8 -265.6,-142.4" /><path
         id="path224"
         style="fill:#b1852e;fill-opacity:1;fill-rule:nonzero;stroke:none"
         d="m 13226,9830.9 c 226.6,-176 514.2,-111 752.4,0.6 -250.6,-7.5 -501.8,-20.5 -752.4,-0.6" /><path
         id="path226"
         style="fill:#db7919;fill-opacity:1;fill-rule:nonzero;stroke:none"
         d="m 5514.47,14734.2 c -17.22,-82.3 34.91,-158.3 80.06,-222.5 116.84,-136.4 274,-228.1 412.34,-340.2 85.58,-60.1 166.06,-129 260.93,-175.2 190.44,-115.9 423.22,-92.4 629.32,-163 188.77,-39 356.39,-174.3 555.8,-155.1 168.77,25.2 287.63,172.1 352.23,320.1 -36.34,27.9 -77.22,3.3 -113.12,-8.5 -189.24,-80.3 -392.58,-157.4 -601.84,-131 -376.3,45.8 -708.11,264.4 -973.38,525.1 -174.85,157.8 -407.8,222.5 -602.34,350.3" /><path
         id="path228"
         style="fill:#db7919;fill-opacity:1;fill-rule:nonzero;stroke:none"
         d="m 6170.63,15273.1 c -208.11,-7.1 -392.64,-117.3 -595.46,-149.2 -67.95,-13.6 -132.45,14.6 -194.02,39.3 223.32,-58.7 425.64,81.2 637.11,124.2 161.81,38.4 329.47,19.4 489.75,-16.4 -108.89,-32 -225.43,14.7 -337.38,2.1 z m 172.23,-340.1 c 163.34,-45.2 329.82,-90.9 500.61,-90.9 34.37,-1.9 67.41,-11.6 100.54,-19.7 -20.15,-21.1 -39.44,-49.4 -72.87,-40.1 -234.9,11.5 -452.8,109.9 -679.3,162.7 -138.17,23.8 -278.38,28.3 -418.34,25.1 189.08,37.3 387.14,27.9 569.36,-37.1 z m -545.27,407.6 c -145.09,-26.9 -285.66,-74.3 -419.62,-135.6 -107.52,-51.3 -231.69,-43.4 -339.2,-93.5 11.65,-63.8 53.87,-114.4 103.23,-153.9 118.69,-87.8 218.09,-200.9 282.37,-334.5 18.58,-46.9 62.04,-73.1 103.35,-97.7 -17.05,87.1 -69.81,171.6 -43.88,262.7 103.7,-34.7 172.25,-151.6 289.97,-141.9 183.93,-3.1 390.59,17.5 548.75,-94.5 -150.21,83 -323.3,59.8 -486.74,51.4 150.08,-117.9 346.79,-140.5 526.69,-186.1 169.4,-43.6 332.13,-111.6 486.72,-193.3 192.58,-96.2 378.97,-234.6 604.41,-229.7 116.82,7.5 246.74,13.7 343.27,87.7 -187.53,56.4 -385.69,17.8 -576.05,50.9 -96.51,15.8 -130.68,115.1 -189.04,179 -148.97,72.2 -324.2,92.7 -455.95,199.5 -162.67,140.5 -334.68,287.6 -551.01,332.6 -135.85,32.7 -275.66,2.3 -412.68,20.8 -121.27,10.6 -240.2,56.4 -333.5,135.3 102.22,-32 199.57,-82.8 306.95,-97.2 145.15,-23.1 294.02,8.7 438.26,-24.8 153.53,-18.4 266.7,-159.9 427.11,-149.5 380.12,16.4 770.87,-32.9 1117.03,-197.5 39.41,-13.6 83.25,-49 123.82,-18.8 -158.76,224.1 -399.5,390.3 -668.51,449.7 -201.86,35.8 -410.67,23.9 -608.7,82.2 -103.66,21.6 -196.48,77.3 -299.79,98.4 -70.08,14.6 -131.71,-26.2 -190.3,-57.7 40.26,46.9 88.22,96.4 154.97,96.3 197.97,-2.6 379.14,-94.6 569.44,-136.7 119.39,-26.5 242.98,-22.6 362.87,-47.2 105.07,-16.2 201.61,-63.4 301.6,-97.1 -4.45,11.1 -13.17,33.1 -17.63,44.2 -98.1,79.1 -205.79,158.1 -334.26,174.9 -172.57,26.4 -351.89,-2 -520.91,52 125.49,-2.8 250.73,-8 376.11,-6.7 194.12,7.5 370.92,-97.2 519.6,-212.1 180.34,-144.4 332.39,-323.4 452.95,-520.4 57.28,-89.1 80.63,-194.7 135.96,-284.9 21.88,253.3 -96.1,499.3 -252.06,691.9 -131.33,150.6 -301.57,264.3 -486.06,339.5 -432.42,194.3 -923.98,240.1 -1389.54,162.3" /><path
         id="path230"
         style="fill:#db7919;fill-opacity:1;fill-rule:nonzero;stroke:none"
         d="m 8193,15680.9 c -55.46,-184.3 -6.17,-373.5 35.69,-554.8 44.83,-201.9 2.5,-409.8 -68.25,-600.2 -3.13,6 -9.15,18.2 -12.27,24.3 24.64,123.9 63.75,246.9 62.08,374.5 4.19,186.6 -71.11,363.1 -74.5,548.9 -0.14,73.1 31.5,140.5 57.25,207.3 z m -45.44,-1487.8 c 78.92,200.1 130.93,410.9 160.14,623.8 33.78,279.2 25.23,567.9 -65.39,836.2 -43.8,117.5 -6,249.5 -60.66,363.8 -73.35,-15.3 -132.58,-62.4 -184.88,-113.4 -73.47,-76.1 -160.49,-139 -258.91,-178.8 -58.13,-28.3 -128.99,-40.4 -168.74,-96.2 -223.28,-20.8 -431.55,-130.8 -579.33,-297.9 61.79,-20.1 122.42,-42.5 181.71,-67.7 l 2.36,0.3 c 68.59,54.9 120.46,127.4 187.05,185 59.59,58.1 134.5,98.2 190.79,159.8 80.43,-1.8 158.19,22.6 238.58,25.1 22.39,-76.8 -62.28,-115.5 -99.11,-169.7 -60.54,-62.1 -56.1,-153 -67.86,-232.5 -5.9,-70.6 -27.2,-138.5 -37.27,-208.2 46.26,-38.3 89.25,-79.3 128.25,-123 48.11,75.9 91.12,156.5 109.45,245.1 27.92,132.4 21.53,271.5 70.87,399 32.61,97.3 95.18,180.5 167.03,252.1 -45.81,-83.1 -101.25,-161.8 -131.3,-252.6 -43.3,-117.9 -45.55,-244.9 -65.05,-367.6 -17.08,-109.1 -68.02,-209.3 -131.27,-298.8 31.24,-38.9 59.68,-78.3 85.32,-118.3 99.51,156.3 109.19,355 140.38,534 16.65,-198.7 -37.19,-392.3 -116.1,-572.8 28.69,-47.5 53.37,-95.6 74.01,-143.8 39.61,98.8 84.52,195.4 138.34,287.6 50.46,78.4 30.49,172.9 30.59,259.8 27.2,-57 54.82,-119.6 38.4,-184.2 -34.61,-154.6 -113.11,-294.5 -173.48,-439.9 -1.01,-1.5 -1.75,-3.3 -2.52,-4.8 21.74,-63.5 36.52,-126.8 44.06,-189.6 19.07,112.4 42.71,224.7 88.33,329.3 -31.54,-150.1 -48.45,-302.5 -70.75,-453.9 -8.39,-46 -0.46,-91.3 10.41,-136.1 6.71,-27.6 14.53,-55.1 20.36,-82.4 39.84,75.1 75.05,152.4 106.19,231.3" /><path
         id="path232"
         style="fill:#db7919;fill-opacity:1;fill-rule:nonzero;stroke:none"
         d="m 7977.63,15895.5 c -62.42,25.3 -127.22,-3.3 -189.2,-15.6 -321.13,-77.3 -615.84,-245.1 -864.34,-460.7 -18.96,-17.6 -40.97,-33.6 -60.35,-51.8 26.18,-6.6 52.21,-14 78.06,-22 196.5,206.1 479.36,295.1 744.72,378.2 108.71,35.8 196.77,110 291.11,171.9" /><path
         id="path234"
         style="fill:#db7919;fill-opacity:1;fill-rule:nonzero;stroke:none"
         d="m 7692.9,15596.7 c -0.01,0 -0.01,0 -0.01,0 -210.25,-27.6 -340.81,-212.6 -482.49,-350.7 1.5,-0.5 3.26,-1.3 4.8,-2.1 76.53,-31.2 149.24,-68.5 217.53,-110.8 106.53,131.8 186.8,282.9 291.42,416.6 -0.09,0.1 -0.23,0.4 -0.33,0.5 23,34.1 14.61,54.4 -30.92,46.5" /><path
         id="path236"
         style="fill:#db7919;fill-opacity:1;fill-rule:nonzero;stroke:none"
         d="m 7566.66,15038.5 c 8.34,82.2 16.96,163.9 21.44,246.4 -54.16,-47.5 -89.56,-109.7 -124.25,-171.8 35.83,-23.2 70.21,-48.3 102.81,-74.6" /><path
         id="path238"
         style="fill:#db7919;fill-opacity:1;fill-rule:nonzero;stroke:none"
         d="m 7883.92,14109.9 c 4.45,41 -10.43,80 -30.78,115 -96.36,181.4 -283.51,289 -473.13,350.4 -277.45,87.7 -571.1,133.3 -862.43,119.9 -29.8,5 -37.18,-25.6 -48.28,-45.2 93.02,-86.6 188.61,-176.3 315.27,-210.1 96.88,-43.2 207.8,-26.9 303.58,-70.9 73.4,-30.3 15.29,-142.9 85.46,-174.2 127.6,-78.6 279.88,-22.7 418.35,-53.4 9.59,7.1 28.37,21 37.87,27.9 -95.16,61.3 -197.64,110.9 -283.28,186 -114.06,94.1 -256.86,135.5 -389.2,195 150.92,-13.4 313.38,-52.6 424.01,-163.3 142.69,-131.5 322.91,-209.6 502.56,-277.1" /><path
         id="path240"
         style="fill:#db7919;fill-opacity:1;fill-rule:nonzero;stroke:none"
         d="m 7330.91,13946.4 c -91.99,64.5 -206.57,85.2 -303.39,141.7 -234.96,136.4 -491,230 -748.07,314.9 -34.09,9.5 -69.17,12.3 -104.15,15.3 4.66,-26.3 15.25,-49.4 32.23,-69.4 257.19,-237.2 580.02,-434.4 938.84,-445 63.3,0.3 136.61,-7.5 184.54,42.5" /><path
         id="path242"
         style="fill:#db7919;fill-opacity:1;fill-rule:nonzero;stroke:none"
         d="m 7173.77,13558.9 c -238.05,-77.9 -505.25,-25.4 -720.52,94.5 231.21,-78.4 477.26,-102.2 720.52,-94.5 z m -1998.26,1347.5 4.17,-49.4 c 126.72,-438.9 428.79,-812.5 796.14,-1076.7 301.04,-217.9 667.64,-360.8 1043.42,-346.2 187.95,4.3 370.55,63.9 533.82,154.9 164.04,109.1 323.35,253.8 361.75,456.4 -6.22,6.1 -18.75,18.2 -24.97,24.3 -86.81,-88.6 -94.01,-229.9 -196.3,-305.5 -40.52,-33.8 -87.41,-59.3 -135.96,-80 -80.6,-28.2 -166.52,-36.7 -251.59,-31.2 -160.96,3.9 -308.15,96.2 -470.69,84.3 -348.7,-28.7 -724.67,25.3 -1008.72,242.7 -204.04,168.6 -323.85,412 -429.67,649.5 -48.61,109.7 -130.11,200.6 -221.4,276.9" /><path
         id="path244"
         style="fill:#db7919;fill-opacity:1;fill-rule:nonzero;stroke:none"
         d="m 5688.29,14167.5 c 164.16,-181.4 383.76,-323.3 630.06,-356 -1.17,8.5 -2.9,25.6 -3.97,34.3 -166.12,203 -392.69,341 -596.91,501.1 -74.72,55.9 -124.23,139.6 -207.09,185.1 5.9,-140.1 90.85,-260.9 177.91,-364.5" /><path
         id="path246"
         style="fill:#db7919;fill-opacity:1;fill-rule:nonzero;stroke:none"
         d="m 6608.73,13764.2 c 82.55,5.3 183.33,-24.6 251.27,34.2 -186.31,79.5 -401.97,53.9 -583.87,149.8 87.53,-94.3 196.99,-184 332.6,-184" /></g></g></svg>