<svg width="1271" height="1316" xmlns="http://www.w3.org/2000/svg" xmlns:xlink="http://www.w3.org/1999/xlink" xml:space="preserve" overflow="hidden"><defs><clipPath id="clip0"><rect x="1651" y="357" width="1271" height="1316"/></clipPath><linearGradient x1="633.682" y1="-1.36453" x2="633.682" y2="1313.64" gradientUnits="userSpaceOnUse" spreadMethod="reflect" id="fill1"><stop offset="0" stop-color="#385723"/><stop offset="0.5" stop-color="#003300"/><stop offset="0.83" stop-color="#00B050"/><stop offset="1" stop-color="#C7D5ED"/></linearGradient></defs><g clip-path="url(#clip0)" transform="translate(-1651 -357)"><path d="M86.4809 51.6259C84.1958 52.7079 81.6462 51.9068 79.3675 51.2113 74.5651 49.6021 70.0273 47.22 65.5347 44.8029 53.2899 38.0223 41.5353 30.2578 29.8906 22.3458 18.8657 14.7498 7.87954 7.06274-2.8486-1.01104-0.873378-1.46776 1.06314-2.10005 2.96072-2.84495 20.7248 10.1685 38.6435 22.95 57.1885 34.6284 63.3012 38.3945 69.4529 42.1328 75.9401 45.0981 78.2314 46.0607 80.5681 47.0936 83.0468 47.2623 84.764 47.1711 86.3712 46.1731 87.6041 44.9083 89.263 43.2008 89.689 40.5236 89.3598 38.1487 88.6626 32.8015 85.7644 27.9742 81.7752 24.812 83.5891 24.503 85.319 23.8072 86.9134 22.8165 89.818 25.7043 91.9416 29.4497 93.1745 33.497 94.2654 37.1229 94.6399 41.2194 93.2586 44.817 92.058 48.0351 89.4114 50.3962 86.4809 51.6259" fill="#F68714" fill-rule="evenodd" transform="matrix(1 0 0 -1 2607 792)"/><path d="M42.9124 10.6925C45.9357 10.7267 49.4457 10.6444 51.6581 8.13229 53.4552 8.29001 55.2588 8.43417 57.0624 8.53718 56.5175 10.912 54.9734 12.9988 52.8193 13.9323 48.6994 15.765 44.0736 15.3118 39.7592 14.6736 30.6178 13.088 21.833 9.77278 13.3209 5.99746 7.75428 3.41658 2.14224 0.801691-2.93779-2.76762 4.70496 0.561422 12.5164 3.45798 20.4382 5.9563 27.7825 8.187 35.2436 10.3218 42.9124 10.6925" fill="#F68714" fill-rule="evenodd" transform="matrix(1 0 0 -1 2639 785)"/><path d="M94.1467 88.232C95.716 85.6652 95.9636 82.4709 95.5771 79.4794 85.9197 81.2823 76.0693 81.8832 66.2671 82.4123 62.4104 82.6802 58.5051 82.7845 54.7086 83.6075 52.4873 84.0452 50.8456 85.8676 49.5358 87.7031 52.2339 93.5556 57.7929 97.3896 63.551 98.8921 69.1161 100.473 74.977 99.5778 80.4514 98.0691 85.7689 96.4557 91.1709 93.4901 94.1467 88.232ZM38.0738 95.3191C37.7781 91.7592 35.9311 88.5913 33.4626 86.2986 32.1526 85.1752 30.6559 84.0975 28.9537 83.9211 26.8774 84.0712 24.4873 85.136 23.6903 87.3764 23.1049 89.4208 23.7629 91.5568 24.6561 93.3137 26.6058 96.9193 29.5633 100.042 33.1485 101.596 34.4825 102.138 36.2268 102.243 37.2409 100.976 38.3757 99.3818 38.2669 97.2198 38.0738 95.3191ZM64.1787 101.688C58.4929 100.44 53.0547 97.2787 49.3971 92.3209 49.1496 95.2016 48.3648 98.0625 46.856 100.492 44.3269 104.731 39.945 107.566 35.2974 108.082 31.543 108.605 27.644 107.462 24.5657 105.143 21.753 109.565 19.0731 114.052 16.1034 118.337 15.1678 119.774 13.4898 120.179 11.9749 120.192 9.20439 120.185 6.48223 119.362 3.83853 118.441 1.55699 117.579-0.796931 116.704-2.90942 115.404 1.33376 116.41 5.54682 117.873 9.92871 118.206 11.4619 118.272 13.3147 118.167 14.2625 116.613 17.202 112.328 19.912 107.886 22.6825 103.49 21.2098 101.988 20.0328 100.231 18.9703 98.3695 16.2785 100.518 13.5321 102.804 10.3331 103.974 9.01128 104.601 7.93694 103.36 7.10988 102.4 4.79822 99.6822 2.84265 96.6581 0.881008 93.647L0.772427 93.1113C3.80841 95.1427 5.9753 98.3629 8.66733 100.839 9.22867 101.211 9.8743 101.949 10.5505 101.511 13.2363 100.146 15.4937 98.0036 17.9021 96.116 16.2482 91.903 15.3669 87.4221 15.0592 82.8891 14.7876 79.6037 15.0774 76.1811 16.1819 73.0652 17.4614 69.2703 20.2742 66.0958 23.7447 64.5153 26.4125 63.5288 29.3158 64.378 31.8991 65.3709 37.5005 67.7027 42.7034 71.759 45.6789 77.4546 46.1377 74.5676 46.8499 71.6936 48.232 69.166 49.4273 66.958 50.9723 64.9986 52.584 63.1305 47.6889 60.3805 42.8843 57.0951 37.2892 56.4419 35.0861 55.9848 32.9615 56.9776 30.8128 57.3498 33.0399 52.0462 35.2671 46.4678 35.2008 40.537 35.2671 37.8982 34.0237 35.573 33.4988 33.0648 32.5269 29.3546 32.4424 25.3245 30.7584 21.8038 29.9918 20.1907 28.5131 19.2305 27.0766 18.4792 23.9801 16.7743 21.5055 14.0115 19.4593 11.0396 22.4411 12.0258 25.3563 13.2734 28.2716 14.508 30.8852 15.5857 33.227 17.5519 34.6032 20.1644 37.0237 24.5212 37.3013 29.7074 38.8826 34.3907 40.8503 39.8709 39.7398 45.9519 38.2127 51.419 40.144 51.7129 42.0755 52.0853 43.8984 52.8692 48.2805 54.6784 52.3787 57.18 56.4832 59.5967 56.7426 59.3354 56.9962 59.0676 57.2496 58.8 55.0042 56.6966 52.6926 54.5412 50.0369 53.0324 47.6527 52.1114 45.1841 51.4908 42.9567 50.2106 44.2424 47.8591 45.4797 45.5471 46.4999 43.0715 48.3165 38.5448 50.0066 33.6591 49.2281 28.6885 48.5521 22.764 47.2482 16.7352 44.0493 11.7777 40.7779 6.85283 36.7339 2.52861 34.0297-2.80789 36.8848-0.678496 39.7881 1.37913 42.8722 3.16234 45.1598 4.49476 46.7593 6.83313 48.0993 9.21066 50.3629 13.4171 51.8417 18.0744 52.9823 22.7903 53.5859 25.7819 54.2862 28.8255 54.1533 31.9151 53.918 37.4148 51.9682 42.6075 49.8074 47.4935 54.4489 48.9957 58.0222 52.8103 61.6438 56.0892 64.5409 54.5217 67.758 53.986 70.957 53.7574 73.8361 48.3751 76.7695 42.6796 81.6224 39.074 80.2763 33.7766 79.2201 28.2572 79.6668 22.7577 79.9503 19.1456 81.3205 15.7163 82.9984 12.6202 85.1595 8.74041 87.622 4.95845 90.9237 2.09752 92.6135 0.641031 94.3699-0.769968 96.2351-1.93258 92.861 4.07025 89.4568 10.0663 86.5838 16.3956 85.4852 18.93 84.2661 21.608 84.3144 24.4949 84.2117 30.0536 85.5275 35.5401 87.1631 40.8114 85.3766 42.4509 83.4572 43.9531 81.6948 45.6711 79.5279 48.1465 77.8983 51.1383 76.2806 54.0512 79.9445 54.6064 83.4451 56.0305 86.6441 58.0227 89.1068 59.3877 91.0925 61.5563 92.6378 64.0122 95.9271 69.3292 97.9492 75.5996 98.0821 82.0138 98.2329 86.1746 96.392 90.1066 93.7301 92.9938 89.6499 97.4745 84.0307 99.9369 78.4052 101.224 73.7515 102.249 68.8868 102.739 64.1787 101.688" fill="#F68714" fill-rule="evenodd" transform="matrix(1 0 0 -1 2525 897)"/><path d="M109.945 3.42273C112.565 6.37653 113.236 10.6707 113.177 14.6066 113.157 18.3202 111.581 21.9691 108.894 24.2991 105.071 27.6831 100.091 28.9734 95.2901 29.7118 86.5461 30.9306 77.6894 30.2423 68.9523 29.2888 58.7589 28.1633 48.6254 26.5073 38.525 24.6434 24.3223 22.2345 10.6845 17.1372-2.8202 11.9755-1.98226 11.438-1.15124 10.893-0.326695 10.3194 4.47421 12.5991 9.77363 13.0723 14.9467 13.1368 22.6 15.6819 30.3199 18.0979 38.2392 19.4241 48.0336 21.2666 57.8746 22.8798 67.762 24.0339 76.672 25.145 85.7151 26.1991 94.6715 24.973 98.2092 24.4066 101.866 23.5178 104.798 21.1879 106.893 19.5389 108.316 16.8791 108.376 14.0547 108.469 11.2157 107.95 8.01813 105.816 6.08974 102.77 3.30099 98.6744 2.46227 94.8179 1.93175 95.9484 0.519208 96.9988-0.97177 97.8102-2.63501 102.205-1.7246 106.78-0.161681 109.945 3.42273" fill="#F68714" fill-rule="evenodd" transform="matrix(1 0 0 -1 2617 809)"/><path d="M84.9865-1.73097C87.8801-0.856722 90.9239 0.997428 91.8862 4.26848 92.7308 7.22259 91.3953 10.2398 89.7915 12.5805 86.7867 16.8244 82.4595 19.7221 78.0277 21.9499 71.4421 25.1787 64.2412 26.7721 57.0403 27.2513 48.6215 27.7589 40.0458 26.8919 32.0003 24.0931 42.0819 23.8321 52.2154 23.5714 62.1987 21.8229 68.9611 20.5539 75.6842 18.2346 81.4252 14.0821 83.8343 12.2563 86.25 10.0494 87.3104 6.99688 87.8145 5.72092 86.7671 4.59287 85.7983 4.05694 83.1143 2.52022 79.9719 2.42154 76.9999 2.49189 70.0018 2.87967 63.2002 5.03708 56.667 7.65263 50.9978 9.92961 45.5318 12.7497 40.1178 15.6541 32.7272 19.3908 24.9762 22.4928 16.8914 23.9239 10.3451 25.0942 3.45833 25.1083-2.85233 22.676-1.60843 21.4423-0.443244 20.1169 0.591067 18.6716 3.96891 19.7149 7.52378 19.9337 11.0129 19.701 18.6459 19.1439 26.0301 16.6343 33.0609 13.497 38.0688 11.2762 42.8018 8.42099 47.764 6.1015 54.8145 2.76682 62.1135-0.116455 69.7008-1.67454 74.7284-2.64052 79.9851-3.15508 84.9865-1.73097" fill="#F68714" fill-rule="evenodd" transform="matrix(1 0 0 -1 2621 823)"/><path d="M28.0662 49.7164C30.3332 49.7164 32.687 49.1894 34.5575 47.762 34.384 44.0796 33.7771 40.4042 33.0091 36.8154 27.8123 38.99 22.4733 40.7512 17.0165 42.0319 17.066 44.1397 16.9731 46.2544 16.558 48.3222 20.3612 49.1295 24.2013 49.7499 28.0662 49.7164ZM6.83997 21.4129C4.25092 18.211 0.5902 16.3366-2.99602 14.749-1.32356 10.2995 0.491158 5.7968 3.22269 1.99465 5.31-0.913931 8.66707-2.86155 12.0737-2.73501 16.0873 2.80167 20.0576 8.34514 23.904 14.0084 27.0877 18.8246 30.42 23.5942 32.9161 28.8773 35.5918 35.1677 36.6509 42.1385 37.0041 49.0359 34.5388 51.2907 31.1446 52.3045 27.9424 52.258 23.0741 52.2713 18.1994 51.3174 13.4611 50.1966 15.1955 46.0675 14.8547 41.3114 13.9753 37.0021 12.7613 31.3188 10.4386 25.7954 6.83997 21.4129" fill="#F68714" fill-rule="evenodd" transform="matrix(1 0 0 -1 2610 858)"/><path d="M24.8647 49.4106C26.6537 47.8205 28.8981 45.7596 28.5883 42.9891 28.3544 39.686 28.0888 36.3832 27.5642 33.1078 25.775 35.2436 23.9859 37.3796 21.9819 39.2494 23.0313 42.6138 23.967 45.9985 24.8647 49.4106ZM8.94607-2.23444C9.9511-1.94801 11.0513-1.8729 11.791-1.04707 15.0277 2.34445 18.1065 5.86561 21.0082 9.57796 23.025 12.26 25.0733 14.9417 26.2934 18.1013 27.6273 21.5135 28.4619 25.0756 29.1572 28.6515 29.9601 32.746 30.5672 36.9224 30.8074 41.1191 30.8325 42.4022 31.1423 43.7054 30.9589 44.9476 29.7388 48.8508 26.6411 51.5396 23.3853 53.389 21.7984 46.5922 19.8387 39.8908 17.4111 33.4216 15.0847 27.041 11.342 21.4657 7.57422 16.0472 4.22351 11.2362 0.575811 6.72561-2.98344 2.11231-1.39025 0.563395 0.367038-0.876473 2.31425-1.86611 4.37527-2.94419 6.77751-2.65074 8.94607-2.23444" fill="#F68714" fill-rule="evenodd" transform="matrix(1 0 0 -1 2639 873)"/><path d="M7.19246 18.9553C7.4094 17.442 7.63927 15.9149 7.64551 14.3597 7.26262 15.5453 6.90512 16.7656 6.58594 17.9581 6.79019 18.3 6.98821 18.6137 7.19246 18.9553ZM7.47333 6.25606C10.646 3.34776 13.7996 0.342125 17.0297-2.47541 14.8081 1.72985 12.5164 5.93511 10.2629 10.1333 9.71386 10.9353 9.96934 11.9189 9.98204 12.8114 10.097 17.1281 9.22873 21.3823 8.19456 25.5248 4.58151 19.2415 1.0001 12.9718-2.97044 6.93934 0.444809 6.24195 4.00685 5.34235 7.47333 6.25606" fill="#F68714" fill-rule="evenodd" transform="matrix(1 0 0 -1 2671 882)"/><path d="M24.0079 51.7367C26.0323 51.0892 28.2032 50.3549 29.6849 48.619 28.7642 44.8541 27.9104 41.1023 26.758 37.4505 25.1785 38.4386 23.6115 39.3597 22.0078 40.2612 22.8981 44.0194 23.6358 47.8313 24.0079 51.7367ZM0.0128998-1.07522C1.8239-2.21674 3.94603-2.6105 5.98268-2.63731 6.97662-1.77608 7.75105-0.607983 8.58035 0.420322 11.8001 4.50577 14.9404 8.69822 17.8796 13.0441 20.9589 17.6502 24.0505 22.4102 25.959 27.764 28.4837 34.4932 30.441 41.5094 32.0082 48.5656 32.3375 49.3933 31.624 49.9542 31.197 50.4949 30.3251 51.4562 29.2885 52.2707 28.1299 52.798 26.1726 53.7193 24.0809 54.6605 21.8919 54.2735 21.5442 49.1932 20.7029 44.1396 19.2758 39.2865 17.4893 33.2648 13.9281 28.1513 10.6902 22.9841 6.47046 16.5754 2.13503 10.3003-2.32853 4.152-2.52377 3.81138-2.85917 3.48441-2.90793 3.05045-2.44441 1.32799-1.38356-0.174017 0.0128998-1.07522" fill="#F68714" fill-rule="evenodd" transform="matrix(1 0 0 -1 2628 866)"/><path d="M17.5351 34.7657C19.2241 32.2643 19.6526 29.0234 19.8139 25.9761 19.9195 24.4767 19.1185 23.2051 18.5348 21.9338 17.7648 23.6267 16.8707 25.2161 16.0325 26.902 16.6844 29.4725 17.032 32.1468 17.5351 34.7657ZM7.55641-1.18039C11.4996 4.54809 14.9705 10.6566 18.4292 16.7651 19.7892 19.2664 21.3291 21.7197 22.0805 24.5458 22.1362 27.3236 21.8693 30.1982 21.0373 32.8171 20.0686 35.8782 18.0071 38.2828 15.8834 40.4387 15.2499 34.8278 14.3746 29.217 12.9774 23.7926 12.0273 20.3858 10.9406 16.993 9.04058 14.1255 5.55696 8.63201 1.3471 3.7949-2.91282-0.931513 0.198283-3.34313 4.25293-2.77654 7.55641-1.18039" fill="#F68714" fill-rule="evenodd" transform="matrix(1 0 0 -1 2657 875)"/><path d="M6.10832 36.3965 5.13079 36.3694C5.19236 34.8145 5.19994 33.2488 5.17697 31.6831 5.36926 31.451 5.56936 31.2247 5.76968 30.9923L9.15645 27.2998 9.38734 27.0947 9.56446 26.9106C10.0878 26.3655 10.5112 25.896 10.873 25.4103 14.1828 21.7065 16.6766 17.4248 18.2855 12.6582 19.7863 9.43421 20.8948 6.13085 21.7184 2.87466 41.5699 28.0931 54.9015 51.4483 63.2916 75.5216L64.8541 80.0136 69.2108 80.2619C69.8189 80.2941 70.4192 80.3101 71.0197 80.3101 81.365 80.3101 86.9301 74.8305 89.7703 70.2361L91.7561 67.0293 90.4862 63.4019C82.4041 40.44 70.7119 18.7581 55.5558-1.43328 132.906 25.356 212.111 45.6127 292.325 58.8717 292.895 68.1474 293.295 77.4654 293.464 86.7783 275.006 87.4047 256.548 88.3277 238.082 88.4788 157.637 89.3645 77.1314 83.5715-2.53573 71.1761 1.3668 60.7179 4.4765 49.1977 5.08461 37.2765L6.10832 36.3965" fill="#80CC2A" fill-rule="evenodd" transform="matrix(1 0 0 -1 2608 1076)"/><path d="M173.542 291.327C112.546 250.906 54.0177 206.053-1.46179 157.077 43.6608 94.3787 98.9634 40.7843 161.523-0.673068 210.274 54.2349 261.948 106.041 316.815 153.676 336.675 171.04 356.927 187.866 377.538 204.146 312.016 207.724 252.972 227.588 205.714 262.135 193.252 271.843 182.568 281.529 173.542 291.327" fill="#80CC2A" fill-rule="evenodd" transform="matrix(1 0 0 -1 1830 1531)"/><path d="M276.48 330.756C276.472 330.756 276.48 330.756 276.472 330.756 274.78 330.756 273.096 330.851 271.419 331.017 167.856 233.836 75.5919 122.257-2.22138-0.305213 283.746 11.2973 524.286 243.461 568.779 551.695 484.51 503.511 404.384 446.866 329.448 382.943 328.292 369.465 323.109 356.793 314.135 347.429 304.549 336.736 291.119 330.756 276.48 330.756" fill="#80CC2A" fill-rule="evenodd" transform="matrix(1 0 0 -1 2326 1626)"/><path d="M228.189 31.2567 225.675 35.247 228.072 39.3279C231.696 45.4922 236.641 49.9042 241.673 53.2322L250.508 59.2628C252.382 60.0746 256.195 61.6665 258.069 62.4463L266.981 66.148 267.19 55.7693C267.239 53.3496 267.41 50.9565 267.653 48.5955L267.856 45.8607 268.249 43.9859C270.746 28.1748 277.525 14.201 287.292 4.94944 289.214-1.01191 293.284-2.08021 299.123 0.87895 305.999 0.489062 312.627-1.01191 319.07-2.50754 314.991 28.7088 312.633 63.52 319.156 97.2096 319.018 97.2309 318.881 97.2523 318.743 97.2684 212.797 112.337 105.203 111.899-0.84362 97.9628-0.809875 94.09-0.675343 90.212-0.540811 86.4089-0.339459 78.984 0.0303927 71.3775 0.535224 63.5895 79.3733 57.6549 157.692 43.4944 234.132 21.5617L232.295 24.5744C230.937 26.8126 229.578 29.0506 228.189 31.2567" fill="#80CC2A" fill-rule="evenodd" transform="matrix(1 0 0 -1 1703 1085)"/><path d="M14.579 112.872C36.4332 97.5726 44.7891 60.6129 30.7909 35.2818 25.9019 25.3362 17.377 17.1094 6.87651 12.0935 8.59837 7.79386 9.88212 3.36495 10.72-1.09556 86.6836 59.4376 167.513 112.674 252.124 157.518 252.563 160.92 253.001 164.323 253.4 167.758 254.646 178.404 255.653 189.12 256.421 199.905 169.781 183.015 84.4851 158.106 1.64936 125.702 0.257866 124.223-1.14099 122.749-2.57844 121.29 3.34825 119.645 9.25954 117.113 14.579 112.872" fill="#1F6632" fill-rule="evenodd" transform="matrix(1 0 0 -1 2643 1224)"/><path d="M511.991 325.593C511.163 325.593 510.335 325.62 509.501 325.668 509.05 325.647 508.61 325.641 508.17 325.641 496.406 325.641 486.162 331.353 477.898 337.567 466.797 322.51 452.212 314.02 437.062 314.02 436.685 314.02 436.302 314.02 435.925 314.031 434.823 313.934 433.738 313.886 432.653 313.886 421.255 313.886 411.25 318.946 402.118 325.107 395.231 317.653 385.632 309.424 373.394 306.839 369.585 305.695 365.605 305.117 361.579 305.117 350.038 305.117 337.771 309.938 326.612 318.754 322.775 316.339 318.92 313.806 315.157 311.332 298.887 300.64 282.07 289.58 262.596 285.145 260.598 284.6 258.582 284.316 256.577 284.316L256.577 284.316C247.446 284.316 238.743 290.087 232.227 300.287 230.868 300.208 229.509 300.127 228.15 300.063 145.105 234.389 68.0191 159.824-2.14753 78.1949 79.8458 29.8326 172.88 1.70058 270.917-0.164368 352.327 125.536 449.202 239.22 557.853 337.3 554.86 338.871 552.016 340.714 549.361 342.836 540.31 334.148 527.455 325.593 511.991 325.593" fill="#1F6632" fill-rule="evenodd" transform="matrix(1 0 0 -1 2020 1627)"/><path d="M260.326 102.568C252.18 115.972 245.969 130.519 239.95 144.617 239.655 145.306 239.356 146.001 239.06 146.695 160.897 172.296 80.4738 189.658-0.773894 197.992 0.500178 181.019 2.3783 164.271 4.86024 147.699 95.6077 109.149 182.164 58.6378 262.146-2.00804 268.154 1.8758 274.182 5.71685 280.226 9.53116 271.757 22.9566 266.06 36.7985 262.906 51.4096 257.281 68.7828 258.293 86.8399 260.326 102.568" fill="#1F6632" fill-rule="evenodd" transform="matrix(1 0 0 -1 1705 1226)"/><path d="M-0.726372 258.447C14.6082 163.073 49.0679 74.8463 98.0236-1.5533 144.463 37.4542 192.479 74.2576 242.274 107.953 169.159 165.86 90.1718 214.935 7.46109 254.563 4.70926 255.772 1.99178 257.088-0.726372 258.447" fill="#80CC2A" fill-rule="evenodd" transform="matrix(1 0 0 -1 1712 1345)"/><path d="M12.5274 21.496C8.27631 14.1615 3.7886 7.04575-0.79903-0.0353433 14.8686-5.01924 32.5196-4.50639 47.9242 1.32428 76.7238 19.3296 83.9211 57.4316 92.5281 89.5589 67.3484 84.3503 39.5854 84.2811 18.3882 66.489 4.12535 56.8844-2.30895 37.8478-2.4721 20.2112-2.04075 17.094-1.13578 10.8945-0.699096 7.77748 3.62034 12.4733 7.9765 17.0538 12.5274 21.496" fill="#4DBB38" fill-rule="evenodd" transform="matrix(1 0 0 -1 2286 841)"/><path d="M9.7053-2.95901C18.6167-4.41931 27.356-2.37256 35.6798 0.847098 31.9966 1.28669 28.3441 1.6886 24.6559 2.01976L24.4887 6.36856C23.222 15.001 20.9677 23.9648 27.9336 30.3334 32.6096 37.3915 37.1895 44.4875 41.5211 51.806 36.8805 47.3757 32.4427 42.8042 28.04 38.1189 27.5942 41.2299 26.6722 47.4137 26.2263 50.5247L26.1249 51.1111C25.3043 43.3907 28.5467 33.4769 20.8713 28.7209 18.0039 39.9865 15.577 52.0613 8.33743 61.2041 5.98672 64.6788 0.966061 67.8605-2.47891 63.2943 11.6204 48.4779 16.3268 27.4016 19.6352 7.31874 19.9442 5.27175 20.628 1.24876 20.9677-0.765403 17.2135-1.46054 13.4595-2.19336 9.7053-2.95901" fill="#191716" fill-rule="evenodd" transform="matrix(1 0 0 -1 2257 871)"/><path d="M18.0534-3.11693C17.0125-1.94152 14.93 0.371453 13.8841 1.54687 13.5156 2.39478 12.8085 4.08525 12.4746 4.92779 15.1609 19.7346 20.4747 34.1766 27.64 47.0729 30.9994 53.3197 38.3954 56.8831 39.8786 64.0852L35.4389 65.8832C17.1155 52.2195 12.5727 26.4591 6.52214 4.74536 4.37111 6.28563 0.03464 9.37692-2.12131 10.9172 2.48536 2.94207 9.58186-1.68411 18.0534-3.11693" fill="#191716" fill-rule="evenodd" transform="matrix(1 0 0 -1 2165 948)"/><path d="M27.7082 36.9264C27.2752 33.5707 26.5747 30.2099 24.3758 27.6087 18.5817 40.6145 13.5175 63.1539-3.03751 61.8876 8.95424 47.7268 18.6499 31.5448 23.3103 12.7249 24.5752 8.53552 25.811 4.30942 27.0757 0.120286 24.7747-0.67634 20.1774-2.26455 17.9153-3.06118 24.877-2.15891 31.8384-1.10899 38.8-0.0643448 32.4027 0.985579 28.9049 4.99536 28.3406 12.002 26.1758 18.3229 25.7428 24.8652 29.873 30.3525 33.7358 38.483 37.9973 46.3549 41.9622 54.4114 37.1654 48.6341 32.4027 42.8145 27.7082 36.9264" fill="#191716" fill-rule="evenodd" transform="matrix(1 0 0 -1 2403 947)"/><path d="M-3.03542 9.14624C5.55415 6.18403 13.6072 1.74012 21.9643-1.85376 20.6757-0.411659 18.1048 2.44559 16.8223 3.85676 13.7741 5.82837 10.6305 7.5221 7.38552 8.96912 4.77888 9.00028-0.434852 9.10899-3.03542 9.14624" fill="#5D133E" fill-rule="evenodd" transform="matrix(1 0 0 -1 2589 1051)"/><path d="M80.502-0.729462C77.4352 7.88492 73.4237 16.0635 69.7191 24.3876 74.2993 18.7055 78.8499 13.0236 83.5389 7.44378L86.0962 4.36605C88.7325 26.4054 87.0062 52.7706 69.6201 67.5514 50.1316 87.6807 22.4913 90.8337-1.9147 99.6365 4.55822 73.1958 4.32207 43.5267 20.4348 21.0515 32.6372-0.325857 59.1636-7.9127 80.502-0.729462" fill="#4DBA38" fill-rule="evenodd" transform="matrix(1 0 0 -1 2091 913)"/><path d="M10.8285 64.0038C-4.95965 49.4099-4.06074 24.3614-1.49804 4.02795 3.23666 9.98893 8.04106 15.8799 12.883 21.7303 8.881 13.5689 4.57967 5.5998 0.684683-2.63134 20.8492-3.83642 45.3526-3.79559 58.8937 15.4726 78.5232 38.7689 79.0582 71.7518 85.045 100.939 83.9696 99.9904 81.8135 98.116 80.7383 97.1671 56.1063 90.5134 28.8476 85.321 10.8285 64.0038" fill="#4DBA38" fill-rule="evenodd" transform="matrix(1 0 0 -1 2432 914)"/><path d="M0.286297 91.0163C-4.14328 61.5299-5.01533 28.8583 11.6885 3.43281 26.6869-5.49634 44.4344-1.83592 60.7708-1.91082 70.1639 23.2956 92.5074 43.7832 118.639 41.1862 123.774 41.2611 128.904 41.1488 134.039 41.042 134.073 45.723 134.073 50.4417 134.103 55.0906 146.548 47.5881 158.828 39.6151 171.91 33.5021 172.048 39.2144 172.18 44.9215 172.283 50.6287 164.262 68.995 166.04 89.6646 166.511 109.345 167.618 135.289 179.025 158.919 191.539 180.358 172.283 206.778 160.944 238.46 145.578 267.397 138.096 279.067 129.443 293.266 115.753 295.937 107.57 292.715 98.9803 290.669 90.2241 292.133 93.9137 292.897 97.6034 293.629 101.293 294.324 100.96 296.338 100.288 300.362 99.9845 302.409 91.7675 301.495 81.8698 302.302 76.2348 294.291 61.1039 272.997 56.5421 245.664 48.5601 220.751 42.254 201.252 38.7654 180.508 28.9312 162.542 16.7205 140.152 4.6472 116.955 0.286297 91.0163" fill="#B5DD25" fill-rule="evenodd" transform="matrix(1 0 0 -1 2177 1166)"/><path d="M8.34459 112.946C22.0875 110.263 30.7741 96.01 38.2849 84.2942 53.7102 55.2459 65.0921 23.4403 84.4227-3.08141 86.9462 0.668375 89.5039 4.3752 92.3026 7.86745 77.448 34.0886 63.3756 60.8249 47.9159 86.6493 41.0101 97.5552 34.3106 109.051 24.6454 117.312 16.9327 124.366 5.8903 122.124-2.69782 118.487L-2.53062 114.12C1.10438 113.788 4.70982 113.386 8.34459 112.946" fill="#A0CF1E" fill-rule="evenodd" transform="matrix(1 0 0 -1 2284 983)"/><path d="M8.86868-3.1795C10.3756-2.08651 13.3941 0.174199 14.9008 1.27253L11.9524 4.95666C7.18661 10.5068 2.56115 16.1636-2.0994 21.8205 1.67022 13.5351 5.74988 5.39386 8.86868-3.1795" fill="#2E6B2F" fill-rule="evenodd" transform="matrix(1 0 0 -1 2162 910)"/><path d="M35.3094-2.38274C30.0279 2.94637 21.8871 6.44002 20.3731 14.8869 17.5474 27.3052 18.0855 40.2387 18.052 52.9146 18.5567 74.2252 16.4035 96.2709 23.2997 116.664 29.3551 139.225 42.2394 159.725 59.901 173.211 72.1461 178.905 85.8716 179.163 98.8232 182.029 107.57 184.749 115.239 178.428 123.11 175.342 125.13 175.455 129.203 175.744 131.252 175.895 107.906 194.34 75.6451 201.799 48.6315 188.898 26.496 178.358 12.0977 154.804 5.30184 130.225-5.4626 90.7596-2.13218 48.9862 3.61997 8.89798 12.972 5.73694 21.8198 1.25596 30.9028-2.63476L35.3094-2.38274" fill="#D51E26" fill-rule="evenodd" transform="matrix(1 0 0 -1 2025 1106)"/><path d="M78.8553 235.884C65.9056 233.026 52.1822 232.769 39.9389 227.092 22.28 213.646 9.39755 193.206 3.34311 170.711-3.55214 150.379-1.39926 128.398-1.90383 107.15-1.8703 94.5115-2.40841 81.6161 0.416939 69.2345 1.93066 60.8125 10.0702 57.3291 15.3509 52.016L10.945 51.7644C24.8366 44.9475 38.5596 37.8043 52.6534 31.5386 54.4696 30.661 58.0683 28.9006 59.8849 28.0231 60.7595 27.5843 62.5419 26.632 63.4163 26.1933 69.5382 23.0791 75.6935 20.1842 81.916 17.3965 102.166 9.52016 122.245-1.94645 144.107-2.45461 127.359 23.0041 128.233 55.7187 132.675 85.2441 137.047 111.217 149.152 134.444 161.395 156.864 171.255 174.853 174.753 195.624 181.075 215.149 165.364 219.141 149.221 218.007 133.279 217.274 133.613 216.434 134.32 214.748 134.689 213.903 135.735 212.731 137.818 210.425 138.86 209.253 130.385 210.682 123.286 215.294 118.678 223.245 117.337 224.893 114.61 228.227 113.264 229.912L111.279 229.768C109.231 229.618 105.158 229.329 103.139 229.217 95.2684 232.293 87.6005 238.596 78.8553 235.884" fill="#E61E25" fill-rule="evenodd" transform="matrix(1 0 0 -1 2045 1160)"/><path d="M84.4312 104.522C93.535 90.8446 106.259 80.9798 118.576 71.0441 126.064 56.704 133.08 42.0419 138.121 26.4592 139.831 19.859 145.268 16.1177 149.937 12.1254 139.796 11.8678 129.489 11.018 120.121 6.40106 122.007 6.76808 125.799 7.50211 127.679 7.86912 130.297 7.83037 135.468 7.72095 138.051 7.6437 142.65 6.40106 147.284 5.01002 151.718 3.10403 154.937 1.59722 158.062-0.162549 161.081-2.21354 162.29 17.5857 154.807 36.942 146.512 54.18 118.411 109.905 51.9377 136.454-2.79024 115.816 20.4758 112.223 44.0133 114.348 67.415 112.88 69.1897 103.453 77.0847 102.757 84.4312 104.522" fill="#EF8B13" fill-rule="evenodd" transform="matrix(1 0 0 -1 2445 1046)"/><path d="M97.3457 191.391C90.3201 190.341 83.3002 189.279 76.2745 188.369 78.558 189.172 83.1952 190.778 85.5196 191.581 84.2438 195.811 82.9973 200.078 81.7155 204.309 63.6445 192.529 45.5617 180.598 30.7764 164.007 27.9859 160.536 25.4341 156.856 22.9119 153.132 10.3808 131.761-1.04907 108.209-2.15599 82.3436-2.62771 62.7242-4.41048 42.1194 3.62317 23.8099 6.37864 38.6515 8.12635 53.716 9.07 68.813 10.6138 67.8645 13.7364 66.0057 15.3151 65.0571 16.5618 46.1996 13.4684 27.2723 11.0158 8.6385 23.5176 11.153 36.2175 12.7192 48.993 12.3944 52.2845 12.3944 55.5702 12.3197 58.8675 12.2451 59.2754 7.50427 59.6772 2.76274 60.0792-2.01539L61.4249-0.630022C58.8034 21.9138 67.9728 45.7999 87.8675 55.2822 96.8039 59.5867 106.719 60.3537 116.331 58.713 112.399 80.3779 116.297 105.174 134.14 118.344 153.662 135.232 185.656 129.795 199.737 107.507 202.224 102.841 204.642 98.1366 206.961 93.363 209.483 94.4883 212.035 95.6264 214.621 96.676 216.072 97.2956 219.025 98.5033 220.505 99.1229 229.879 103.713 240.196 104.554 250.344 104.813 245.672 108.784 240.231 112.508 238.518 119.071 233.473 134.575 226.453 149.161 218.956 163.419 206.629 173.308 193.888 183.115 184.782 196.721 177.425 194.97 169.525 195.659 167.743 205.035 144.324 206.496 120.771 204.378 97.4798 207.957 93.4483 208.21 89.883 206.749 86.7954 203.575 87.3607 196.5 90.8909 192.453 97.3457 191.391" fill="#F79710" fill-rule="evenodd" transform="matrix(1 0 0 -1 2345 1138)"/><path d="M2.23604 4.63709C11.819 2.59357 21.338 0.106608 30.9592-1.68145 22.8111 4.81874 12.7287 6.7185 2.96639 8.03666 31.5936 34.4527 55.4675 67.1872 69.1052 105.552 65.6524 111.07 60.2909 112.607 54.4553 112.276 43.0917 79.9795 23.8233 52.0637 2.36415 26.9282 1.76214 34.8526 0.519352 42.7458-2.89487 49.8329-2.39512 34.5595 3.30594 20.0224 2.23604 4.63709" fill="#3D271B" fill-rule="evenodd" transform="matrix(1 0 0 -1 2623 1116)"/><path d="M24.7973 18.6025C22.9255 20.2864 21.0196 21.9708 19.114 23.6184 11.2525 20.0356 3.56137 15.4536-1.20288 7.60804 0.941404 4.31824 3.01715 0.949904 5.12706-2.38202 4.61677-0.734265 3.56137 2.56077 3.05086 4.20828 10.2319 9.07776 17.5488 13.8427 24.7973 18.6025" fill="#3D271B" fill-rule="evenodd" transform="matrix(1 0 0 -1 1937 1057)"/><path d="M-2.06437 23.1791C-0.595811 12.1162 6.91652 3.39837 15.3986-2.09936 22.4067-0.338936 26.2807 7.46268 31.689 12.0802 41.2725 22.9929 55.8587 23.3294 68.6477 24.7545 68.1162 35.234 68.7848 45.6716 70.0503 56.0732 56.0615 78.4634 24.2752 83.9166 4.88366 66.9557 1.10819 52.8143-5.30261 38.1982-2.06437 23.1791" fill="#7C1755" fill-rule="evenodd" transform="matrix(1 0 0 -1 2474 1087)"/><path d="M41.2615 75.4427C36.8457 77.351 32.2282 78.7447 27.6464 79.9888 25.9097 74.451 19.0221 74.8531 17.321 80.2166 15.4481 79.8456 11.6723 79.1103 9.79338 78.7447 8.32338 78.1175 5.38336 76.9058 3.94313 76.2845 6.15403 76.3594 10.5638 76.5038 12.7747 76.5792 6.04736 70.8912-6.6847 66.8872-1.87156 54.8148 3.43935 45.2728 14.1441 40.8289 19.4963 31.1042 24.7717 21.0853 25.9808 9.34026 28.1859-1.78345 40.4553-1.48877 50.4191 8.16568 56.4354 19.1769 60.8512 32.8679 58.4803 47.7278 58.0121 61.8588 57.775 62.2069 57.4965 62.4911 57.1467 62.8504L55.6707 64.1745C47.414 67.9164 39.4538 72.5427 30.9597 75.6246 33.5322 75.5871 38.6831 75.4744 41.2615 75.4427" fill="#7C1755" fill-rule="evenodd" transform="matrix(1 0 0 -1 2555 1117)"/><path d="M9.13226 9.30553C14.317 4.0625 20.9744 1.22335 27.3334-1.90834 35.5973 14.8036 51.1209 24.1244 68.0192 26.5597 67.9162 38.1336 68.7864 50.6601 63.3647 61.1474 57.5106 69.192 49.2828 74.6877 41.5544 80.2956 31.9827 81.9312 22.1124 81.1695 13.2152 76.8726 9.06532 68.3909 2.77352 61.5451-1.94293 53.5733-4.52232 38.2851-2.81289 19.6101 9.13226 9.30553" fill="#7C1755" fill-rule="evenodd" transform="matrix(1 0 0 -1 2419 1160)"/><path d="M261.535 162.1C266.322 147.59 265.652 128.875 254.775 117.729 247.142 107.789 234.519 104.719 223.137 105.302 211.286 106.289 202.546 116.56 195.685 126.174 192.333 132.457 187.647 141.927 193.44 148.21 199.169 152.192 206.461 152.705 211.956 157.13 219.987 164.876 225.647 174.965 231.535 184.611 244.461 183.517 254.908 173.684 261.535 162.1ZM288.721 96.237C292.705 77.8523 285.774 54.9036 268.833 47.3391 255.173 39.188 237.865 43.2826 225.982 53.2219 217.976 61.7361 215.535 74.0193 216.541 85.8219 226.583 86.3721 237.131 85.6031 246.566 90.0608 253.965 93.4989 259.397 100.513 266.657 104.169 274.189 104.026 284.364 104.352 288.721 96.237ZM153.398 51.3213C147.409 58.5605 144.728 68.3182 145.6 77.9647 163.212 80.8147 176.53 94.0802 185.775 109.908 192.302 103.438 199.966 97.9933 205.228 90.1728 205.93 76.977 205.828 63.6367 209.009 50.7344 194.642 34.1062 167.063 33.5241 153.398 51.3213ZM106.835 120.98C95.579 146.31 116.972 178.179 142.483 175.478 149.856 161.731 162.77 154.717 175.329 147.954 179.376 133.664 176.669 115.684 165.52 105.888 147.744 88.3101 115.202 95.9492 106.835 120.98ZM129.664 35.2377C115.841 22.1536 92.6385 22.1908 79.8138 36.8497 77.4739 49.2025 78.1379 61.9924 76.5002 74.4949 86.4411 79.1337 95.0161 86.4793 101.106 96.3123 110.314 87.9414 120.761 81.2524 132.377 77.8204 132.377 63.8556 143.659 44.889 129.664 35.2377ZM158.52 233.808C163.642 239.653 170.377 243.711 177.542 245.723 199.935 252.812 226.621 229.601 222.567 203.69 221.53 180.079 197.829 161.844 177.106 168.313 152.063 173.758 139.409 214.073 158.52 233.808ZM262.104 216.155C256.077 205.19 246.098 195.576 233.818 195.282 231.604 206.359 230.396 218.055 225.11 228.032 219.753 237.715 209.041 242.141 203.716 251.643 198.897 263.665 211.653 267.652 218.381 273.316 216.174 273.241 211.754 273.097 209.54 273.022 206.967 271.966 204.424 270.828 201.908 269.697 199.599 274.485 197.19 279.199 194.711 283.875 193.44 273.497 192.77 263.083 193.301 252.631 180.483 251.205 165.856 250.875 156.243 239.985 150.824 235.377 146.941 227.595 139.909 225.838 131.404 231.321 123.872 240.022 122.405 251.056 119.148 266.04 125.579 280.624 129.367 294.733 111.585 281.537 107.702 256.687 111.623 234.977 119.356 229.345 127.59 223.831 133.446 215.755 138.872 205.227 137.999 192.65 138.1 181.029 121.197 178.584 105.659 169.226 97.3941 152.449 91.0322 155.593 84.3669 158.443 79.1814 163.706 67.2294 174.053 65.5219 192.8 68.1021 208.147 72.8196 216.155 79.1118 223.025 83.2665 231.539 63.4476 222.037 54.3097 198.101 56.9151 175.51L55.5809 174.122C53.437 173.465 49.1812 172.184 47.0438 171.527L48.1125 170.983C50.6863 169.776 55.8844 167.433 58.4582 166.227 65.3196 151.21 76.5696 139.146 91.9365 135.238 92.8408 125.224 95.9204 113.527 88.7239 105.302 82.2926 93.6798 69.139 92.3992 58.1547 89.6605 65.2564 76.8325 71.8837 62.2113 68.3994 46.7522 62.7396 21.2036 31.9741 7.42576 12.6612 24.9346 7.73497 20.9842 2.64411 17.3334-2.50972 13.7883 9.74582 2.85623 26.1499-4.63366 42.0858 0.261866 53.9368 2.67404 63.3401 11.3756 71.2451 20.8032 81.4896 13.3459 92.9672 6.36809 105.798 7.6439 122.866 6.98753 137.398 19.1961 146.404 34.068 155.915 26.0287 166.956 18.6838 179.445 19.2658 194.749 18.2089 208.472 27.3853 218.849 38.8564 236.929 20.2212 267.397 19.7781 284.971 39.4066 301.406 56.5853 301.976 85.1656 290.593 105.67 302.045 109.139 312.486 116.96 318.177 128.549 329.895 149.784 325.076 181.179 305.593 194.844L303.348 192.4C309.476 180.885 323.331 168.202 315.97 153.804 310.114 134.688 293.407 119.373 274.157 122.811 273.651 134.288 274.454 146.203 271.04 157.237 266.423 169.045 257.083 177.41 249.153 186.442 256.343 194.262 265.051 200.401 275.093 202.74 276.168 218.129 270.477 232.671 269.971 247.949 268.668 251.936 266.594 255.519 263.679 258.657 264.147 244.586 266.524 229.788 262.104 216.155" fill="#5D133E" fill-rule="evenodd" transform="matrix(1 0 0 -1 2350 1314)"/><path d="M294.027 102.648C296.204 117.693 291.213 132.737 294.159 147.781 293.087 144.563 292.182 141.302 291.443 138.008 288.698 126.92 288.262 115.351 288.967 103.931 238.31 105.503 186.246 112.239 140.413 137.425 130.061 142.51 120.446 149.134 112.07 157.479 88.6516 177.833 62.9548 198.587 49.7881 228.82L49.3526 229.809C30.6245 242.806 21.143 267.693 20.6743 291.232 18.8314 290.462 15.0786 288.885 13.2362 288.083L14.0401 287.351C15.9164 285.667 17.7924 283.945 19.6353 282.224 12.4991 277.359 5.29617 272.488-1.77341 267.511-1.27082 265.827-0.23203 262.459 0.270554 260.775 9.98644 239.764 17.7592 217.438 30.0544 197.967 27.7094 180.982 26.6374 163.558 32.0647 147.086 40.4069 107.738 68.4824 78.344 97.4962 55.6489 160.717 9.238 239.25-5.91863 314.227-0.828871 306.118 20.6203 301.631 43.3901 297.041 65.9352 294.629 77.9803 292.251 90.3143 294.027 102.648" fill="#EDCE0A" fill-rule="evenodd" transform="matrix(1 0 0 -1 1942 1320)"/><path d="M7.05662 2.30383C4.56201 2.39352-0.4214 2.5282-2.94356 2.5729-1.29713-3.8042 5.37145-4.28256 7.05662 2.30383" fill="#5D133E" fill-rule="evenodd" transform="matrix(1 0 0 -1 2576 1040)"/><path d="M24.9928-0.430076C45.8018-6.97933 69.599 11.48 70.6447 35.3803 74.7129 61.6098 47.9215 85.1024 25.4327 77.9289 18.2392 75.8921 11.48 71.7853 6.33779 65.868-12.8543 45.8903-0.14724 5.08223 24.9928-0.430076" fill="#7C1755" fill-rule="evenodd" transform="matrix(1 0 0 -1 2502 1146)"/><path d="M18.4155 50.277C12.902 45.8728 5.57047 45.363-0.181495 41.3993-5.99895 35.1462-1.29013 25.7214 2.07758 19.4682 8.96813 9.90009 17.742-0.321783 29.6512-1.30502 41.0836-1.88404 53.7616 1.17133 61.4329 11.0637 72.3586 22.1566 73.0323 40.7831 68.222 55.2232 61.5641 66.7518 51.0734 76.538 38.0914 77.6276 32.1725 68.027 26.4862 57.9858 18.4155 50.277" fill="#7C1755" fill-rule="evenodd" transform="matrix(1 0 0 -1 2543 1207)"/><path d="M69.2248 49.898C56.5568 56.6356 43.5237 63.6236 36.0865 77.3169 10.3526 80.0081-11.2348 48.2599 0.120107 23.027 8.56555-1.90909 41.3934-9.51884 59.3302 7.99258 70.5761 17.751 73.3111 35.6619 69.2248 49.898" fill="#7C1755" fill-rule="evenodd" transform="matrix(1 0 0 -1 2456 1216)"/><path d="M20.3322 144.162 23.2914 142.409C28.8665 140.102 34.8489 139.226 40.6596 137.799 34.8145 125.913 21.5444 127.703 11.0566 125.62 12.0332 124.231 13.9817 121.416 14.9583 120.027L16.8036 121.597C20.8032 126.79 25.0041 127.196 29.4702 122.805 44.0213 108.248 43.9526 84.1451 40.4584 64.5775 34.2748 39.305 15.6944 21.2011-2.98407 6.31856 16.4012-11.2029 47.2799 2.5845 52.9581 28.1509 56.4525 43.6212 49.8025 58.2529 42.6767 71.0893 53.6991 73.8299 66.9007 75.1119 73.3544 86.7412 80.5783 94.9731 77.4866 106.677 76.5785 116.699 61.1588 120.609 49.8664 132.682 42.9809 147.709 40.3945 148.916 35.1826 151.261 32.5963 152.468 29.4358 148.077 25.338 145.299 20.3322 144.162" fill="#7C1755" fill-rule="evenodd" transform="matrix(1 0 0 -1 2365 1296)"/><path d="M37.6161 70.8207C28.3149 54.9469 14.9054 41.6426-2.82582 38.7841-3.70265 29.1094-1.00497 19.3224 5.02528 12.0627 18.7776-5.78641 46.5465-5.2034 61.0126 11.4741 57.8091 24.4137 57.9103 37.7933 57.2022 51.0281 51.9081 58.8715 44.1916 64.3319 37.6161 70.8207" fill="#7C1755" fill-rule="evenodd" transform="matrix(1 0 0 -1 2498 1275)"/><path d="M21.5666 69.7452C15.4908 59.8682 6.93999 52.4897-2.96943 47.83-1.33683 35.2711-2.00336 22.423 0.331934 10.0148 13.1194-4.71046 36.2551-4.74803 50.0395 8.39483 63.9945 18.09 52.7469 37.1427 52.7469 51.1703 41.1583 54.6182 30.7476 61.3369 21.5666 69.7452" fill="#7C1755" fill-rule="evenodd" transform="matrix(1 0 0 -1 2429 1287)"/><path d="M30.3448 89.3101C30.3154 84.6572 30.3154 79.9346 30.2811 75.2496 25.1561 75.3564 20.036 75.4689 14.9109 75.3939 10.4557 68.7675 4.02971 64.8473-2.73343 61.7024 8.74907 60.0498 22.8137 60.4188 29.176 47.5671 21.0728 44.818 12.7688 42.8445 4.39668 41.2669 7.8785 39.8763 11.3946 38.6302 14.945 37.3892 27.2003 36.3249 39.4849 37.0203 51.74 37.4213 54.7231 24.8637 57.2318 12.1563 60.3811-0.401569 66.4747 8.86177 70.8271 19.1519 73.3015 30.2121 80.8034 17.467 92.6233 9.08105 101.895-1.97377 102.267 6.55676 101.328 15.0123 99.6557 23.2912 98.6823 24.6819 96.7409 27.5004 95.7677 28.891 106.219 30.9768 119.442 29.185 125.266 41.0849 119.476 42.513 113.515 43.3901 107.959 45.7005 102.702 48.0804 97.6115 50.8989 92.4864 53.5732 97.5429 57.3063 102.634 61.0392 107.153 65.6173 109.329 68.1847 111.505 70.7837 113.652 73.3831 100.927 73.7093 88.2709 72.1368 75.8152 69.6125 78.2603 88.3208 81.3413 107.323 80.0991 126.256 78.5244 127.208 75.4142 129.074 73.8736 130.026 72.9347 114.869 71.1938 99.7445 68.4504 84.8444 68.3475 79.1324 68.2156 73.4204 68.0787 67.7033 55.0213 73.8215 42.7662 81.8012 30.3448 89.3101" fill="#4DBB38" fill-rule="evenodd" transform="matrix(1 0 0 -1 2280 1199)"/><path d="M-2.8921 62.449C5.04642 53.4633 14.4006 45.1414 19.0242 33.3944 22.44 22.4171 21.6412 10.5631 22.1444-0.855022 41.4123-4.27487 58.139 10.9616 64.0018 29.9794 71.3745 44.3026 57.5036 56.9206 51.3704 68.3761L53.616 70.8085 52.7796 71.4506 51.8045 72.3752C42.1862 74.1544 32.6685 76.6291 23.0816 78.6627 13.0293 76.3369 4.31064 70.2297-2.8921 62.449" fill="#7B1755" fill-rule="evenodd" transform="matrix(1 0 0 -1 2602 1190)"/><path d="M-2.71028 41.6836C-3.717 29.9144-1.2617 17.666 6.79765 9.17542 18.7671-0.735651 36.1933-4.81867 49.949 3.30934 67.007 10.8524 73.9859 33.736 69.9716 52.0694 65.5891 60.1604 55.3445 59.8353 47.7577 59.9792 40.4471 56.3329 34.978 49.3381 27.5263 45.91 18.0244 41.4653 7.40531 42.2318-2.71028 41.6836" fill="#7B1755" fill-rule="evenodd" transform="matrix(1 0 0 -1 2569 1270)"/><path d="M119.067 57.2412C116.047 62.1776 122.558 71.2113 127.426 66.7878 131.353 61.7021 123.73 53.8383 119.067 57.2412ZM112.993 120.884C114.871 121.028 118.597 121.322 120.474 121.466 119.974 119.639 118.901 115.905 118.396 114.077 116.817 113.42 113.694 112.138 112.15 111.519 112.351 113.858 112.787 118.538 112.993 120.884ZM133.632 96.7044C139.373 92.4628 131.416 87.7828 128.764 85.0744 129.372 88.5469 127.794 103.142 133.632 96.7044ZM96.0062 81.415C96.6436 82.991 97.8889 86.1321 98.5263 87.7082 111.179 94.5836 101.879 69.2025 96.0062 81.415ZM84.1278 34.0505C80.3333 39.099 87.785 47.6946 92.5158 43.672 95.7709 38.693 88.8929 30.5034 84.1278 34.0505ZM72.4795 108.153C74.4944 112.614 73.2494 122.053 79.7303 121.065 83.0197 114.409 76.7741 111.08 72.4795 108.153ZM72.9846 60.5695C66.2339 58.0802 67.6802 69.7102 71.9746 71.6119 79.7941 75.5652 79.5293 61.5898 72.9846 60.5695ZM54.017 16.528C55.5271 21.4695 55.0564 30.3218 62.0423 28.4198 65.0279 21.7634 57.7086 19.6052 54.017 16.528ZM49.0852 140.484C49.4529 144.181 49.8207 147.91 50.1933 151.607 51.7669 151.933 54.8897 152.595 56.4683 152.921 56.4339 147.29 54.3554 142.167 49.0852 140.484ZM41.2952 74.2457C41.4962 80.5763 43.0748 87.1578 50.3941 84.6363 48.4137 80.1008 46.6683 74.7586 41.2952 74.2457ZM37.3684 105.3C31.7306 110.129 40.1874 123.405 44.4867 114.702 45.6927 110.423 41.9326 103.254 37.3684 105.3ZM29.9854 30.7971C24.882 29.8784 23.5437 37.8169 26.2252 41.1826 32.569 49.0463 37.5695 32.8058 29.9854 30.7971ZM23.5437 136.648C17.901 137.631 20.8227 146.558 24.6172 148.204 32.9415 150.912 30.7256 135.217 23.5437 136.648ZM19.8472 64.5921C14.7144 65.2492 16.494 71.3555 15.7538 75.2339 17.5333 75.5652 21.0237 76.2224 22.769 76.5535 22.2003 72.4934 22.0287 68.1769 19.8472 64.5921ZM32.3041 179.296C35.0546 174.979 30.7599 168.83 26.3968 168.723 18.3373 170.844 26.6272 184.595 32.3041 179.296ZM8.53732 107.239C8.87553 112.651 5.85069 120.99 13.1015 122.091 13.1358 116.636 13.4397 110.423 8.53732 107.239ZM149.041 121.466C154.644 126.333 157.63 115.103 153.203 111.919 147.697 106.983 144.81 118.356 149.041 121.466ZM168.405 103.799C171.896 123.368 171.964 147.472 157.429 162.029 152.968 166.421 148.771 166.015 144.776 160.822L142.932 159.252C144.609 150.982 145.55 142.536 145.178 134.015 135.883 145.057 124.033 153.434 116.513 166.164 114.033 155.117 109.669 144.838 103.561 135.585 100.404 148.129 97.8889 160.822 94.8984 173.366 83.2209 167.404 69.1213 163.931 58.0125 173.334 54.4534 174.573 50.9286 175.818 47.4379 177.207 55.8309 178.783 64.1552 180.754 72.2787 183.5 65.9006 196.337 51.8011 195.969 40.2902 197.62 47.0703 200.761 53.5122 204.677 57.9781 211.296 31.8337 213.892 9.47853 193.41 0.0805345 168.21-0.355601 166.928-1.26267 164.444-1.69903 163.2-4.65025 148.166 0.350247 133.133-1.83132 118.1-3.61089 105.776-1.22832 93.451 1.18861 81.415 5.78711 58.8868 10.2825 36.1342 18.4058 14.7011 23.5437 5.01008 32.6033-3.98614 43.7122-0.845022 68.0479 4.64154 88.4565 21.4323 109.802 34.3819 114.969 37.929 120.072 41.5833 125.009 45.5364 143.668 60.42 162.228 78.5248 168.405 103.799" fill="#E51E25" fill-rule="evenodd" transform="matrix(1 0 0 -1 2237 1335)"/><path d="M-2.99152 5.98994C2.2588 3.28508 7.47402 0.434236 12.8598-1.97302L9.83883-0.198655 7.95505 1.06171C8.33076 7.80197 16.7324 7.32071 21.2614 8.76496 23.4557 9.43035 27.8142 10.7286 30.0087 11.394 29.5979 16.2464 29.1871 21.0609 28.7712 25.8754 25.4095 25.9512 22.053 26.0268 18.6912 26.0268 16.4919 23.3978 14.2625 20.7687 12.0331 18.1722 7.40403 13.5416 2.18859 9.76563-2.99152 5.98994" fill="#F9D905" fill-rule="evenodd" transform="matrix(1 0 0 -1 2375 1152)"/><path d="M60.652 51.5457C69.057 43.2198 78.706 36.6116 89.0939 31.5392 135.085 6.41263 187.33-0.307756 238.162-1.8759 237.455 9.51665 237.892 21.0587 240.647 32.1207 241.388 35.4063 242.297 38.6598 243.372 41.8706 243.809 43.1133 244.717 45.5933 245.155 46.8736 228.783 46.9481 210.998 43.2946 195.967 52.2071 174.116 52.7139 154.047 64.1438 133.807 71.995 127.588 74.7738 121.436 77.6591 115.317 80.7634 114.443 81.2007 112.661 82.1502 111.787 82.5873 109.971 83.4623 106.374 85.2169 104.559 86.0916 90.4722 92.3375 76.756 99.4578 62.8715 106.253 53.7941 110.12 44.952 114.573 35.606 117.715 23.2343 120.126 10.8961 124.472-1.84547 122.718 11.3669 92.5559 37.1529 71.8508 60.652 51.5457" fill="#F8D909" fill-rule="evenodd" transform="matrix(1 0 0 -1 1993 1214)"/><path d="M-2.91419-0.675248-1.08315-1.94097C3.88388-0.784 7.94991 2.04033 11.0859 6.50507L10.0196 7.05897C5.61741 5.60886-2.549 6.09231-2.91419-0.675248" fill="#561C17" fill-rule="evenodd" transform="matrix(1 0 0 -1 2386 1150)"/><path d="M-2.63814 4.10119C8.50518-5.54088 22.6485-1.97992 34.3622 4.1341 22.0387 3.72325 9.68562 3.01101-2.63814 4.10119" fill="#B1852E" fill-rule="evenodd" transform="matrix(1 0 0 -1 2298 1166)"/><path d="M-1.1175 52.9881C-1.95818 48.6313 0.586966 44.6081 2.79131 41.2096 8.49568 33.9888 16.1684 29.1345 22.9226 23.2003 27.1006 20.0188 31.0299 16.3712 35.6616 13.9256 44.9593 7.79029 56.3241 9.03427 66.3865 5.29679 75.6024 3.23232 83.7859-3.93019 93.5215-2.91386 101.761-1.57979 107.564 6.19677 110.718 14.0314 108.944 15.5085 106.948 14.206 105.196 13.5814 95.9565 9.33057 86.0289 5.24909 75.8124 6.64676 57.4407 9.07113 41.2411 20.6435 28.2901 34.4441 19.7536 42.7976 8.38037 46.2228-1.1175 52.9881" fill="#DB7919" fill-rule="evenodd" transform="matrix(1 0 0 -1 1920 954)"/><path d="M54.3745 65.284C44.1458 64.9041 35.0761 59.0064 25.1075 57.2992 21.7678 56.5712 18.5976 58.0807 15.5713 59.4023 26.5477 56.261 36.4916 63.7483 46.8854 66.0494 54.8386 68.1044 63.0791 67.0876 70.9569 65.1717 65.6049 63.4592 59.877 65.9583 54.3745 65.284ZM62.8396 47.0826C70.8679 44.6635 79.0506 42.2177 87.4448 42.2177 89.1341 42.1162 90.7581 41.5969 92.3863 41.1637 91.396 40.0344 90.4479 38.5199 88.8049 39.0174 77.2595 39.6328 66.5495 44.899 55.417 47.7248 48.6259 48.9985 41.7345 49.2393 34.8556 49.0681 44.1489 51.0644 53.8835 50.5613 62.8396 47.0826ZM36.0394 68.8966C28.9082 67.4568 21.9993 64.9202 15.4152 61.6395 10.1305 58.8941 4.02747 59.3169-1.25675 56.6355-0.684179 53.2212 1.39095 50.513 3.817 48.3991 9.65075 43.7004 14.5362 37.6475 17.6956 30.4973 18.6088 27.9874 20.745 26.5854 22.7754 25.2688 21.9374 29.9301 19.3442 34.4523 20.6186 39.3279 25.7154 37.4709 29.0847 31.2145 34.8708 31.7337 43.9109 31.5679 54.0683 32.6704 61.8421 26.6762 54.459 31.1183 45.9516 29.8765 37.9186 29.427 45.2949 23.1174 54.9634 21.9078 63.8056 19.4673 72.1316 17.134 80.1297 13.4948 87.7279 9.12237 97.1933 3.97402 106.354-3.43288 117.435-3.1706 123.177-2.76925 129.562-2.43755 134.307 1.52283 125.09 4.54122 115.35 2.47554 105.994 4.24678 101.25 5.09258 99.5708 10.4068 96.7023 13.8265 89.3803 17.6905 80.7678 18.7876 74.2922 24.5034 66.297 32.0226 57.8426 39.8951 47.2099 42.3034 40.5328 44.0535 33.6612 42.4267 26.9266 43.4166 20.9662 43.9838 15.1206 46.435 10.5349 50.6577 15.559 48.9451 20.3438 46.2263 25.6217 45.4558 32.7558 44.2193 40.0727 45.9212 47.1623 44.1285 54.7082 43.1436 60.2706 35.5709 68.1549 36.1276 86.8378 37.0053 106.043 34.3668 123.057 25.5577 124.994 24.83 127.149 22.9353 129.143 24.5516 121.34 36.545 109.507 45.4397 96.2854 48.6186 86.364 50.5345 76.1009 49.8976 66.3676 53.0178 61.2729 54.1739 56.7106 57.1548 51.6331 58.284 48.1885 59.0653 45.1594 56.8817 42.2795 55.196 44.2585 57.7059 46.6157 60.3551 49.8966 60.3497 59.6267 60.2106 68.5313 55.2868 77.8846 53.0339 83.7526 51.6155 89.8272 51.8242 95.7198 50.5077 100.884 49.6407 105.629 47.1147 110.544 45.3111 110.325 45.9053 109.896 47.0826 109.677 47.6766 104.855 51.91 99.5623 56.138 93.2481 57.0369 84.7662 58.4499 75.9526 56.93 67.6452 59.82 73.8131 59.67 79.9687 59.3916 86.131 59.4613 95.6722 59.8626 104.362 54.2594 111.67 48.1101 120.533 40.3822 128.007 30.8024 133.932 20.2595 136.747 15.4911 137.895 9.83959 140.615 5.01222 141.69 18.5684 135.891 31.7337 128.226 42.0411 121.771 50.101 113.404 56.186 104.336 60.2106 83.0823 70.6091 58.9219 73.0603 36.0394 68.8966" fill="#DB7919" fill-rule="evenodd" transform="matrix(1 0 0 -1 1896 937)"/><path d="M57.9427 88.7538C55.2031 78.889 57.6379 68.7621 59.7057 59.0578 61.92 48.251 59.8291 37.123 56.3344 26.9318 56.1797 27.2531 55.8823 27.9061 55.7281 28.2325 56.9453 34.8644 58.8773 41.4479 58.7948 48.2778 59.0016 58.2657 55.2822 67.7128 55.1147 77.6578 55.1077 81.5707 56.6707 85.1782 57.9427 88.7538ZM55.698 9.11854C59.5964 19.8291 62.1657 31.1122 63.6085 42.5076 65.2771 57.4519 64.8547 72.9047 60.3784 87.2656 58.2149 93.5549 60.0819 100.62 57.3821 106.738 53.7588 105.919 50.8331 103.398 48.2496 100.669 44.6203 96.5951 40.3218 93.2285 35.4602 91.0982 32.5889 89.5835 29.0886 88.9358 27.1251 85.9489 16.0957 84.8358 5.80791 78.948-1.49188 70.0038 1.56044 68.928 4.5552 67.7289 7.48411 66.3802L7.60055 66.396C10.9887 69.3347 13.551 73.2153 16.8402 76.2984 19.7837 79.4081 23.4841 81.5546 26.2646 84.8516 30.2377 84.7554 34.0787 86.0614 38.0497 86.1951 39.1557 82.0844 34.9731 80.0131 33.154 77.1119 30.1635 73.7879 30.3829 68.9226 29.8018 64.6672 29.5105 60.8884 28.4583 57.2541 27.9608 53.5234 30.246 51.4732 32.3695 49.2787 34.2961 46.9396 36.6725 51.0022 38.7971 55.3163 39.7025 60.0588 41.0816 67.1455 40.766 74.591 43.2033 81.4153 44.8141 86.6233 47.9048 91.0768 51.4539 94.9091 49.191 90.4613 46.4525 86.2487 44.9681 81.3885 42.8293 75.0781 42.7182 68.2803 41.7548 61.7127 40.9112 55.8731 38.395 50.5099 35.2705 45.7194 36.8136 43.6371 38.2185 41.5282 39.4852 39.3873 44.4005 47.7532 44.8788 58.3887 46.4195 67.9697 47.242 57.3343 44.5823 46.9718 40.6844 37.3103 42.1016 34.768 43.3209 32.1934 44.3402 29.6135 46.297 34.9017 48.5153 40.0724 51.1738 45.0074 53.6664 49.2039 52.6799 54.2619 52.6848 58.9133 54.0286 55.8624 55.3928 52.5116 54.5818 49.0538 52.8721 40.7788 48.9946 33.2907 46.0124 25.5081 45.9625 25.4278 45.9259 25.3313 45.8879 25.2512 46.9619 21.8522 47.692 18.4641 48.0644 15.1028 49.0063 21.119 50.174 27.1298 52.4274 32.7285 50.8695 24.6944 50.0342 16.5372 48.9328 8.43338 48.5183 5.97137 48.9101 3.54663 49.4468 1.14868 49.7784-0.328576 50.1646-1.80072 50.4527-3.26189 52.4207 0.757991 54.1598 4.89552 55.698 9.11854" fill="#DB7919" fill-rule="evenodd" transform="matrix(1 0 0 -1 1992 939)"/><path d="M53.555 26.0186C50.4729 27.3735 47.2733 25.842 44.2131 25.1833 28.3566 21.0439 13.805 12.0583 1.53486 0.51295 0.598576-0.429611-0.488028-1.2864-1.44499-2.26088-0.15234-2.61446 1.13289-3.01069 2.40936-3.43908 12.1117 7.59751 26.0785 12.3634 39.1811 16.8136 44.5487 18.7306 48.8967 22.7041 53.555 26.0186" fill="#DB7919" fill-rule="evenodd" transform="matrix(1 0 0 -1 1986 865)"/><path d="M22.402 21.5299C22.4016 21.5299 22.4016 21.5299 22.4016 21.5299 12.0048 20.047 5.54863 10.1074-1.45748 2.68748-1.38322 2.66058-1.29614 2.61755-1.22008 2.57452 2.56437 0.89827 6.1598-1.10585 9.53673-3.37866 14.8045 3.70286 18.7739 11.8213 23.9475 19.0047 23.943 19.0101 23.936 19.0263 23.931 19.0316 25.0683 20.8636 24.6536 21.9543 22.402 21.5299" fill="#DB7919" fill-rule="evenodd" transform="matrix(1 0 0 -1 2003 877)"/><path d="M3.53125-3.51302C3.93404 1.15756 4.35023 5.79944 4.56668 10.4871 1.95131 7.78826 0.241936 4.25404-1.43338 0.725512 0.296871-0.592613 1.95702-2.01881 3.53125-3.51302" fill="#DB7919" fill-rule="evenodd" transform="matrix(1 0 0 -1 2015 882)"/><path d="M67.5819-3.05563C67.7989-0.892585 67.0734 1.16483 66.0814 3.01121 61.3838 12.5814 52.2604 18.2579 43.0167 21.4972 29.4911 26.1238 15.176 28.5296 0.97386 27.8228-0.478944 28.0864-0.838762 26.4722-1.37982 25.4382 3.15473 20.8694 7.81484 16.1371 13.9894 14.3539 18.7121 12.0749 24.1193 12.9348 28.7885 10.6136 32.3668 9.01492 29.5339 3.07459 32.9549 1.42338 39.1751-2.72337 46.5987 0.225667 53.3489-1.39385 53.8165-1.01934 54.732-0.285925 55.1952 0.0780232 50.5562 3.31202 45.5602 5.9288 41.3855 9.8907 35.8252 14.8551 28.8638 17.0393 22.4123 20.1782 29.7695 19.4715 37.6893 17.4033 43.0823 11.563 50.0384 4.62569 58.824 0.50535 67.5819-3.05563" fill="#DB7919" fill-rule="evenodd" transform="matrix(1 0 0 -1 1967 931)"/><path d="M55.6862-0.728821C51.1489 2.65484 45.4971 3.74079 40.7217 6.70477 29.1322 13.8605 16.5034 18.7708 3.82356 23.2246 2.14196 23.7229 0.411647 23.8699-1.31373 24.0272-1.08389 22.6474-0.561358 21.4356 0.276078 20.3865 12.9617 7.94303 28.8851-2.40227 46.5837-2.95825 49.7061-2.9425 53.322-3.35167 55.6862-0.728821" fill="#DB7919" fill-rule="evenodd" transform="matrix(1 0 0 -1 1952 942)"/><path d="M96.4875 3.65875C84.8427-0.465445 71.772 2.31397 61.2413 8.6618 72.5517 4.5111 84.5879 3.25113 96.4875 3.65875ZM-1.2626 74.9975-1.0587 72.3822C5.14012 49.1461 19.9167 29.3673 37.8867 15.3801 52.6128 3.84401 70.5461-3.72115 88.9284-2.9483 98.1223-2.72063 107.055 0.434608 115.042 5.25239 123.066 11.0283 130.859 18.6889 132.737 29.4148 132.433 29.7379 131.82 30.3784 131.516 30.7013 127.269 26.0107 126.917 18.5301 121.914 14.5278 119.931 12.7383 117.638 11.3882 115.263 10.2923 111.32 8.79936 107.117 8.34933 102.955 8.6406 95.0818 8.84706 87.8815 13.7335 79.9304 13.1035 62.8728 11.5841 44.4811 14.443 30.5863 25.9524 20.605 34.8785 14.7441 47.7644 9.56768 60.338 7.18984 66.1456 3.20303 70.9581-1.2626 74.9975" fill="#DB7919" fill-rule="evenodd" transform="matrix(1 0 0 -1 1903 967)"/><path d="M7.46182 15.7843C15.3856 6.21704 25.9856-1.26698 37.8745-2.99164 37.8178-2.54331 37.7343-1.64162 37.6827-1.18274 29.6643 9.5238 18.7278 16.8021 8.87023 25.2462 5.26354 28.1944 2.87371 32.6087-1.12594 35.0085-0.84105 27.6196 3.25942 21.2482 7.46182 15.7843" fill="#DB7919" fill-rule="evenodd" transform="matrix(1 0 0 -1 1920 947)"/><path d="M15.2333-2.78587C19.3332-2.50236 24.3389-4.10142 27.7134-0.956851 18.4597 3.29447 7.74817 1.92563-1.2865 7.05398 3.06098 2.01104 8.49765-2.78587 15.2333-2.78587" fill="#DB7919" fill-rule="evenodd" transform="matrix(1 0 0 -1 1957 950)"/><path d="M161.083 1033.95C177.182 1051.11 195.136 1066.26 214.41 1079.12 225.006 1086.16 236.012 1092.54 247.394 1098.14 253.494 1101.15 260.915 1100.98 266.92 1097.75 276.793 1092.37 286.225 1086.16 295.406 1079.58 285.628 1067.6 282.075 1050.84 284.496 1035.35 290.281 994.628 327.478 961.243 366.625 964.344 345.432 959.538 324.114 968.985 306.631 981.137 297.607 980.574 288.71 982.576 280.219 985.579 249.752 995.53 217.46 997.995 185.798 995.191 164.668 992.957 143.758 987.25 124.579 977.604 123.824 977.199 123.038 976.835 122.283 976.397 120.396 975.429 118.51 974.428 116.686 973.361 129.012 995.464 144.01 1015.82 161.083 1033.95ZM392.816 1041.76C378.038 1067.87 351.092 1084.16 323.013 1087.99 352.726 1092.27 382.125 1070.77 392.816 1041.76ZM225.918 894.711C225.006 867.338 228.685 838.031 244.627 815.563 223.026 833.961 215.825 867.711 225.918 894.711ZM890.113 1170.95C890.526 1160.94 888.859 1149.69 881.527 1142.64 874.959 1136.67 863.42 1141.8 861.908 1150.66 855.527 1166.98 859.049 1185.24 867.409 1200.06 868.921 1202.76 870.588 1205.37 872.411 1207.81 876.213 1202.66 880.016 1197.26 883.163 1191.48 886.623 1185.11 889.233 1178.29 890.113 1170.95ZM778.049 1143.51C767.236 1146.78 764.628 1158.9 765.505 1169.15 765.694 1180.1 770.883 1189.54 775.411 1198.99 780.067 1191.72 785.88 1184.27 786.667 1175.19 786.667 1164.04 783.114 1153.19 778.049 1143.51ZM-0.0603965 607.757C0.0340644 605.992 0.128107 604.188 0.285682 602.419 23.0188 265.424 288.52-1.36453 611.625-1.36453 921.497-1.36453 1178.38 243.994 1218.97 561.36 1221.93 584.358 1223.72 607.757 1224.35 631.493 1224.35 631.527 1224.35 631.527 1224.35 631.561 1224.35 737.449 1198.19 842.704 1158.16 939.28 1152.72 952.73 1146.44 965.751 1140.12 978.771 1134.23 990.856 1128.32 1002.94 1123.04 1015.32 1132.44 1008.85 1140.33 1000.2 1145.43 989.582 1154.67 969.523 1179.51 964.344 1198.15 971.028 1229.16 982.741 1251.52 1010.18 1268.68 1038.86 1253.65 1041.63 1239.07 1046.6 1225.26 1053.44 1231.67 1064.97 1237.84 1076.71 1242.05 1089.37 1254.03 1130.83 1248.21 1175.09 1238.28 1216.29 1212.3 1212.78 1185.49 1205.4 1164.79 1187.57 1150.93 1174.59 1141.34 1157.43 1130.68 1141.61 1128.27 1142.24 1125.83 1142.88 1123.45 1143.54 1121.69 1157.1 1122.69 1171.19 1117.76 1184.07 1112.48 1202.66 1095.94 1214.65 1079.18 1220.12 1050.57 1228.97 1020.48 1235.01 994.596 1251.5 990.763 1238.65 986.641 1225.9 982.403 1213.22 967.178 1229.5 949.227 1244.72 927.122 1248.13 908.478 1254.17 889.957 1247.03 873.634 1237.65 872.536 1237.02 871.468 1236.38 870.401 1235.75 855.402 1243.36 839.149 1249.5 822.258 1248.03 808.397 1248.46 795.097 1243.62 783.519 1235.78 778.774 1232.61 774.341 1228.87 770.254 1224.83 751.829 1227.57 732.463 1228.67 715.608 1218.68 691.552 1205.37 674.542 1179.4 647.344 1172.09 629.609 1165.28 608.796 1167.15 593.108 1178.5 575.371 1192.75 577.667 1224.66 594.582 1238.55 604.143 1245.73 616.281 1245.66 627.473 1246.89 614.205 1253.3 598.044 1255.64 584.96 1247.33 559.398 1229.5 556.634 1184.14 581.346 1164.27 603.385 1143.51 636.783 1144.95 662.656 1156.13 688.567 1166.38 705.041 1192.35 730.478 1203.4 739.126 1206.5 748.274 1207.24 757.331 1208.07 750.194 1188.95 742.901 1167.58 748.811 1146.98 753.776 1130.45 772.895 1120.14 787.929 1128.92 803.27 1139.41 806.418 1160.43 805.693 1178.33 804.493 1192.62 796.32 1205.1 787.734 1215.65 795.027 1219.42 802.32 1223.73 810.119 1226.2 813.609 1227.3 817.201 1228.03 820.941 1228.21 833.454 1230.57 845.087 1223.93 856.844 1220.52 854.522 1216.72 852.317 1212.74 850.338 1208.68 841.627 1191.11 836.54 1171.19 841.69 1151.59 844.736 1134.8 858.106 1117.64 875.652 1119.54 895.77 1120.41 907.628 1143.34 908.353 1162.51 909.101 1167.18 909.132 1171.75 908.571 1176.16 906.561 1193.52 895.957 1208.87 886.342 1222.83 889.233 1223.93 892.155 1225.16 895.115 1226.29 903.008 1229.34 911.181 1231.84 919.635 1230.37 941.015 1226.23 963.025 1215.04 976.45 1196.72 975.733 1189.48 974.284 1182.24 972.648 1175.02 969.664 1161.77 966.017 1148.52 965.043 1135.16 964.412 1127.09 964.786 1119.01 966.827 1110.83 971.798 1093.17 988.215 1084.32 1001.92 1075.48 1001.68 1073.78 1001.14 1070.3 1000.85 1068.6 984.093 1070 967.054 1076.07 950.294 1071.81 923.445 1064.49 900.242 1046.54 881.621 1025.2 899.954 1001.07 920.546 978.605 944.825 961.176 965.355 945.054 990.545 936.004 1016.23 938.61 1009.09 924.357 1005.1 908.698 1002.64 892.808 1027.49 887.605 1054.62 888.738 1076.73 903.09 1091.09 911.337 1103.45 924.928 1107.14 942.283 1108.36 949.827 1108.26 957.338 1107.67 964.849 1106.5 979.267 1103.61 993.661 1105.09 1008.14 1136.34 944.955 1157.88 876.487 1171.71 806.753 1171.27 807.216 1170.84 807.65 1170.39 808.118 1149.36 829.883 1128.38 851.853 1104.77 870.44 1099.68 874.915 1092.95 875.652 1086.89 877.687 1085 869.208 1087.76 861.631 1094.3 857.056 1123.39 831.818 1156.09 794.802 1180.14 762.622 1181.24 756.244 1182.28 749.833 1183.19 743.392 1187.66 712.748 1189.98 681.333 1189.98 649.387 1189.98 622.951 1188.41 596.909 1185.33 571.34 1149.11 269.465 905.649 35.355 611.625 35.355 308.707 35.355 59.4606 283.82 35.2185 598.913 34.4952 608.192 33.9608 617.572 33.6778 626.987 33.426 633.633 33.3006 640.274 33.3006 646.949 33.2693 647.753 33.2693 648.587 33.2693 649.387 33.2693 655.799 33.3633 662.172 33.5518 668.515 33.9608 683.235 34.8728 697.857 36.2874 712.314 37.0734 720.559 38.0168 728.769 39.1175 736.917 39.1175 736.883 39.1488 736.814 39.1488 736.78 39.1802 737.151 39.2115 737.516 39.2746 737.882 46.9149 793.866 61.693 847.411 82.5714 897.448 87.067 908.202 91.8471 918.782 96.9092 929.197 106.593 938.941 118.164 947.32 128.226 954.468 138.507 961.474 149.765 968.224 162.31 968.455 189.036 967.289 213.593 950.563 228.717 927.592 231.075 923.621 234.848 919.882 234.753 914.845 239.313 912.107 244.407 913.604 249.155 914.911 244.281 908.963 235.603 907.028 229.251 911.437 216.486 896.613 213.121 875.015 215.951 855.658 219.441 831.752 231.546 808.888 250.223 794.7 261.983 785.919 277.233 780.711 291.476 784.987 303.928 788.259 313.863 798.605 318.989 810.824 326.567 828.584 325.937 849.214 320.435 867.537 313.517 890.243 298.613 911.37 277.453 920.784 267.297 925.689 255.821 925.896 245.13 923.017 234.093 943.954 217.397 961.879 196.74 971.856 193.501 973.493 189.885 974.329 186.93 976.529 213.404 980.905 240.602 980.202 266.856 974.494 280.691 971.591 294.055 966.652 307.606 962.582 344.678 951.06 382.283 939.876 421.02 937.146 444.791 934.706 468.532 938.478 492.238 939.545 439.478 925.623 383.446 927.459 331.22 943.118 359.895 919.684 393.099 899.955 429.793 896.514 461.331 893.346 493.308 900.319 522.172 913.844 542.764 923.29 561.41 936.741 578.829 951.696 549.148 953.93 521.543 966.718 494.658 979.267 468.311 991.592 440.766 1003.21 411.556 1003.67 407.94 989.45 398.445 977.133 385.615 971.326 390.332 975.197 395.206 979.069 398.633 984.379 408.506 998.93 409.512 1018.46 404.733 1035.22 396.809 1062.86 375.019 1085.7 348.702 1093.4 335.276 1097.38 320.592 1096.47 307.921 1090.13 309.682 1087.86 312.229 1085.49 311.599 1082.19 310.751 1075.51 304.493 1071.71 298.96 1069.94 302.765 1072.81 307.858 1076.45 307.041 1082.19 306.663 1086.96 301.695 1087.03 298.834 1089.43 289.495 1096.31 279.591 1102.25 269.561 1107.89 306.475 1122.88 346.155 1129.93 385.647 1129.35 394.892 1129.39 403.538 1125.25 411.273 1120.17 444.948 1099.31 471.107 1067.9 502.553 1043.76 530.879 1022.67 562.604 1006.88 595.62 995.894 623.134 986.381 651.965 981.103 678.441 968.356 663.382 1025.57 633.981 1080.45 588.547 1116.4 562.512 1137.24 531.32 1150.72 498.998 1155.13 474.065 1158.9 448.784 1156.73 424.07 1152.13 459.254 1139.04 494.185 1124.12 525.441 1102.31 532.579 1097.21 539.871 1092.17 545.879 1085.53 475.071 1137.4 384.263 1155.66 300.154 1137.87 289.779 1135.67 279.528 1132.96 269.403 1129.66 274.528 1138.6 280.597 1146.88 286.068 1155.59 286.634 1156.56 287.326 1157.43 288.08 1158.17 289.149 1158.94 290.25 1159.7 291.35 1160.47 293.646 1161.74 296.193 1162.61 298.551 1163.61 320.309 1172.25 343.262 1179.57 361.562 1195.39 362.6 1196.22 363.605 1197.12 364.612 1198.02 369.234 1202.1 373.573 1206.43 377.692 1210.94 393.351 1228.13 406.022 1248.17 419.542 1267.42 431.334 1284.25 443.753 1300.48 459.351 1313.62 422.215 1313.9 383.981 1310.16 349.96 1293.23 324.962 1281.08 303.519 1260.25 291.256 1233.95 285.093 1220.89 280.44 1207.14 275.692 1193.45 271.604 1181.63 267.423 1169.81 262.109 1158.53 282.012 1182.3 302.859 1205.74 326.535 1225.37 335.527 1232.84 344.897 1239.75 354.802 1245.92 348.294 1240.85 341.785 1235.75 335.527 1230.31 330.182 1225.7 325.025 1220.86 320.12 1215.68 301.443 1196.99 285.565 1175.63 269.184 1154.72 261.385 1144.72 253.431 1134.86 245.035 1125.42 236.294 1115.97 224.283 1111.73 213.467 1105.75 196.771 1096.61 180.767 1085.99 165.737 1074.04 136.401 1050.7 110.586 1022.43 89.7715 990.418 87.0048 986.116 84.3003 981.774 81.6903 977.364 72.4152 961.441 64.2088 944.756 57.4799 927.393 51.9773 913.207 47.4181 898.648 44.0539 883.7 42.6702 877.753 41.507 871.747 40.5639 865.734 40.3751 865.734 39.9975 865.767 39.809 865.767 39.8404 867.975 39.8719 870.176 39.9348 872.351 39.9975 876.653 40.1549 880.929 40.312 885.198 40.8466 896.82 41.7586 908.368 43.1107 919.915 44.3366 929.999 47.9843 939.71 53.518 947.991 73.2954 976.637 94.3309 1004.51 110.807 1035.52 121.938 1056.52 130.175 1079.15 136.338 1102.28 149.355 1150.56 154.952 1200.69 168.032 1248.94 131.433 1230.11 98.7955 1202.53 73.0755 1169.05 40.5639 1126.78 18.5854 1074.51 14.6548 1019.8 13.1455 994.562 14.4979 968.72 21.4464 944.45 34.9668 1003.81 56.6623 1061.76 90.0231 1111.76 59.618 1047.24 35.2812 978.506 26.7289 906.564 24.2449 883.394 23.5218 860.026 24.5908 836.765 22.7985 830.553 21.1321 824.311 19.5285 818.002 7.51758 770.399 0.442838 720.656-1.03531 669.416-1.22381 662.775-1.31786 656.096-1.31786 649.387-1.31786 640.942-1.1607 632.531-0.877943 624.184-0.657674 618.674-0.406056 613.199-0.0603965 607.757" fill="url(#fill1)" fill-rule="evenodd" transform="matrix(-1 1.22465e-16 1.22465e-16 1 2920 359)"/><path d="M38.2483 140.239 38.2483 214.352 79.6693 214.352C88.6841 214.352 97.3138 213.349 105.558 211.344 113.803 209.34 120.802 205.437 126.557 199.638 132.312 193.838 135.189 185.832 135.189 175.62 135.189 165.061 131.302 156.525 123.528 150.01 115.754 143.496 105.298 140.239 92.1627 140.239ZM38.2483 39.8225 38.2483 102.355 82.3927 102.355C93.6736 102.355 102.784 99.1202 109.724 92.6501 116.663 86.1797 120.133 77.963 120.133 67.9999 120.133 59.3596 117.452 52.5034 112.09 47.4308 106.727 42.3586 99.765 39.8225 91.2029 39.8225ZM0 0 95.2075 0C114.702 0 130.531 5.50999 142.697 16.53 154.861 27.5496 160.944 42.1739 160.944 60.4024 160.944 74.9678 157.067 87.6426 149.312 98.4276 145.435 103.82 141.102 108.396 136.314 112.158L129.433 116.758 135.308 117.775C148.766 120.8 158.424 127.353 164.283 137.434 172.094 150.874 176 164.185 176 177.365 176 193.563 171.893 207.486 163.679 219.135 155.465 230.783 144.654 239.506 131.247 245.304 117.84 251.101 103.637 254 88.6381 254L0 254Z" fill="#2C4F1C" fill-rule="evenodd" transform="matrix(-1 0 0 1 2285 469)"/><path d="M2307 475 2474 475 2474 514.725 2349.11 514.725 2349.11 580.865 2468 580.865 2468 620.587 2349.11 620.587 2349.11 728 2307 728Z" fill="#00A549" fill-rule="evenodd"/></g></svg>